%TF.GenerationSoftware,KiCad,Pcbnew,(6.0.6)*%
%TF.CreationDate,2022-07-02T11:07:41-07:00*%
%TF.ProjectId,PT Hub,50542048-7562-42e6-9b69-6361645f7063,v01*%
%TF.SameCoordinates,Original*%
%TF.FileFunction,Soldermask,Bot*%
%TF.FilePolarity,Negative*%
%FSLAX46Y46*%
G04 Gerber Fmt 4.6, Leading zero omitted, Abs format (unit mm)*
G04 Created by KiCad (PCBNEW (6.0.6)) date 2022-07-02 11:07:41*
%MOMM*%
%LPD*%
G01*
G04 APERTURE LIST*
%ADD10C,2.999999*%
%ADD11R,1.900000X1.900000*%
%ADD12C,1.900000*%
%ADD13C,4.300000*%
%ADD14C,1.066800*%
G04 APERTURE END LIST*
D10*
%TO.C,P6*%
X120725502Y-132600000D03*
X134325475Y-132600000D03*
D11*
X125425500Y-127560000D03*
D12*
X129625499Y-127560000D03*
X125425500Y-133059999D03*
X129625499Y-133059999D03*
%TD*%
D13*
%TO.C,H3*%
X75438000Y-133731000D03*
%TD*%
D14*
%TO.C,P1*%
X74295000Y-110490000D03*
X75565000Y-110490000D03*
X74295000Y-111760000D03*
X75565000Y-111760000D03*
X74295000Y-113030000D03*
X75565000Y-113030000D03*
X74295000Y-114300000D03*
X75565000Y-114300000D03*
X74295000Y-115570000D03*
X75565000Y-115570000D03*
X74295000Y-116840000D03*
X75565000Y-116840000D03*
X74295000Y-118110000D03*
X75565000Y-118110000D03*
X74295000Y-119380000D03*
X75565000Y-119380000D03*
X74295000Y-120650000D03*
X75565000Y-120650000D03*
X74295000Y-121920000D03*
X75565000Y-121920000D03*
X74295000Y-123190000D03*
X75565000Y-123190000D03*
X74295000Y-124460000D03*
X75565000Y-124460000D03*
X74295000Y-125730000D03*
X75565000Y-125730000D03*
%TD*%
D13*
%TO.C,H1*%
X160274000Y-133731000D03*
%TD*%
D10*
%TO.C,P3*%
X101548502Y-132600000D03*
X115148475Y-132600000D03*
D11*
X106248500Y-127560000D03*
D12*
X110448499Y-127560000D03*
X106248500Y-133059999D03*
X110448499Y-133059999D03*
%TD*%
D10*
%TO.C,P8*%
X153213498Y-103620000D03*
X139613525Y-103620000D03*
D11*
X148513500Y-108660000D03*
D12*
X144313501Y-108660000D03*
X148513500Y-103160001D03*
X144313501Y-103160001D03*
%TD*%
D10*
%TO.C,P2*%
X139953002Y-132600000D03*
X153552975Y-132600000D03*
D11*
X144653000Y-127560000D03*
D12*
X148852999Y-127560000D03*
X144653000Y-133059999D03*
X148852999Y-133059999D03*
%TD*%
D13*
%TO.C,H4*%
X160274000Y-102362000D03*
%TD*%
D10*
%TO.C,P5*%
X134036499Y-103620000D03*
X120436526Y-103620000D03*
D11*
X129336501Y-108660000D03*
D12*
X125136502Y-108660000D03*
X129336501Y-103160001D03*
X125136502Y-103160001D03*
%TD*%
D10*
%TO.C,P4*%
X95682493Y-103620006D03*
X82082520Y-103620006D03*
D11*
X90982495Y-108660006D03*
D12*
X86782496Y-108660006D03*
X90982495Y-103160007D03*
X86782496Y-103160007D03*
%TD*%
D10*
%TO.C,P7*%
X114859499Y-103620000D03*
X101259526Y-103620000D03*
D11*
X110159501Y-108660000D03*
D12*
X105959502Y-108660000D03*
X110159501Y-103160001D03*
X105959502Y-103160001D03*
%TD*%
D13*
%TO.C,H2*%
X75184000Y-102489000D03*
%TD*%
D10*
%TO.C,P9*%
X82371502Y-132600000D03*
X95971475Y-132600000D03*
D11*
X87071500Y-127560000D03*
D12*
X91271499Y-127560000D03*
X87071500Y-133059999D03*
X91271499Y-133059999D03*
%TD*%
M02*
