M48
; DRILL file {KiCad (6.0.6)} date Sat Jul  2 11:07:43 2022
; FORMAT={-:-/ absolute / inch / decimal}
; #@! TF.CreationDate,2022-07-02T11:07:43-07:00
; #@! TF.GenerationSoftware,Kicad,Pcbnew,(6.0.6)
; #@! TF.FileFunction,Plated,1,2,PTH
FMAT,2
INCH
; #@! TA.AperFunction,Plated,PTH,ViaDrill
T1C0.0157
; #@! TA.AperFunction,Plated,PTH,ComponentDrill
T2C0.0290
; #@! TA.AperFunction,Plated,PTH,ComponentDrill
T3C0.0551
%
G90
G05
T1
X3.435Y-4.655
T2
X2.925Y-4.35
X2.925Y-4.4
X2.925Y-4.45
X2.925Y-4.5
X2.925Y-4.55
X2.925Y-4.6
X2.925Y-4.65
X2.925Y-4.7
X2.925Y-4.75
X2.925Y-4.8
X2.925Y-4.85
X2.925Y-4.9
X2.925Y-4.95
X2.975Y-4.35
X2.975Y-4.4
X2.975Y-4.45
X2.975Y-4.5
X2.975Y-4.55
X2.975Y-4.6
X2.975Y-4.65
X2.975Y-4.7
X2.975Y-4.75
X2.975Y-4.8
X2.975Y-4.85
X2.975Y-4.9
X2.975Y-4.95
T3
X3.4166Y-4.0614
X3.4166Y-4.278
X3.428Y-5.022
X3.428Y-5.2386
X3.582Y-4.0614
X3.582Y-4.278
X3.5934Y-5.022
X3.5934Y-5.2386
X4.1716Y-4.0614
X4.1716Y-4.278
X4.183Y-5.022
X4.183Y-5.2386
X4.337Y-4.0614
X4.337Y-4.278
X4.3484Y-5.022
X4.3484Y-5.2386
X4.9266Y-4.0614
X4.9266Y-4.278
X4.938Y-5.022
X4.938Y-5.2386
X5.092Y-4.0614
X5.092Y-4.278
X5.1034Y-5.022
X5.1034Y-5.2386
X5.6816Y-4.0614
X5.6816Y-4.278
X5.695Y-5.022
X5.695Y-5.2386
X5.847Y-4.0614
X5.847Y-4.278
X5.8604Y-5.022
X5.8604Y-5.2386
T0
M30
