%TF.GenerationSoftware,KiCad,Pcbnew,7.0.1*%
%TF.CreationDate,2023-04-04T11:35:32-07:00*%
%TF.ProjectId,PT Hub,50542048-7562-42e6-9b69-6361645f7063,v01*%
%TF.SameCoordinates,Original*%
%TF.FileFunction,Copper,L2,Bot*%
%TF.FilePolarity,Positive*%
%FSLAX46Y46*%
G04 Gerber Fmt 4.6, Leading zero omitted, Abs format (unit mm)*
G04 Created by KiCad (PCBNEW 7.0.1) date 2023-04-04 11:35:32*
%MOMM*%
%LPD*%
G01*
G04 APERTURE LIST*
%TA.AperFunction,ComponentPad*%
%ADD10R,1.900000X1.900000*%
%TD*%
%TA.AperFunction,ComponentPad*%
%ADD11C,1.900000*%
%TD*%
%TA.AperFunction,ComponentPad*%
%ADD12C,1.066800*%
%TD*%
%TA.AperFunction,ViaPad*%
%ADD13C,0.762000*%
%TD*%
%TA.AperFunction,Conductor*%
%ADD14C,0.508000*%
%TD*%
%TA.AperFunction,Conductor*%
%ADD15C,0.254000*%
%TD*%
G04 APERTURE END LIST*
D10*
%TO.P,P6,1,+12V*%
%TO.N,VIN*%
X125425500Y-127560000D03*
D11*
%TO.P,P6,2,GND*%
%TO.N,PT6+*%
X129625499Y-127560000D03*
%TO.P,P6,3,3*%
%TO.N,Earth*%
X125425500Y-133059999D03*
%TO.P,P6,4,4*%
X129625499Y-133059999D03*
%TD*%
D12*
%TO.P,P1,1,1*%
%TO.N,5V*%
X74295000Y-110490000D03*
%TO.P,P1,2,2*%
X75565000Y-110490000D03*
%TO.P,P1,3,3*%
%TO.N,VIN*%
X74295000Y-111760000D03*
%TO.P,P1,4,4*%
X75565000Y-111760000D03*
%TO.P,P1,5,5*%
%TO.N,PT1+*%
X74295000Y-113030000D03*
%TO.P,P1,6,6*%
%TO.N,PT1-*%
X75565000Y-113030000D03*
%TO.P,P1,7,7*%
%TO.N,PT2+*%
X74295000Y-114300000D03*
%TO.P,P1,8,8*%
%TO.N,PT2-*%
X75565000Y-114300000D03*
%TO.P,P1,9,9*%
%TO.N,PT3+*%
X74295000Y-115570000D03*
%TO.P,P1,10,10*%
%TO.N,PT3-*%
X75565000Y-115570000D03*
%TO.P,P1,11,11*%
%TO.N,PT4+*%
X74295000Y-116840000D03*
%TO.P,P1,12,12*%
%TO.N,PT4-*%
X75565000Y-116840000D03*
%TO.P,P1,13,13*%
%TO.N,PT5+*%
X74295000Y-118110000D03*
%TO.P,P1,14,14*%
%TO.N,Earth*%
X75565000Y-118110000D03*
%TO.P,P1,15,15*%
%TO.N,PT6+*%
X74295000Y-119380000D03*
%TO.P,P1,16,16*%
%TO.N,Earth*%
X75565000Y-119380000D03*
%TO.P,P1,17,17*%
%TO.N,PT7+*%
X74295000Y-120650000D03*
%TO.P,P1,18,18*%
%TO.N,Earth*%
X75565000Y-120650000D03*
%TO.P,P1,19,19*%
%TO.N,PT8+*%
X74295000Y-121920000D03*
%TO.P,P1,20,20*%
%TO.N,Earth*%
X75565000Y-121920000D03*
%TO.P,P1,21,21*%
X74295000Y-123190000D03*
%TO.P,P1,22,22*%
X75565000Y-123190000D03*
%TO.P,P1,23,23*%
X74295000Y-124460000D03*
%TO.P,P1,24,24*%
X75565000Y-124460000D03*
%TO.P,P1,25,25*%
X74295000Y-125730000D03*
%TO.P,P1,26,26*%
X75565000Y-125730000D03*
%TD*%
D10*
%TO.P,P3,1,+12V*%
%TO.N,VIN*%
X106248500Y-127560000D03*
D11*
%TO.P,P3,2,GND*%
%TO.N,PT7+*%
X110448499Y-127560000D03*
%TO.P,P3,3,3*%
%TO.N,Earth*%
X106248500Y-133059999D03*
%TO.P,P3,4,4*%
X110448499Y-133059999D03*
%TD*%
D10*
%TO.P,P8,1,+12V*%
%TO.N,5V*%
X148513500Y-108660000D03*
D11*
%TO.P,P8,2,GND*%
%TO.N,PT4+*%
X144313501Y-108660000D03*
%TO.P,P8,3,3*%
%TO.N,PT4-*%
X148513500Y-103160001D03*
%TO.P,P8,4,4*%
%TO.N,Earth*%
X144313501Y-103160001D03*
%TD*%
D10*
%TO.P,P2,1,+12V*%
%TO.N,VIN*%
X144653000Y-127560000D03*
D11*
%TO.P,P2,2,GND*%
%TO.N,PT5+*%
X148852999Y-127560000D03*
%TO.P,P2,3,3*%
%TO.N,Earth*%
X144653000Y-133059999D03*
%TO.P,P2,4,4*%
X148852999Y-133059999D03*
%TD*%
D10*
%TO.P,P5,1,+12V*%
%TO.N,5V*%
X129336501Y-108660000D03*
D11*
%TO.P,P5,2,GND*%
%TO.N,PT3+*%
X125136502Y-108660000D03*
%TO.P,P5,3,3*%
%TO.N,PT3-*%
X129336501Y-103160001D03*
%TO.P,P5,4,4*%
%TO.N,Earth*%
X125136502Y-103160001D03*
%TD*%
D10*
%TO.P,P4,1,+12V*%
%TO.N,5V*%
X90982495Y-108660006D03*
D11*
%TO.P,P4,2,GND*%
%TO.N,PT1+*%
X86782496Y-108660006D03*
%TO.P,P4,3,3*%
%TO.N,PT1-*%
X90982495Y-103160007D03*
%TO.P,P4,4,4*%
%TO.N,Earth*%
X86782496Y-103160007D03*
%TD*%
D10*
%TO.P,P7,1,+12V*%
%TO.N,5V*%
X110159501Y-108660000D03*
D11*
%TO.P,P7,2,GND*%
%TO.N,PT2+*%
X105959502Y-108660000D03*
%TO.P,P7,3,3*%
%TO.N,PT2-*%
X110159501Y-103160001D03*
%TO.P,P7,4,4*%
%TO.N,Earth*%
X105959502Y-103160001D03*
%TD*%
D10*
%TO.P,P9,1,+12V*%
%TO.N,VIN*%
X87071500Y-127560000D03*
D11*
%TO.P,P9,2,GND*%
%TO.N,PT8+*%
X91271499Y-127560000D03*
%TO.P,P9,3,3*%
%TO.N,Earth*%
X87071500Y-133059999D03*
%TO.P,P9,4,4*%
X91271499Y-133059999D03*
%TD*%
D13*
%TO.N,VIN*%
X99695000Y-127381000D03*
%TO.N,Earth*%
X87249000Y-118237000D03*
%TD*%
D14*
%TO.N,VIN*%
X106299000Y-120904000D02*
X125603000Y-120904000D01*
X125603000Y-120904000D02*
X137668000Y-120904000D01*
X125425500Y-127560000D02*
X125425500Y-121081500D01*
X125425500Y-121081500D02*
X125603000Y-120904000D01*
X86614000Y-120904000D02*
X106299000Y-120904000D01*
X106248500Y-127560000D02*
X106248500Y-120954500D01*
X106248500Y-120954500D02*
X106299000Y-120904000D01*
X75565000Y-111760000D02*
X77470000Y-111760000D01*
X77470000Y-111760000D02*
X86614000Y-120904000D01*
X137668000Y-120904000D02*
X144272000Y-127508000D01*
D15*
X99695000Y-127381000D02*
X106299000Y-127381000D01*
%TO.N,PT1+*%
X74295000Y-113030000D02*
X73406000Y-113030000D01*
X73406000Y-113030000D02*
X73152000Y-112776000D01*
X84888000Y-108660000D02*
X86782501Y-108660000D01*
X73914000Y-109220000D02*
X84328000Y-109220000D01*
X73152000Y-112776000D02*
X73152000Y-109982000D01*
X73152000Y-109982000D02*
X73914000Y-109220000D01*
X84328000Y-109220000D02*
X84888000Y-108660000D01*
%TO.N,PT2+*%
X73660000Y-108712000D02*
X84074000Y-108712000D01*
X72517000Y-113538000D02*
X72517000Y-109855000D01*
X85725000Y-107061000D02*
X104267000Y-107061000D01*
X104267000Y-107061000D02*
X105537000Y-108331000D01*
X84074000Y-108712000D02*
X85725000Y-107061000D01*
X73279000Y-114300000D02*
X72517000Y-113538000D01*
X72517000Y-109855000D02*
X73660000Y-108712000D01*
X74295000Y-114300000D02*
X73279000Y-114300000D01*
%TO.N,PT3+*%
X85407500Y-106616500D02*
X122999500Y-106616500D01*
X72009000Y-114427000D02*
X72009000Y-109601000D01*
X74295000Y-115570000D02*
X73152000Y-115570000D01*
X122999500Y-106616500D02*
X123380500Y-106997500D01*
X123380500Y-106997500D02*
X124968000Y-108585000D01*
X73152000Y-115570000D02*
X72009000Y-114427000D01*
X73406000Y-108204000D02*
X83820000Y-108204000D01*
X72009000Y-109601000D02*
X73406000Y-108204000D01*
X83820000Y-108204000D02*
X85407500Y-106616500D01*
%TO.N,PT4+*%
X73152000Y-107696000D02*
X83566000Y-107696000D01*
X83566000Y-107696000D02*
X85090000Y-106172000D01*
X71501000Y-115951000D02*
X71501000Y-109347000D01*
X74295000Y-116840000D02*
X72390000Y-116840000D01*
X85090000Y-106172000D02*
X141732000Y-106172000D01*
X72390000Y-116840000D02*
X71501000Y-115951000D01*
X141732000Y-106172000D02*
X144018000Y-108458000D01*
X71501000Y-109347000D02*
X73152000Y-107696000D01*
%TO.N,PT5+*%
X84901369Y-129921000D02*
X146431000Y-129921000D01*
X74295000Y-118110000D02*
X72390000Y-118110000D01*
X71374000Y-127000000D02*
X72898000Y-128524000D01*
X72390000Y-118110000D02*
X71374000Y-119126000D01*
X146431000Y-129921000D02*
X148717000Y-127635000D01*
X83504368Y-128524000D02*
X84901369Y-129921000D01*
X71374000Y-119126000D02*
X71374000Y-127000000D01*
X72898000Y-128524000D02*
X83504368Y-128524000D01*
%TO.N,PT6+*%
X71882000Y-119761000D02*
X71882000Y-126776816D01*
X71882000Y-126776816D02*
X73248184Y-128143000D01*
X73248184Y-128143000D02*
X83662184Y-128143000D01*
X72263000Y-119380000D02*
X71882000Y-119761000D01*
X83662184Y-128143000D02*
X85059184Y-129540000D01*
X85059184Y-129540000D02*
X127635000Y-129540000D01*
X74295000Y-119380000D02*
X72263000Y-119380000D01*
X127635000Y-129540000D02*
X129540000Y-127635000D01*
%TO.N,PT7+*%
X72898000Y-120650000D02*
X72390000Y-121158000D01*
X83693000Y-127635000D02*
X85217000Y-129159000D01*
X72390000Y-121158000D02*
X72390000Y-126746000D01*
X85217000Y-129159000D02*
X108712000Y-129159000D01*
X108712000Y-129159000D02*
X110236000Y-127635000D01*
X72390000Y-126746000D02*
X73279000Y-127635000D01*
X74295000Y-120650000D02*
X72898000Y-120650000D01*
X73279000Y-127635000D02*
X83693000Y-127635000D01*
%TO.N,PT8+*%
X73406000Y-127127000D02*
X72898000Y-126619000D01*
X91271499Y-127560000D02*
X89187499Y-125476000D01*
X73406000Y-121920000D02*
X74168000Y-121920000D01*
X72898000Y-122428000D02*
X73406000Y-121920000D01*
X82804000Y-125476000D02*
X81153000Y-127127000D01*
X72898000Y-126619000D02*
X72898000Y-122428000D01*
X81153000Y-127127000D02*
X73406000Y-127127000D01*
X89187499Y-125476000D02*
X82804000Y-125476000D01*
%TD*%
%TA.AperFunction,Conductor*%
%TO.N,Earth*%
G36*
X164274500Y-98442381D02*
G01*
X164320619Y-98488500D01*
X164337500Y-98551500D01*
X164337500Y-137744700D01*
X164320619Y-137807700D01*
X164274500Y-137853819D01*
X164211500Y-137870700D01*
X71246500Y-137870700D01*
X71183500Y-137853819D01*
X71137381Y-137807700D01*
X71120500Y-137744700D01*
X71120500Y-133653905D01*
X73033793Y-133653905D01*
X73043672Y-133961975D01*
X73091233Y-134256155D01*
X73092867Y-134266261D01*
X73137135Y-134415415D01*
X73180570Y-134561758D01*
X73305336Y-134843609D01*
X73465119Y-135107189D01*
X73542476Y-135204191D01*
X73657304Y-135348181D01*
X73878724Y-135562614D01*
X74125748Y-135746973D01*
X74394317Y-135898228D01*
X74548483Y-135960643D01*
X74680025Y-136013899D01*
X74978179Y-136092084D01*
X75283883Y-136131500D01*
X75514974Y-136131500D01*
X75514976Y-136131500D01*
X75745603Y-136116693D01*
X76048146Y-136057773D01*
X76048146Y-136057772D01*
X76048151Y-136057772D01*
X76340683Y-135960644D01*
X76618393Y-135826907D01*
X76876720Y-135658754D01*
X77111424Y-135458948D01*
X77318650Y-135230769D01*
X77494996Y-134977963D01*
X77637567Y-134704683D01*
X77744020Y-134415415D01*
X77812609Y-134114908D01*
X77842206Y-133808098D01*
X77838562Y-133694474D01*
X77832327Y-133500024D01*
X77832327Y-133500022D01*
X77783133Y-133195739D01*
X77695431Y-132900244D01*
X77620592Y-132731182D01*
X80621002Y-132731182D01*
X80660106Y-132990615D01*
X80660107Y-132990618D01*
X80737438Y-133241323D01*
X80851274Y-133477704D01*
X80999065Y-133694474D01*
X80999067Y-133694476D01*
X80999069Y-133694479D01*
X81177521Y-133886805D01*
X81382645Y-134050386D01*
X81609859Y-134181568D01*
X81854086Y-134277420D01*
X82109872Y-134335802D01*
X82306008Y-134350500D01*
X82436991Y-134350500D01*
X82436996Y-134350500D01*
X82633132Y-134335802D01*
X82888918Y-134277420D01*
X82943098Y-134256156D01*
X86234552Y-134256156D01*
X86271310Y-134284767D01*
X86483824Y-134399774D01*
X86712352Y-134478227D01*
X86950689Y-134517999D01*
X87192311Y-134517999D01*
X87430647Y-134478227D01*
X87659178Y-134399773D01*
X87871684Y-134284770D01*
X87908446Y-134256156D01*
X90434551Y-134256156D01*
X90471309Y-134284767D01*
X90683823Y-134399774D01*
X90912351Y-134478227D01*
X91150688Y-134517999D01*
X91392310Y-134517999D01*
X91630646Y-134478227D01*
X91859177Y-134399773D01*
X92071683Y-134284770D01*
X92108445Y-134256156D01*
X92108446Y-134256155D01*
X91271500Y-133419209D01*
X91271499Y-133419209D01*
X90434551Y-134256156D01*
X87908446Y-134256156D01*
X87908447Y-134256155D01*
X87071501Y-133419209D01*
X87071500Y-133419209D01*
X86234552Y-134256156D01*
X82943098Y-134256156D01*
X83133145Y-134181568D01*
X83360359Y-134050386D01*
X83565483Y-133886805D01*
X83743935Y-133694479D01*
X83891730Y-133477704D01*
X84005565Y-133241323D01*
X84061496Y-133059999D01*
X85608503Y-133059999D01*
X85628457Y-133300804D01*
X85687771Y-133535031D01*
X85784833Y-133756309D01*
X85876172Y-133896114D01*
X86712289Y-133060000D01*
X87430710Y-133060000D01*
X88266824Y-133896114D01*
X88266825Y-133896114D01*
X88358168Y-133756305D01*
X88455228Y-133535031D01*
X88514542Y-133300804D01*
X88534496Y-133059999D01*
X89808502Y-133059999D01*
X89828456Y-133300804D01*
X89887770Y-133535031D01*
X89984832Y-133756309D01*
X90076171Y-133896114D01*
X90912288Y-133060000D01*
X91630709Y-133060000D01*
X92466823Y-133896114D01*
X92466824Y-133896114D01*
X92558167Y-133756305D01*
X92655227Y-133535031D01*
X92714541Y-133300804D01*
X92734495Y-133059999D01*
X92714541Y-132819193D01*
X92692254Y-132731182D01*
X94220975Y-132731182D01*
X94260079Y-132990615D01*
X94260080Y-132990618D01*
X94337411Y-133241323D01*
X94451247Y-133477704D01*
X94599038Y-133694474D01*
X94599040Y-133694476D01*
X94599042Y-133694479D01*
X94777494Y-133886805D01*
X94982618Y-134050386D01*
X95209832Y-134181568D01*
X95454059Y-134277420D01*
X95709845Y-134335802D01*
X95905981Y-134350500D01*
X96036964Y-134350500D01*
X96036969Y-134350500D01*
X96233105Y-134335802D01*
X96488891Y-134277420D01*
X96733118Y-134181568D01*
X96960332Y-134050386D01*
X97165456Y-133886805D01*
X97343908Y-133694479D01*
X97491703Y-133477704D01*
X97605538Y-133241323D01*
X97682871Y-132990615D01*
X97721975Y-132731182D01*
X99798002Y-132731182D01*
X99837106Y-132990615D01*
X99837107Y-132990618D01*
X99914438Y-133241323D01*
X100028274Y-133477704D01*
X100176065Y-133694474D01*
X100176067Y-133694476D01*
X100176069Y-133694479D01*
X100354521Y-133886805D01*
X100559645Y-134050386D01*
X100786859Y-134181568D01*
X101031086Y-134277420D01*
X101286872Y-134335802D01*
X101483008Y-134350500D01*
X101613991Y-134350500D01*
X101613996Y-134350500D01*
X101810132Y-134335802D01*
X102065918Y-134277420D01*
X102120098Y-134256156D01*
X105411552Y-134256156D01*
X105448310Y-134284767D01*
X105660824Y-134399774D01*
X105889352Y-134478227D01*
X106127689Y-134517999D01*
X106369311Y-134517999D01*
X106607647Y-134478227D01*
X106836178Y-134399773D01*
X107048684Y-134284770D01*
X107085446Y-134256156D01*
X109611551Y-134256156D01*
X109648309Y-134284767D01*
X109860823Y-134399774D01*
X110089351Y-134478227D01*
X110327688Y-134517999D01*
X110569310Y-134517999D01*
X110807646Y-134478227D01*
X111036177Y-134399773D01*
X111248683Y-134284770D01*
X111285445Y-134256156D01*
X111285446Y-134256155D01*
X110448500Y-133419209D01*
X110448499Y-133419209D01*
X109611551Y-134256156D01*
X107085446Y-134256156D01*
X107085447Y-134256155D01*
X106248501Y-133419209D01*
X106248500Y-133419209D01*
X105411552Y-134256156D01*
X102120098Y-134256156D01*
X102310145Y-134181568D01*
X102537359Y-134050386D01*
X102742483Y-133886805D01*
X102920935Y-133694479D01*
X103068730Y-133477704D01*
X103182565Y-133241323D01*
X103238496Y-133059999D01*
X104785503Y-133059999D01*
X104805457Y-133300804D01*
X104864771Y-133535031D01*
X104961833Y-133756309D01*
X105053172Y-133896114D01*
X105889289Y-133060000D01*
X106607710Y-133060000D01*
X107443824Y-133896114D01*
X107443825Y-133896114D01*
X107535168Y-133756305D01*
X107632228Y-133535031D01*
X107691542Y-133300804D01*
X107711496Y-133059999D01*
X108985502Y-133059999D01*
X109005456Y-133300804D01*
X109064770Y-133535031D01*
X109161832Y-133756309D01*
X109253171Y-133896114D01*
X110089288Y-133060000D01*
X110807709Y-133060000D01*
X111643823Y-133896114D01*
X111643824Y-133896114D01*
X111735167Y-133756305D01*
X111832227Y-133535031D01*
X111891541Y-133300804D01*
X111911495Y-133059999D01*
X111891541Y-132819193D01*
X111869254Y-132731182D01*
X113397975Y-132731182D01*
X113437079Y-132990615D01*
X113437080Y-132990618D01*
X113514411Y-133241323D01*
X113628247Y-133477704D01*
X113776038Y-133694474D01*
X113776040Y-133694476D01*
X113776042Y-133694479D01*
X113954494Y-133886805D01*
X114159618Y-134050386D01*
X114386832Y-134181568D01*
X114631059Y-134277420D01*
X114886845Y-134335802D01*
X115082981Y-134350500D01*
X115213964Y-134350500D01*
X115213969Y-134350500D01*
X115410105Y-134335802D01*
X115665891Y-134277420D01*
X115910118Y-134181568D01*
X116137332Y-134050386D01*
X116342456Y-133886805D01*
X116520908Y-133694479D01*
X116668703Y-133477704D01*
X116782538Y-133241323D01*
X116859871Y-132990615D01*
X116898975Y-132731182D01*
X118975002Y-132731182D01*
X119014106Y-132990615D01*
X119014107Y-132990618D01*
X119091438Y-133241323D01*
X119205274Y-133477704D01*
X119353065Y-133694474D01*
X119353067Y-133694476D01*
X119353069Y-133694479D01*
X119531521Y-133886805D01*
X119736645Y-134050386D01*
X119963859Y-134181568D01*
X120208086Y-134277420D01*
X120463872Y-134335802D01*
X120660008Y-134350500D01*
X120790991Y-134350500D01*
X120790996Y-134350500D01*
X120987132Y-134335802D01*
X121242918Y-134277420D01*
X121297098Y-134256156D01*
X124588551Y-134256156D01*
X124625310Y-134284767D01*
X124837824Y-134399774D01*
X125066352Y-134478227D01*
X125304689Y-134517999D01*
X125546311Y-134517999D01*
X125784647Y-134478227D01*
X126013178Y-134399773D01*
X126225684Y-134284770D01*
X126262446Y-134256156D01*
X128788551Y-134256156D01*
X128825309Y-134284767D01*
X129037823Y-134399774D01*
X129266351Y-134478227D01*
X129504688Y-134517999D01*
X129746310Y-134517999D01*
X129984646Y-134478227D01*
X130213177Y-134399773D01*
X130425683Y-134284770D01*
X130462445Y-134256156D01*
X130462446Y-134256155D01*
X129625500Y-133419209D01*
X129625499Y-133419209D01*
X128788551Y-134256156D01*
X126262446Y-134256156D01*
X126262447Y-134256155D01*
X125425501Y-133419209D01*
X125425500Y-133419209D01*
X124588551Y-134256156D01*
X121297098Y-134256156D01*
X121487145Y-134181568D01*
X121714359Y-134050386D01*
X121919483Y-133886805D01*
X122097935Y-133694479D01*
X122245730Y-133477704D01*
X122359565Y-133241323D01*
X122415496Y-133059998D01*
X123962503Y-133059998D01*
X123982457Y-133300804D01*
X124041771Y-133535031D01*
X124138833Y-133756309D01*
X124230172Y-133896114D01*
X125066289Y-133060000D01*
X125784710Y-133060000D01*
X126620824Y-133896114D01*
X126620825Y-133896114D01*
X126712168Y-133756305D01*
X126809228Y-133535031D01*
X126868542Y-133300804D01*
X126888496Y-133059998D01*
X128162502Y-133059998D01*
X128182456Y-133300804D01*
X128241770Y-133535031D01*
X128338832Y-133756309D01*
X128430171Y-133896114D01*
X129266288Y-133060000D01*
X129984709Y-133060000D01*
X130820823Y-133896114D01*
X130820824Y-133896114D01*
X130912167Y-133756305D01*
X131009227Y-133535031D01*
X131068541Y-133300804D01*
X131088495Y-133059998D01*
X131068541Y-132819193D01*
X131046254Y-132731182D01*
X132574975Y-132731182D01*
X132614079Y-132990615D01*
X132614080Y-132990618D01*
X132691411Y-133241323D01*
X132805247Y-133477704D01*
X132953038Y-133694474D01*
X132953040Y-133694476D01*
X132953042Y-133694479D01*
X133131494Y-133886805D01*
X133336618Y-134050386D01*
X133563832Y-134181568D01*
X133808059Y-134277420D01*
X134063845Y-134335802D01*
X134259981Y-134350500D01*
X134390964Y-134350500D01*
X134390969Y-134350500D01*
X134587105Y-134335802D01*
X134842891Y-134277420D01*
X135087118Y-134181568D01*
X135314332Y-134050386D01*
X135519456Y-133886805D01*
X135697908Y-133694479D01*
X135845703Y-133477704D01*
X135959538Y-133241323D01*
X136036871Y-132990615D01*
X136075975Y-132731182D01*
X138202502Y-132731182D01*
X138241606Y-132990615D01*
X138241607Y-132990618D01*
X138318938Y-133241323D01*
X138432774Y-133477704D01*
X138580565Y-133694474D01*
X138580567Y-133694476D01*
X138580569Y-133694479D01*
X138759021Y-133886805D01*
X138964145Y-134050386D01*
X139191359Y-134181568D01*
X139435586Y-134277420D01*
X139691372Y-134335802D01*
X139887508Y-134350500D01*
X140018491Y-134350500D01*
X140018496Y-134350500D01*
X140214632Y-134335802D01*
X140470418Y-134277420D01*
X140524598Y-134256156D01*
X143816052Y-134256156D01*
X143852810Y-134284767D01*
X144065324Y-134399774D01*
X144293852Y-134478227D01*
X144532189Y-134517999D01*
X144773811Y-134517999D01*
X145012147Y-134478227D01*
X145240678Y-134399773D01*
X145453184Y-134284770D01*
X145489946Y-134256156D01*
X148016050Y-134256156D01*
X148052809Y-134284767D01*
X148265323Y-134399774D01*
X148493851Y-134478227D01*
X148732188Y-134517999D01*
X148973810Y-134517999D01*
X149212146Y-134478227D01*
X149440677Y-134399773D01*
X149653183Y-134284770D01*
X149689945Y-134256156D01*
X149689946Y-134256155D01*
X148853000Y-133419209D01*
X148852999Y-133419209D01*
X148016050Y-134256156D01*
X145489946Y-134256156D01*
X145489947Y-134256155D01*
X144653001Y-133419209D01*
X144653000Y-133419209D01*
X143816052Y-134256156D01*
X140524598Y-134256156D01*
X140714645Y-134181568D01*
X140941859Y-134050386D01*
X141146983Y-133886805D01*
X141325435Y-133694479D01*
X141473230Y-133477704D01*
X141587065Y-133241323D01*
X141642996Y-133059998D01*
X143190003Y-133059998D01*
X143209957Y-133300804D01*
X143269271Y-133535031D01*
X143366333Y-133756309D01*
X143457672Y-133896114D01*
X144293789Y-133060000D01*
X145012210Y-133060000D01*
X145848324Y-133896114D01*
X145848325Y-133896114D01*
X145939668Y-133756305D01*
X146036728Y-133535031D01*
X146096042Y-133300804D01*
X146115996Y-133059998D01*
X147390002Y-133059998D01*
X147409956Y-133300804D01*
X147469270Y-133535031D01*
X147566332Y-133756309D01*
X147657671Y-133896114D01*
X148493788Y-133060000D01*
X149212209Y-133060000D01*
X150048323Y-133896114D01*
X150048324Y-133896114D01*
X150139667Y-133756305D01*
X150236727Y-133535031D01*
X150296041Y-133300804D01*
X150315995Y-133059998D01*
X150296041Y-132819193D01*
X150273754Y-132731182D01*
X151802475Y-132731182D01*
X151841579Y-132990615D01*
X151841580Y-132990618D01*
X151918911Y-133241323D01*
X152032747Y-133477704D01*
X152180538Y-133694474D01*
X152180540Y-133694476D01*
X152180542Y-133694479D01*
X152358994Y-133886805D01*
X152564118Y-134050386D01*
X152791332Y-134181568D01*
X153035559Y-134277420D01*
X153291345Y-134335802D01*
X153487481Y-134350500D01*
X153618464Y-134350500D01*
X153618469Y-134350500D01*
X153814605Y-134335802D01*
X154070391Y-134277420D01*
X154314618Y-134181568D01*
X154541832Y-134050386D01*
X154746956Y-133886805D01*
X154925408Y-133694479D01*
X154953071Y-133653905D01*
X157869793Y-133653905D01*
X157879672Y-133961975D01*
X157927233Y-134256155D01*
X157928867Y-134266261D01*
X157973135Y-134415415D01*
X158016570Y-134561758D01*
X158141336Y-134843609D01*
X158301119Y-135107189D01*
X158378476Y-135204191D01*
X158493304Y-135348181D01*
X158714724Y-135562614D01*
X158961748Y-135746973D01*
X159230317Y-135898228D01*
X159384483Y-135960643D01*
X159516025Y-136013899D01*
X159814179Y-136092084D01*
X160119883Y-136131500D01*
X160350974Y-136131500D01*
X160350976Y-136131500D01*
X160581603Y-136116693D01*
X160884146Y-136057773D01*
X160884146Y-136057772D01*
X160884151Y-136057772D01*
X161176683Y-135960644D01*
X161454393Y-135826907D01*
X161712720Y-135658754D01*
X161947424Y-135458948D01*
X162154650Y-135230769D01*
X162330996Y-134977963D01*
X162473567Y-134704683D01*
X162580020Y-134415415D01*
X162648609Y-134114908D01*
X162678206Y-133808098D01*
X162674562Y-133694474D01*
X162668327Y-133500024D01*
X162668327Y-133500022D01*
X162619133Y-133195739D01*
X162531431Y-132900244D01*
X162406663Y-132618391D01*
X162406663Y-132618390D01*
X162246880Y-132354810D01*
X162188861Y-132282057D01*
X162054696Y-132113819D01*
X161833276Y-131899386D01*
X161747309Y-131835227D01*
X161586251Y-131715026D01*
X161317682Y-131563771D01*
X161031976Y-131448101D01*
X160733826Y-131369917D01*
X160733823Y-131369916D01*
X160733821Y-131369916D01*
X160428117Y-131330500D01*
X160197026Y-131330500D01*
X160197024Y-131330500D01*
X159966396Y-131345306D01*
X159663853Y-131404226D01*
X159371314Y-131501356D01*
X159093609Y-131635091D01*
X158835278Y-131803247D01*
X158600576Y-132003052D01*
X158393351Y-132231229D01*
X158217000Y-132484042D01*
X158074434Y-132757314D01*
X157967980Y-133046583D01*
X157899391Y-133347091D01*
X157869793Y-133653905D01*
X154953071Y-133653905D01*
X155073203Y-133477704D01*
X155187038Y-133241323D01*
X155264371Y-132990615D01*
X155303475Y-132731182D01*
X155303475Y-132468818D01*
X155264371Y-132209385D01*
X155187038Y-131958677D01*
X155141367Y-131863841D01*
X155112186Y-131803246D01*
X155073203Y-131722296D01*
X154925408Y-131505521D01*
X154746956Y-131313195D01*
X154541832Y-131149614D01*
X154314618Y-131018432D01*
X154070392Y-130922580D01*
X153814606Y-130864198D01*
X153781915Y-130861748D01*
X153618469Y-130849500D01*
X153487481Y-130849500D01*
X153347383Y-130859998D01*
X153291343Y-130864198D01*
X153035557Y-130922580D01*
X152791331Y-131018432D01*
X152564121Y-131149612D01*
X152564118Y-131149614D01*
X152358994Y-131313195D01*
X152306365Y-131369916D01*
X152180538Y-131505525D01*
X152032747Y-131722295D01*
X151918911Y-131958676D01*
X151841580Y-132209381D01*
X151841579Y-132209385D01*
X151802475Y-132468818D01*
X151802475Y-132731182D01*
X150273754Y-132731182D01*
X150236727Y-132584966D01*
X150139667Y-132363692D01*
X150048324Y-132223882D01*
X149212209Y-133059999D01*
X149212209Y-133060000D01*
X148493788Y-133060000D01*
X148493789Y-133059999D01*
X148493789Y-133059998D01*
X147657673Y-132223882D01*
X147657672Y-132223882D01*
X147566332Y-132363688D01*
X147469270Y-132584966D01*
X147409956Y-132819193D01*
X147390002Y-133059998D01*
X146115996Y-133059998D01*
X146096042Y-132819193D01*
X146036728Y-132584966D01*
X145939668Y-132363692D01*
X145848325Y-132223882D01*
X145012210Y-133059999D01*
X145012210Y-133060000D01*
X144293789Y-133060000D01*
X144293790Y-133059999D01*
X144293790Y-133059998D01*
X143457674Y-132223882D01*
X143457673Y-132223882D01*
X143366333Y-132363688D01*
X143269271Y-132584966D01*
X143209957Y-132819193D01*
X143190003Y-133059998D01*
X141642996Y-133059998D01*
X141664398Y-132990615D01*
X141703502Y-132731182D01*
X141703502Y-132468818D01*
X141664398Y-132209385D01*
X141587065Y-131958677D01*
X141541394Y-131863841D01*
X143816051Y-131863841D01*
X144652999Y-132700789D01*
X144653000Y-132700789D01*
X145489947Y-131863841D01*
X148016050Y-131863841D01*
X148852998Y-132700789D01*
X148852999Y-132700789D01*
X149689946Y-131863841D01*
X149689945Y-131863840D01*
X149653187Y-131835230D01*
X149440674Y-131720223D01*
X149212146Y-131641770D01*
X148973810Y-131601999D01*
X148732188Y-131601999D01*
X148493851Y-131641770D01*
X148265320Y-131720224D01*
X148052813Y-131835227D01*
X148016051Y-131863840D01*
X148016050Y-131863841D01*
X145489947Y-131863841D01*
X145489946Y-131863840D01*
X145453188Y-131835230D01*
X145240675Y-131720223D01*
X145012147Y-131641770D01*
X144773811Y-131601999D01*
X144532189Y-131601999D01*
X144293852Y-131641770D01*
X144065321Y-131720224D01*
X143852814Y-131835227D01*
X143816052Y-131863840D01*
X143816051Y-131863841D01*
X141541394Y-131863841D01*
X141512213Y-131803246D01*
X141473230Y-131722296D01*
X141325435Y-131505521D01*
X141146983Y-131313195D01*
X140941859Y-131149614D01*
X140714645Y-131018432D01*
X140470419Y-130922580D01*
X140214633Y-130864198D01*
X140181942Y-130861748D01*
X140018496Y-130849500D01*
X139887508Y-130849500D01*
X139747410Y-130859998D01*
X139691370Y-130864198D01*
X139435584Y-130922580D01*
X139191358Y-131018432D01*
X138964148Y-131149612D01*
X138964145Y-131149614D01*
X138759021Y-131313195D01*
X138706392Y-131369916D01*
X138580565Y-131505525D01*
X138432774Y-131722295D01*
X138318938Y-131958676D01*
X138241607Y-132209381D01*
X138241606Y-132209385D01*
X138202502Y-132468818D01*
X138202502Y-132731182D01*
X136075975Y-132731182D01*
X136075975Y-132468818D01*
X136036871Y-132209385D01*
X135959538Y-131958677D01*
X135913867Y-131863841D01*
X135884686Y-131803246D01*
X135845703Y-131722296D01*
X135697908Y-131505521D01*
X135519456Y-131313195D01*
X135314332Y-131149614D01*
X135087118Y-131018432D01*
X134842892Y-130922580D01*
X134587106Y-130864198D01*
X134554415Y-130861748D01*
X134390969Y-130849500D01*
X134259981Y-130849500D01*
X134119883Y-130859998D01*
X134063843Y-130864198D01*
X133808057Y-130922580D01*
X133563831Y-131018432D01*
X133336621Y-131149612D01*
X133336618Y-131149614D01*
X133131494Y-131313195D01*
X133078865Y-131369916D01*
X132953038Y-131505525D01*
X132805247Y-131722295D01*
X132691411Y-131958676D01*
X132614080Y-132209381D01*
X132614079Y-132209385D01*
X132574975Y-132468818D01*
X132574975Y-132731182D01*
X131046254Y-132731182D01*
X131009227Y-132584966D01*
X130912167Y-132363692D01*
X130820824Y-132223882D01*
X129984709Y-133059999D01*
X129984709Y-133060000D01*
X129266288Y-133060000D01*
X129266289Y-133059999D01*
X129266289Y-133059998D01*
X128430173Y-132223882D01*
X128430172Y-132223882D01*
X128338832Y-132363688D01*
X128241770Y-132584966D01*
X128182456Y-132819193D01*
X128162502Y-133059998D01*
X126888496Y-133059998D01*
X126868542Y-132819193D01*
X126809228Y-132584966D01*
X126712168Y-132363692D01*
X126620825Y-132223882D01*
X125784710Y-133059999D01*
X125784710Y-133060000D01*
X125066289Y-133060000D01*
X125066290Y-133059999D01*
X125066290Y-133059998D01*
X124230174Y-132223882D01*
X124230173Y-132223882D01*
X124138833Y-132363688D01*
X124041771Y-132584966D01*
X123982457Y-132819193D01*
X123962503Y-133059998D01*
X122415496Y-133059998D01*
X122436898Y-132990615D01*
X122476002Y-132731182D01*
X122476002Y-132468818D01*
X122436898Y-132209385D01*
X122359565Y-131958677D01*
X122313894Y-131863841D01*
X124588551Y-131863841D01*
X125425499Y-132700789D01*
X125425500Y-132700789D01*
X126262447Y-131863841D01*
X128788550Y-131863841D01*
X129625498Y-132700789D01*
X129625499Y-132700789D01*
X130462446Y-131863841D01*
X130462445Y-131863840D01*
X130425687Y-131835230D01*
X130213174Y-131720223D01*
X129984646Y-131641770D01*
X129746310Y-131601999D01*
X129504688Y-131601999D01*
X129266351Y-131641770D01*
X129037820Y-131720224D01*
X128825313Y-131835227D01*
X128788551Y-131863840D01*
X128788550Y-131863841D01*
X126262447Y-131863841D01*
X126262446Y-131863840D01*
X126225688Y-131835230D01*
X126013175Y-131720223D01*
X125784647Y-131641770D01*
X125546311Y-131601999D01*
X125304689Y-131601999D01*
X125066352Y-131641770D01*
X124837821Y-131720224D01*
X124625314Y-131835227D01*
X124588552Y-131863840D01*
X124588551Y-131863841D01*
X122313894Y-131863841D01*
X122284713Y-131803246D01*
X122245730Y-131722296D01*
X122097935Y-131505521D01*
X121919483Y-131313195D01*
X121714359Y-131149614D01*
X121487145Y-131018432D01*
X121242919Y-130922580D01*
X120987133Y-130864198D01*
X120954442Y-130861748D01*
X120790996Y-130849500D01*
X120660008Y-130849500D01*
X120519910Y-130859998D01*
X120463870Y-130864198D01*
X120208084Y-130922580D01*
X119963858Y-131018432D01*
X119736648Y-131149612D01*
X119736645Y-131149614D01*
X119531521Y-131313195D01*
X119478892Y-131369916D01*
X119353065Y-131505525D01*
X119205274Y-131722295D01*
X119091438Y-131958676D01*
X119014107Y-132209381D01*
X119014106Y-132209385D01*
X118975002Y-132468818D01*
X118975002Y-132731182D01*
X116898975Y-132731182D01*
X116898975Y-132468818D01*
X116859871Y-132209385D01*
X116782538Y-131958677D01*
X116736867Y-131863841D01*
X116707686Y-131803246D01*
X116668703Y-131722296D01*
X116520908Y-131505521D01*
X116342456Y-131313195D01*
X116137332Y-131149614D01*
X115910118Y-131018432D01*
X115665892Y-130922580D01*
X115410106Y-130864198D01*
X115377415Y-130861748D01*
X115213969Y-130849500D01*
X115082981Y-130849500D01*
X114942883Y-130859998D01*
X114886843Y-130864198D01*
X114631057Y-130922580D01*
X114386831Y-131018432D01*
X114159621Y-131149612D01*
X114159618Y-131149614D01*
X113954494Y-131313195D01*
X113901865Y-131369916D01*
X113776038Y-131505525D01*
X113628247Y-131722295D01*
X113514411Y-131958676D01*
X113437080Y-132209381D01*
X113437079Y-132209385D01*
X113397975Y-132468818D01*
X113397975Y-132731182D01*
X111869254Y-132731182D01*
X111832227Y-132584966D01*
X111735167Y-132363692D01*
X111643824Y-132223882D01*
X110807709Y-133059999D01*
X110807709Y-133060000D01*
X110089288Y-133060000D01*
X110089289Y-133059999D01*
X110089289Y-133059998D01*
X109253173Y-132223882D01*
X109253172Y-132223882D01*
X109161832Y-132363688D01*
X109064770Y-132584966D01*
X109005456Y-132819193D01*
X108985502Y-133059999D01*
X107711496Y-133059999D01*
X107691542Y-132819193D01*
X107632228Y-132584966D01*
X107535168Y-132363692D01*
X107443825Y-132223882D01*
X106607710Y-133059999D01*
X106607710Y-133060000D01*
X105889289Y-133060000D01*
X105889290Y-133059999D01*
X105889290Y-133059998D01*
X105053174Y-132223882D01*
X105053173Y-132223882D01*
X104961833Y-132363688D01*
X104864771Y-132584966D01*
X104805457Y-132819193D01*
X104785503Y-133059999D01*
X103238496Y-133059999D01*
X103259898Y-132990615D01*
X103299002Y-132731182D01*
X103299002Y-132468818D01*
X103259898Y-132209385D01*
X103182565Y-131958677D01*
X103136894Y-131863841D01*
X105411551Y-131863841D01*
X106248499Y-132700789D01*
X106248500Y-132700789D01*
X107085447Y-131863841D01*
X109611550Y-131863841D01*
X110448498Y-132700789D01*
X110448499Y-132700789D01*
X111285446Y-131863841D01*
X111285445Y-131863840D01*
X111248687Y-131835230D01*
X111036174Y-131720223D01*
X110807646Y-131641770D01*
X110569310Y-131601999D01*
X110327688Y-131601999D01*
X110089351Y-131641770D01*
X109860820Y-131720224D01*
X109648313Y-131835227D01*
X109611551Y-131863840D01*
X109611550Y-131863841D01*
X107085447Y-131863841D01*
X107085446Y-131863840D01*
X107048688Y-131835230D01*
X106836175Y-131720223D01*
X106607647Y-131641770D01*
X106369311Y-131601999D01*
X106127689Y-131601999D01*
X105889352Y-131641770D01*
X105660821Y-131720224D01*
X105448314Y-131835227D01*
X105411552Y-131863840D01*
X105411551Y-131863841D01*
X103136894Y-131863841D01*
X103107713Y-131803246D01*
X103068730Y-131722296D01*
X102920935Y-131505521D01*
X102742483Y-131313195D01*
X102537359Y-131149614D01*
X102310145Y-131018432D01*
X102065919Y-130922580D01*
X101810133Y-130864198D01*
X101777442Y-130861748D01*
X101613996Y-130849500D01*
X101483008Y-130849500D01*
X101342910Y-130859998D01*
X101286870Y-130864198D01*
X101031084Y-130922580D01*
X100786858Y-131018432D01*
X100559648Y-131149612D01*
X100559645Y-131149614D01*
X100354521Y-131313195D01*
X100301892Y-131369916D01*
X100176065Y-131505525D01*
X100028274Y-131722295D01*
X99914438Y-131958676D01*
X99837107Y-132209381D01*
X99837106Y-132209385D01*
X99798002Y-132468818D01*
X99798002Y-132731182D01*
X97721975Y-132731182D01*
X97721975Y-132468818D01*
X97682871Y-132209385D01*
X97605538Y-131958677D01*
X97559867Y-131863841D01*
X97530686Y-131803246D01*
X97491703Y-131722296D01*
X97343908Y-131505521D01*
X97165456Y-131313195D01*
X96960332Y-131149614D01*
X96733118Y-131018432D01*
X96488892Y-130922580D01*
X96233106Y-130864198D01*
X96200415Y-130861748D01*
X96036969Y-130849500D01*
X95905981Y-130849500D01*
X95765883Y-130859998D01*
X95709843Y-130864198D01*
X95454057Y-130922580D01*
X95209831Y-131018432D01*
X94982621Y-131149612D01*
X94982618Y-131149614D01*
X94777494Y-131313195D01*
X94724865Y-131369916D01*
X94599038Y-131505525D01*
X94451247Y-131722295D01*
X94337411Y-131958676D01*
X94260080Y-132209381D01*
X94260079Y-132209385D01*
X94220975Y-132468818D01*
X94220975Y-132731182D01*
X92692254Y-132731182D01*
X92655227Y-132584966D01*
X92558167Y-132363692D01*
X92466824Y-132223882D01*
X91630709Y-133059999D01*
X91630709Y-133060000D01*
X90912288Y-133060000D01*
X90912289Y-133059999D01*
X90912289Y-133059998D01*
X90076173Y-132223882D01*
X90076172Y-132223882D01*
X89984832Y-132363688D01*
X89887770Y-132584966D01*
X89828456Y-132819193D01*
X89808502Y-133059999D01*
X88534496Y-133059999D01*
X88514542Y-132819193D01*
X88455228Y-132584966D01*
X88358168Y-132363692D01*
X88266825Y-132223882D01*
X87430710Y-133059999D01*
X87430710Y-133060000D01*
X86712289Y-133060000D01*
X86712290Y-133059999D01*
X86712290Y-133059998D01*
X85876174Y-132223882D01*
X85876173Y-132223882D01*
X85784833Y-132363688D01*
X85687771Y-132584966D01*
X85628457Y-132819193D01*
X85608503Y-133059999D01*
X84061496Y-133059999D01*
X84082898Y-132990615D01*
X84122002Y-132731182D01*
X84122002Y-132468818D01*
X84082898Y-132209385D01*
X84005565Y-131958677D01*
X83959894Y-131863841D01*
X86234551Y-131863841D01*
X87071499Y-132700789D01*
X87071500Y-132700789D01*
X87908447Y-131863841D01*
X90434550Y-131863841D01*
X91271498Y-132700789D01*
X91271499Y-132700789D01*
X92108446Y-131863841D01*
X92108445Y-131863840D01*
X92071687Y-131835230D01*
X91859174Y-131720223D01*
X91630646Y-131641770D01*
X91392310Y-131601999D01*
X91150688Y-131601999D01*
X90912351Y-131641770D01*
X90683820Y-131720224D01*
X90471313Y-131835227D01*
X90434551Y-131863840D01*
X90434550Y-131863841D01*
X87908447Y-131863841D01*
X87908446Y-131863840D01*
X87871688Y-131835230D01*
X87659175Y-131720223D01*
X87430647Y-131641770D01*
X87192311Y-131601999D01*
X86950689Y-131601999D01*
X86712352Y-131641770D01*
X86483821Y-131720224D01*
X86271314Y-131835227D01*
X86234552Y-131863840D01*
X86234551Y-131863841D01*
X83959894Y-131863841D01*
X83930713Y-131803246D01*
X83891730Y-131722296D01*
X83743935Y-131505521D01*
X83565483Y-131313195D01*
X83360359Y-131149614D01*
X83133145Y-131018432D01*
X82888919Y-130922580D01*
X82633133Y-130864198D01*
X82600442Y-130861748D01*
X82436996Y-130849500D01*
X82306008Y-130849500D01*
X82165910Y-130859998D01*
X82109870Y-130864198D01*
X81854084Y-130922580D01*
X81609858Y-131018432D01*
X81382648Y-131149612D01*
X81382645Y-131149614D01*
X81177521Y-131313195D01*
X81124892Y-131369916D01*
X80999065Y-131505525D01*
X80851274Y-131722295D01*
X80737438Y-131958676D01*
X80660107Y-132209381D01*
X80660106Y-132209385D01*
X80621002Y-132468818D01*
X80621002Y-132731182D01*
X77620592Y-132731182D01*
X77570663Y-132618391D01*
X77570663Y-132618390D01*
X77410880Y-132354810D01*
X77352861Y-132282057D01*
X77218696Y-132113819D01*
X76997276Y-131899386D01*
X76911309Y-131835227D01*
X76750251Y-131715026D01*
X76481682Y-131563771D01*
X76195976Y-131448101D01*
X75897826Y-131369917D01*
X75897823Y-131369916D01*
X75897821Y-131369916D01*
X75592117Y-131330500D01*
X75361026Y-131330500D01*
X75361024Y-131330500D01*
X75130396Y-131345306D01*
X74827853Y-131404226D01*
X74535314Y-131501356D01*
X74257609Y-131635091D01*
X73999278Y-131803247D01*
X73764576Y-132003052D01*
X73557351Y-132231229D01*
X73381000Y-132484042D01*
X73238434Y-132757314D01*
X73131980Y-133046583D01*
X73063391Y-133347091D01*
X73033793Y-133653905D01*
X71120500Y-133653905D01*
X71120500Y-127949422D01*
X71134233Y-127892219D01*
X71172439Y-127847486D01*
X71226789Y-127824973D01*
X71285436Y-127829589D01*
X71335595Y-127860327D01*
X72389183Y-128913915D01*
X72402300Y-128930287D01*
X72454280Y-128979099D01*
X72457091Y-128981823D01*
X72476906Y-129001638D01*
X72480121Y-129004132D01*
X72489139Y-129011834D01*
X72521494Y-129042217D01*
X72539335Y-129052025D01*
X72555853Y-129062876D01*
X72571933Y-129075349D01*
X72612658Y-129092972D01*
X72623303Y-129098187D01*
X72662197Y-129119569D01*
X72681918Y-129124632D01*
X72700609Y-129131032D01*
X72719292Y-129139117D01*
X72763114Y-129146057D01*
X72774741Y-129148465D01*
X72817717Y-129159500D01*
X72817718Y-129159500D01*
X72838066Y-129159500D01*
X72857775Y-129161050D01*
X72877879Y-129164235D01*
X72922055Y-129160059D01*
X72933914Y-129159500D01*
X83188945Y-129159500D01*
X83237163Y-129169091D01*
X83278040Y-129196405D01*
X84392553Y-130310917D01*
X84405667Y-130327285D01*
X84457633Y-130376084D01*
X84460474Y-130378838D01*
X84480275Y-130398639D01*
X84483500Y-130401141D01*
X84492519Y-130408844D01*
X84524863Y-130439217D01*
X84542694Y-130449020D01*
X84559218Y-130459874D01*
X84575302Y-130472350D01*
X84616043Y-130489980D01*
X84626682Y-130495193D01*
X84665561Y-130516567D01*
X84665563Y-130516567D01*
X84665566Y-130516569D01*
X84685281Y-130521630D01*
X84703983Y-130528034D01*
X84722661Y-130536117D01*
X84756190Y-130541427D01*
X84766483Y-130543057D01*
X84778110Y-130545465D01*
X84821086Y-130556500D01*
X84821087Y-130556500D01*
X84841435Y-130556500D01*
X84861144Y-130558050D01*
X84881248Y-130561235D01*
X84925424Y-130557059D01*
X84937283Y-130556500D01*
X146346931Y-130556500D01*
X146367769Y-130558800D01*
X146370716Y-130558707D01*
X146370719Y-130558708D01*
X146439012Y-130556561D01*
X146442969Y-130556500D01*
X146470978Y-130556500D01*
X146470983Y-130556500D01*
X146475029Y-130555988D01*
X146486848Y-130555058D01*
X146531205Y-130553665D01*
X146550744Y-130547987D01*
X146570102Y-130543978D01*
X146590299Y-130541427D01*
X146631555Y-130525092D01*
X146642765Y-130521253D01*
X146685393Y-130508869D01*
X146702907Y-130498510D01*
X146720667Y-130489810D01*
X146739586Y-130482320D01*
X146739586Y-130482319D01*
X146739588Y-130482319D01*
X146775499Y-130456227D01*
X146785399Y-130449724D01*
X146823598Y-130427134D01*
X146837986Y-130412745D01*
X146853021Y-130399904D01*
X146869487Y-130387942D01*
X146897788Y-130353729D01*
X146905757Y-130344973D01*
X148273063Y-128977667D01*
X148333756Y-128944006D01*
X148403067Y-128947590D01*
X148493731Y-128978716D01*
X148732144Y-129018500D01*
X148973851Y-129018500D01*
X148973854Y-129018500D01*
X149212267Y-128978716D01*
X149440880Y-128900233D01*
X149653457Y-128785192D01*
X149844200Y-128636731D01*
X150007905Y-128458900D01*
X150140108Y-128256549D01*
X150237202Y-128035197D01*
X150296538Y-127800884D01*
X150316498Y-127560000D01*
X150296538Y-127319116D01*
X150237202Y-127084803D01*
X150140108Y-126863451D01*
X150007905Y-126661100D01*
X149844200Y-126483269D01*
X149690701Y-126363796D01*
X149653455Y-126334806D01*
X149440879Y-126219766D01*
X149257519Y-126156819D01*
X149212267Y-126141284D01*
X148973854Y-126101500D01*
X148732144Y-126101500D01*
X148493731Y-126141284D01*
X148493728Y-126141284D01*
X148493728Y-126141285D01*
X148265118Y-126219766D01*
X148052542Y-126334806D01*
X147861794Y-126483272D01*
X147698096Y-126661096D01*
X147565888Y-126863453D01*
X147468795Y-127084804D01*
X147412126Y-127308588D01*
X147409460Y-127319116D01*
X147389500Y-127560000D01*
X147409460Y-127800884D01*
X147409460Y-127800887D01*
X147409461Y-127800888D01*
X147440971Y-127925318D01*
X147440306Y-127989698D01*
X147407922Y-128045344D01*
X146204672Y-129248595D01*
X146163795Y-129275909D01*
X146115577Y-129285500D01*
X129092422Y-129285500D01*
X129035219Y-129271767D01*
X128990486Y-129233561D01*
X128967973Y-129179211D01*
X128972589Y-129120564D01*
X129003326Y-129070405D01*
X129031516Y-129042215D01*
X129083157Y-128990573D01*
X129143851Y-128956912D01*
X129213160Y-128960496D01*
X129266231Y-128978716D01*
X129504644Y-129018500D01*
X129746351Y-129018500D01*
X129746354Y-129018500D01*
X129984767Y-128978716D01*
X130213380Y-128900233D01*
X130425957Y-128785192D01*
X130616700Y-128636731D01*
X130780405Y-128458900D01*
X130912608Y-128256549D01*
X131009702Y-128035197D01*
X131069038Y-127800884D01*
X131088998Y-127560000D01*
X131069038Y-127319116D01*
X131009702Y-127084803D01*
X130912608Y-126863451D01*
X130780405Y-126661100D01*
X130616700Y-126483269D01*
X130463201Y-126363796D01*
X130425955Y-126334806D01*
X130213379Y-126219766D01*
X130030019Y-126156819D01*
X129984767Y-126141284D01*
X129746354Y-126101500D01*
X129504644Y-126101500D01*
X129266231Y-126141284D01*
X129266228Y-126141284D01*
X129266228Y-126141285D01*
X129037618Y-126219766D01*
X128825042Y-126334806D01*
X128634294Y-126483272D01*
X128470596Y-126661096D01*
X128338388Y-126863453D01*
X128241295Y-127084804D01*
X128184626Y-127308588D01*
X128181960Y-127319116D01*
X128162000Y-127560000D01*
X128181960Y-127800884D01*
X128181960Y-127800887D01*
X128181961Y-127800888D01*
X128223675Y-127965614D01*
X128223010Y-128029994D01*
X128190627Y-128085640D01*
X127408669Y-128867597D01*
X127367795Y-128894909D01*
X127319577Y-128904500D01*
X126952552Y-128904500D01*
X126894150Y-128890148D01*
X126849053Y-128850361D01*
X126827534Y-128794203D01*
X126834495Y-128734469D01*
X126877489Y-128619201D01*
X126884000Y-128558638D01*
X126884000Y-126561362D01*
X126877489Y-126500799D01*
X126826389Y-126363796D01*
X126804689Y-126334808D01*
X126738761Y-126246738D01*
X126621705Y-126159111D01*
X126544883Y-126130458D01*
X126484701Y-126108011D01*
X126424138Y-126101500D01*
X126314000Y-126101500D01*
X126251000Y-126084619D01*
X126204881Y-126038500D01*
X126188000Y-125975500D01*
X126188000Y-121792500D01*
X126204881Y-121729500D01*
X126251000Y-121683381D01*
X126314000Y-121666500D01*
X137299973Y-121666500D01*
X137348191Y-121676091D01*
X137389068Y-121703405D01*
X143157595Y-127471933D01*
X143184909Y-127512810D01*
X143194500Y-127561028D01*
X143194500Y-128558638D01*
X143201011Y-128619201D01*
X143226561Y-128687702D01*
X143252111Y-128756205D01*
X143339738Y-128873261D01*
X143456794Y-128960888D01*
X143456795Y-128960888D01*
X143456796Y-128960889D01*
X143593799Y-129011989D01*
X143654362Y-129018500D01*
X145651638Y-129018500D01*
X145712201Y-129011989D01*
X145849204Y-128960889D01*
X145966261Y-128873261D01*
X146053889Y-128756204D01*
X146104989Y-128619201D01*
X146111500Y-128558638D01*
X146111500Y-126561362D01*
X146104989Y-126500799D01*
X146053889Y-126363796D01*
X146032189Y-126334808D01*
X145966261Y-126246738D01*
X145849205Y-126159111D01*
X145772383Y-126130458D01*
X145712201Y-126108011D01*
X145651638Y-126101500D01*
X143996028Y-126101500D01*
X143947810Y-126091909D01*
X143906933Y-126064595D01*
X138252943Y-120410605D01*
X138240971Y-120396752D01*
X138226399Y-120377179D01*
X138187833Y-120344818D01*
X138179730Y-120337392D01*
X138175768Y-120333430D01*
X138175765Y-120333427D01*
X138160776Y-120321575D01*
X138151061Y-120313893D01*
X138148224Y-120311582D01*
X138120175Y-120288047D01*
X138089853Y-120262604D01*
X138089850Y-120262602D01*
X138088863Y-120261774D01*
X138072183Y-120251147D01*
X138001959Y-120218401D01*
X137998661Y-120216804D01*
X137929421Y-120182031D01*
X137910732Y-120175534D01*
X137834865Y-120159869D01*
X137831290Y-120159076D01*
X137755878Y-120141204D01*
X137736196Y-120139193D01*
X137658746Y-120141447D01*
X137655082Y-120141500D01*
X125692123Y-120141500D01*
X125667729Y-120141500D01*
X125649469Y-120140170D01*
X125625329Y-120136634D01*
X125625328Y-120136634D01*
X125595644Y-120139231D01*
X125575184Y-120141021D01*
X125564203Y-120141500D01*
X106388123Y-120141500D01*
X106363735Y-120141500D01*
X106345474Y-120140170D01*
X106338804Y-120139193D01*
X106321328Y-120136633D01*
X106321326Y-120136633D01*
X106291634Y-120139231D01*
X106271186Y-120141020D01*
X106260205Y-120141500D01*
X86982028Y-120141500D01*
X86933810Y-120131909D01*
X86892933Y-120104595D01*
X78054943Y-111266605D01*
X78042971Y-111252752D01*
X78028399Y-111233179D01*
X77989833Y-111200818D01*
X77981730Y-111193392D01*
X77977768Y-111189430D01*
X77977767Y-111189429D01*
X77977765Y-111189427D01*
X77962776Y-111177575D01*
X77953061Y-111169893D01*
X77950224Y-111167582D01*
X77922175Y-111144047D01*
X77891853Y-111118604D01*
X77891850Y-111118602D01*
X77890863Y-111117774D01*
X77874183Y-111107147D01*
X77803959Y-111074401D01*
X77800661Y-111072804D01*
X77731421Y-111038031D01*
X77712732Y-111031534D01*
X77636865Y-111015869D01*
X77633290Y-111015076D01*
X77557878Y-110997204D01*
X77538196Y-110995193D01*
X77460746Y-110997447D01*
X77457082Y-110997500D01*
X76669725Y-110997500D01*
X76613074Y-110984046D01*
X76568521Y-110946558D01*
X76545580Y-110893041D01*
X76549150Y-110834924D01*
X76591824Y-110694248D01*
X76611941Y-110490000D01*
X76591824Y-110285752D01*
X76532247Y-110089353D01*
X76506345Y-110040894D01*
X76491506Y-109978408D01*
X76509394Y-109916723D01*
X76555363Y-109871869D01*
X76617468Y-109855500D01*
X84243931Y-109855500D01*
X84264769Y-109857800D01*
X84267716Y-109857707D01*
X84267719Y-109857708D01*
X84336012Y-109855561D01*
X84339969Y-109855500D01*
X84367978Y-109855500D01*
X84367983Y-109855500D01*
X84372029Y-109854988D01*
X84383848Y-109854058D01*
X84428205Y-109852665D01*
X84447744Y-109846987D01*
X84467102Y-109842978D01*
X84487299Y-109840427D01*
X84528555Y-109824092D01*
X84539765Y-109820253D01*
X84582393Y-109807869D01*
X84599907Y-109797510D01*
X84617667Y-109788810D01*
X84636586Y-109781320D01*
X84636586Y-109781319D01*
X84636588Y-109781319D01*
X84672499Y-109755227D01*
X84682399Y-109748724D01*
X84720598Y-109726134D01*
X84734986Y-109711745D01*
X84750021Y-109698904D01*
X84766487Y-109686942D01*
X84794782Y-109652737D01*
X84802752Y-109643978D01*
X85114328Y-109332404D01*
X85155206Y-109305091D01*
X85203424Y-109295500D01*
X85387309Y-109295500D01*
X85447278Y-109310686D01*
X85492792Y-109352584D01*
X85508724Y-109376969D01*
X85627590Y-109558906D01*
X85627593Y-109558909D01*
X85791285Y-109736727D01*
X85791295Y-109736737D01*
X85903530Y-109824093D01*
X85982039Y-109885199D01*
X86144764Y-109973261D01*
X86194615Y-110000239D01*
X86423228Y-110078722D01*
X86661641Y-110118506D01*
X86903348Y-110118506D01*
X86903351Y-110118506D01*
X87141764Y-110078722D01*
X87370377Y-110000239D01*
X87582954Y-109885198D01*
X87773697Y-109736737D01*
X87937402Y-109558906D01*
X88069605Y-109356555D01*
X88166699Y-109135203D01*
X88226035Y-108900890D01*
X88245995Y-108660006D01*
X88226035Y-108419122D01*
X88166699Y-108184809D01*
X88069605Y-107963457D01*
X88022535Y-107891412D01*
X88002128Y-107827707D01*
X88017206Y-107762531D01*
X88063522Y-107714259D01*
X88128020Y-107696500D01*
X89397995Y-107696500D01*
X89460995Y-107713381D01*
X89507114Y-107759500D01*
X89523995Y-107822500D01*
X89523995Y-109658644D01*
X89530506Y-109719207D01*
X89543946Y-109755240D01*
X89581606Y-109856211D01*
X89669233Y-109973267D01*
X89786289Y-110060894D01*
X89786290Y-110060894D01*
X89786291Y-110060895D01*
X89923294Y-110111995D01*
X89983857Y-110118506D01*
X91981133Y-110118506D01*
X92041696Y-110111995D01*
X92178699Y-110060895D01*
X92295756Y-109973267D01*
X92383384Y-109856210D01*
X92434484Y-109719207D01*
X92440995Y-109658644D01*
X92440995Y-107822500D01*
X92457876Y-107759500D01*
X92503995Y-107713381D01*
X92566995Y-107696500D01*
X103951578Y-107696500D01*
X103999796Y-107706091D01*
X104040673Y-107733405D01*
X104507856Y-108200588D01*
X104540240Y-108256234D01*
X104540906Y-108320613D01*
X104515962Y-108419114D01*
X104507224Y-108524577D01*
X104496003Y-108660000D01*
X104515963Y-108900884D01*
X104515963Y-108900887D01*
X104515964Y-108900888D01*
X104575298Y-109135195D01*
X104672391Y-109356546D01*
X104672393Y-109356549D01*
X104804596Y-109558900D01*
X104874755Y-109635113D01*
X104958545Y-109726134D01*
X104968301Y-109736731D01*
X105077734Y-109821906D01*
X105159045Y-109885193D01*
X105217308Y-109916723D01*
X105371621Y-110000233D01*
X105600234Y-110078716D01*
X105838647Y-110118500D01*
X106080354Y-110118500D01*
X106080357Y-110118500D01*
X106318770Y-110078716D01*
X106547383Y-110000233D01*
X106759960Y-109885192D01*
X106950703Y-109736731D01*
X107114408Y-109558900D01*
X107246611Y-109356549D01*
X107343705Y-109135197D01*
X107403041Y-108900884D01*
X107423001Y-108660000D01*
X107403041Y-108419116D01*
X107343705Y-108184803D01*
X107246611Y-107963451D01*
X107114408Y-107761100D01*
X107063769Y-107706091D01*
X106950703Y-107583268D01*
X106814724Y-107477431D01*
X106776727Y-107428613D01*
X106766545Y-107367595D01*
X106786632Y-107309084D01*
X106832146Y-107267186D01*
X106892115Y-107252000D01*
X108665444Y-107252000D01*
X108731662Y-107270803D01*
X108778117Y-107321601D01*
X108790942Y-107389231D01*
X108766312Y-107453509D01*
X108758612Y-107463794D01*
X108753526Y-107477431D01*
X108707512Y-107600799D01*
X108701001Y-107661362D01*
X108701001Y-109658638D01*
X108707512Y-109719201D01*
X108714051Y-109736733D01*
X108758612Y-109856205D01*
X108846239Y-109973261D01*
X108963295Y-110060888D01*
X108963296Y-110060888D01*
X108963297Y-110060889D01*
X109100300Y-110111989D01*
X109160863Y-110118500D01*
X111158139Y-110118500D01*
X111218702Y-110111989D01*
X111355705Y-110060889D01*
X111472762Y-109973261D01*
X111560390Y-109856204D01*
X111611490Y-109719201D01*
X111618001Y-109658638D01*
X111618001Y-107661362D01*
X111611490Y-107600799D01*
X111560390Y-107463796D01*
X111560389Y-107463794D01*
X111552690Y-107453509D01*
X111528060Y-107389231D01*
X111540885Y-107321601D01*
X111587340Y-107270803D01*
X111653558Y-107252000D01*
X122684078Y-107252000D01*
X122732296Y-107261591D01*
X122773173Y-107288905D01*
X123684856Y-108200588D01*
X123717240Y-108256234D01*
X123717906Y-108320613D01*
X123692962Y-108419114D01*
X123684224Y-108524577D01*
X123673003Y-108660000D01*
X123692963Y-108900884D01*
X123692963Y-108900887D01*
X123692964Y-108900888D01*
X123752298Y-109135195D01*
X123849391Y-109356546D01*
X123849393Y-109356549D01*
X123981596Y-109558900D01*
X124051755Y-109635113D01*
X124135545Y-109726134D01*
X124145301Y-109736731D01*
X124254734Y-109821906D01*
X124336045Y-109885193D01*
X124394308Y-109916723D01*
X124548621Y-110000233D01*
X124777234Y-110078716D01*
X125015647Y-110118500D01*
X125257354Y-110118500D01*
X125257357Y-110118500D01*
X125495770Y-110078716D01*
X125724383Y-110000233D01*
X125936960Y-109885192D01*
X126127703Y-109736731D01*
X126199593Y-109658638D01*
X127878001Y-109658638D01*
X127884512Y-109719201D01*
X127891051Y-109736733D01*
X127935612Y-109856205D01*
X128023239Y-109973261D01*
X128140295Y-110060888D01*
X128140296Y-110060888D01*
X128140297Y-110060889D01*
X128277300Y-110111989D01*
X128337863Y-110118500D01*
X130335139Y-110118500D01*
X130395702Y-110111989D01*
X130532705Y-110060889D01*
X130649762Y-109973261D01*
X130737390Y-109856204D01*
X130788490Y-109719201D01*
X130795001Y-109658638D01*
X130795001Y-107661362D01*
X130788490Y-107600799D01*
X130737390Y-107463796D01*
X130737389Y-107463794D01*
X130649762Y-107346738D01*
X130532706Y-107259111D01*
X130464203Y-107233561D01*
X130395702Y-107208011D01*
X130335139Y-107201500D01*
X128337863Y-107201500D01*
X128277300Y-107208011D01*
X128140295Y-107259111D01*
X128023239Y-107346738D01*
X127935612Y-107463794D01*
X127930526Y-107477431D01*
X127884512Y-107600799D01*
X127878001Y-107661362D01*
X127878001Y-109658638D01*
X126199593Y-109658638D01*
X126291408Y-109558900D01*
X126423611Y-109356549D01*
X126520705Y-109135197D01*
X126580041Y-108900884D01*
X126600001Y-108660000D01*
X126580041Y-108419116D01*
X126520705Y-108184803D01*
X126423611Y-107963451D01*
X126291408Y-107761100D01*
X126127703Y-107583269D01*
X125974204Y-107463796D01*
X125936958Y-107434806D01*
X125724382Y-107319766D01*
X125547698Y-107259111D01*
X125495770Y-107241284D01*
X125257357Y-107201500D01*
X125015647Y-107201500D01*
X124850507Y-107229057D01*
X124777228Y-107241285D01*
X124662375Y-107280714D01*
X124593063Y-107284298D01*
X124532368Y-107250636D01*
X124304328Y-107022595D01*
X124273591Y-106972436D01*
X124268975Y-106913789D01*
X124291488Y-106859439D01*
X124336221Y-106821233D01*
X124393424Y-106807500D01*
X141416578Y-106807500D01*
X141464796Y-106817091D01*
X141505673Y-106844405D01*
X142861855Y-108200587D01*
X142894239Y-108256232D01*
X142894905Y-108320612D01*
X142869961Y-108419114D01*
X142861223Y-108524577D01*
X142850002Y-108660000D01*
X142869962Y-108900884D01*
X142869962Y-108900887D01*
X142869963Y-108900888D01*
X142929297Y-109135195D01*
X143026390Y-109356546D01*
X143026392Y-109356549D01*
X143158595Y-109558900D01*
X143228754Y-109635113D01*
X143312544Y-109726134D01*
X143322300Y-109736731D01*
X143431733Y-109821906D01*
X143513044Y-109885193D01*
X143571307Y-109916723D01*
X143725620Y-110000233D01*
X143954233Y-110078716D01*
X144192646Y-110118500D01*
X144434353Y-110118500D01*
X144434356Y-110118500D01*
X144672769Y-110078716D01*
X144901382Y-110000233D01*
X145113959Y-109885192D01*
X145304702Y-109736731D01*
X145376592Y-109658638D01*
X147055000Y-109658638D01*
X147061511Y-109719201D01*
X147068050Y-109736733D01*
X147112611Y-109856205D01*
X147200238Y-109973261D01*
X147317294Y-110060888D01*
X147317295Y-110060888D01*
X147317296Y-110060889D01*
X147454299Y-110111989D01*
X147514862Y-110118500D01*
X149512138Y-110118500D01*
X149572701Y-110111989D01*
X149709704Y-110060889D01*
X149826761Y-109973261D01*
X149914389Y-109856204D01*
X149965489Y-109719201D01*
X149972000Y-109658638D01*
X149972000Y-107661362D01*
X149965489Y-107600799D01*
X149914389Y-107463796D01*
X149914388Y-107463794D01*
X149826761Y-107346738D01*
X149709705Y-107259111D01*
X149641202Y-107233561D01*
X149572701Y-107208011D01*
X149512138Y-107201500D01*
X147514862Y-107201500D01*
X147454299Y-107208011D01*
X147317294Y-107259111D01*
X147200238Y-107346738D01*
X147112611Y-107463794D01*
X147107525Y-107477431D01*
X147061511Y-107600799D01*
X147055000Y-107661362D01*
X147055000Y-109658638D01*
X145376592Y-109658638D01*
X145468407Y-109558900D01*
X145600610Y-109356549D01*
X145697704Y-109135197D01*
X145757040Y-108900884D01*
X145777000Y-108660000D01*
X145757040Y-108419116D01*
X145697704Y-108184803D01*
X145600610Y-107963451D01*
X145468407Y-107761100D01*
X145304702Y-107583269D01*
X145151203Y-107463796D01*
X145113957Y-107434806D01*
X144901381Y-107319766D01*
X144724697Y-107259111D01*
X144672769Y-107241284D01*
X144434356Y-107201500D01*
X144192646Y-107201500D01*
X144027506Y-107229057D01*
X143954233Y-107241284D01*
X143839374Y-107280714D01*
X143770062Y-107284297D01*
X143709368Y-107250635D01*
X142240816Y-105782083D01*
X142227705Y-105765717D01*
X142175735Y-105716915D01*
X142172922Y-105714189D01*
X142153094Y-105694361D01*
X142151461Y-105693094D01*
X142149873Y-105691862D01*
X142140849Y-105684155D01*
X142121372Y-105665865D01*
X142108506Y-105653783D01*
X142108503Y-105653781D01*
X142090672Y-105643978D01*
X142074154Y-105633128D01*
X142058067Y-105620650D01*
X142017336Y-105603024D01*
X142006678Y-105597802D01*
X141967802Y-105576430D01*
X141948086Y-105571368D01*
X141929380Y-105564963D01*
X141910709Y-105556883D01*
X141866873Y-105549940D01*
X141855250Y-105547532D01*
X141812284Y-105536500D01*
X141812282Y-105536500D01*
X141791934Y-105536500D01*
X141772224Y-105534949D01*
X141752121Y-105531765D01*
X141752120Y-105531765D01*
X141707944Y-105535941D01*
X141696086Y-105536500D01*
X140187701Y-105536500D01*
X140121465Y-105517686D01*
X140075009Y-105466861D01*
X140062208Y-105399205D01*
X140086884Y-105334922D01*
X140141668Y-105293210D01*
X140149730Y-105290045D01*
X140375168Y-105201568D01*
X140602382Y-105070386D01*
X140807506Y-104906805D01*
X140985958Y-104714479D01*
X141133753Y-104497704D01*
X141201918Y-104356158D01*
X143476552Y-104356158D01*
X143513311Y-104384769D01*
X143725825Y-104499776D01*
X143954353Y-104578229D01*
X144192690Y-104618001D01*
X144434312Y-104618001D01*
X144672648Y-104578229D01*
X144901179Y-104499775D01*
X145113685Y-104384772D01*
X145150447Y-104356158D01*
X145150448Y-104356157D01*
X144313502Y-103519211D01*
X144313501Y-103519211D01*
X143476552Y-104356158D01*
X141201918Y-104356158D01*
X141247588Y-104261323D01*
X141324921Y-104010615D01*
X141364025Y-103751182D01*
X141364025Y-103488818D01*
X141324921Y-103229385D01*
X141303519Y-103160001D01*
X142850504Y-103160001D01*
X142870458Y-103400806D01*
X142929772Y-103635033D01*
X143026834Y-103856311D01*
X143118173Y-103996116D01*
X143954290Y-103160002D01*
X144672711Y-103160002D01*
X145508825Y-103996116D01*
X145508826Y-103996116D01*
X145600169Y-103856307D01*
X145697229Y-103635033D01*
X145756543Y-103400806D01*
X145776497Y-103160001D01*
X147050001Y-103160001D01*
X147069961Y-103400885D01*
X147069961Y-103400888D01*
X147069962Y-103400889D01*
X147129296Y-103635196D01*
X147226389Y-103856547D01*
X147226391Y-103856550D01*
X147358594Y-104058901D01*
X147387174Y-104089947D01*
X147504086Y-104216948D01*
X147522299Y-104236732D01*
X147590422Y-104289754D01*
X147713043Y-104385194D01*
X147847407Y-104457908D01*
X147925619Y-104500234D01*
X148154232Y-104578717D01*
X148392645Y-104618501D01*
X148634352Y-104618501D01*
X148634355Y-104618501D01*
X148872768Y-104578717D01*
X149101381Y-104500234D01*
X149313958Y-104385193D01*
X149504701Y-104236732D01*
X149668406Y-104058901D01*
X149800609Y-103856550D01*
X149846828Y-103751182D01*
X151462998Y-103751182D01*
X151502102Y-104010615D01*
X151502103Y-104010618D01*
X151579434Y-104261323D01*
X151693270Y-104497704D01*
X151841061Y-104714474D01*
X151841063Y-104714476D01*
X151841065Y-104714479D01*
X152019517Y-104906805D01*
X152224641Y-105070386D01*
X152451855Y-105201568D01*
X152696082Y-105297420D01*
X152951868Y-105355802D01*
X153148004Y-105370500D01*
X153278987Y-105370500D01*
X153278992Y-105370500D01*
X153475128Y-105355802D01*
X153730914Y-105297420D01*
X153975141Y-105201568D01*
X154202355Y-105070386D01*
X154407479Y-104906805D01*
X154585931Y-104714479D01*
X154733726Y-104497704D01*
X154847561Y-104261323D01*
X154924894Y-104010615D01*
X154963998Y-103751182D01*
X154963998Y-103488818D01*
X154924894Y-103229385D01*
X154847561Y-102978677D01*
X154818881Y-102919123D01*
X154792740Y-102864841D01*
X154733726Y-102742296D01*
X154654157Y-102625590D01*
X154585934Y-102525525D01*
X154585932Y-102525523D01*
X154585931Y-102525521D01*
X154407479Y-102333195D01*
X154346925Y-102284905D01*
X157869793Y-102284905D01*
X157879672Y-102592975D01*
X157913271Y-102800797D01*
X157928867Y-102897261D01*
X158006849Y-103160008D01*
X158016570Y-103192758D01*
X158141336Y-103474609D01*
X158301119Y-103738189D01*
X158378476Y-103835191D01*
X158493304Y-103979181D01*
X158714723Y-104193613D01*
X158714724Y-104193614D01*
X158961748Y-104377973D01*
X159230317Y-104529228D01*
X159352570Y-104578723D01*
X159516025Y-104644899D01*
X159814179Y-104723084D01*
X160119883Y-104762500D01*
X160350974Y-104762500D01*
X160350976Y-104762500D01*
X160581603Y-104747693D01*
X160884146Y-104688773D01*
X160884146Y-104688772D01*
X160884151Y-104688772D01*
X161176683Y-104591644D01*
X161454393Y-104457907D01*
X161712720Y-104289754D01*
X161947424Y-104089948D01*
X162154650Y-103861769D01*
X162330996Y-103608963D01*
X162473567Y-103335683D01*
X162580020Y-103046415D01*
X162648609Y-102745908D01*
X162678206Y-102439098D01*
X162674511Y-102323884D01*
X162669565Y-102169618D01*
X162668327Y-102131022D01*
X162619133Y-101826739D01*
X162531431Y-101531244D01*
X162406663Y-101249391D01*
X162406663Y-101249390D01*
X162246880Y-100985810D01*
X162155973Y-100871817D01*
X162054696Y-100744819D01*
X161833276Y-100530386D01*
X161833275Y-100530385D01*
X161586251Y-100346026D01*
X161317682Y-100194771D01*
X161031976Y-100079101D01*
X160733826Y-100000917D01*
X160733823Y-100000916D01*
X160733821Y-100000916D01*
X160428117Y-99961500D01*
X160197026Y-99961500D01*
X160197024Y-99961500D01*
X159966396Y-99976306D01*
X159663853Y-100035226D01*
X159371314Y-100132356D01*
X159093609Y-100266091D01*
X158835278Y-100434247D01*
X158600576Y-100634052D01*
X158393351Y-100862229D01*
X158217000Y-101115042D01*
X158074434Y-101388314D01*
X157967980Y-101677583D01*
X157899391Y-101978091D01*
X157869793Y-102284905D01*
X154346925Y-102284905D01*
X154202355Y-102169614D01*
X153975141Y-102038432D01*
X153730915Y-101942580D01*
X153475129Y-101884198D01*
X153442438Y-101881748D01*
X153278992Y-101869500D01*
X153148004Y-101869500D01*
X153007906Y-101879998D01*
X152951866Y-101884198D01*
X152696080Y-101942580D01*
X152451854Y-102038432D01*
X152224644Y-102169612D01*
X152224641Y-102169614D01*
X152019517Y-102333195D01*
X151898655Y-102463454D01*
X151841061Y-102525525D01*
X151693270Y-102742295D01*
X151579434Y-102978676D01*
X151513400Y-103192758D01*
X151502102Y-103229385D01*
X151462998Y-103488818D01*
X151462998Y-103751182D01*
X149846828Y-103751182D01*
X149897703Y-103635198D01*
X149957039Y-103400885D01*
X149976999Y-103160001D01*
X149957039Y-102919117D01*
X149897703Y-102684804D01*
X149800715Y-102463694D01*
X149800610Y-102463454D01*
X149800609Y-102463452D01*
X149668406Y-102261101D01*
X149524789Y-102105091D01*
X149504704Y-102083273D01*
X149504703Y-102083272D01*
X149504701Y-102083270D01*
X149351269Y-101963849D01*
X149313956Y-101934807D01*
X149101380Y-101819767D01*
X148946624Y-101766639D01*
X148872768Y-101741285D01*
X148634355Y-101701501D01*
X148392645Y-101701501D01*
X148154232Y-101741285D01*
X148154229Y-101741285D01*
X148154229Y-101741286D01*
X147925619Y-101819767D01*
X147713043Y-101934807D01*
X147522295Y-102083273D01*
X147358597Y-102261097D01*
X147226389Y-102463454D01*
X147129296Y-102684805D01*
X147069962Y-102919112D01*
X147069961Y-102919117D01*
X147050001Y-103160001D01*
X145776497Y-103160001D01*
X145756543Y-102919195D01*
X145697229Y-102684968D01*
X145600169Y-102463694D01*
X145508826Y-102323884D01*
X144672711Y-103160001D01*
X144672711Y-103160002D01*
X143954290Y-103160002D01*
X143954291Y-103160001D01*
X143954291Y-103160000D01*
X143118175Y-102323884D01*
X143118174Y-102323884D01*
X143026834Y-102463690D01*
X142929772Y-102684968D01*
X142870458Y-102919195D01*
X142850504Y-103160001D01*
X141303519Y-103160001D01*
X141247588Y-102978677D01*
X141218908Y-102919123D01*
X141192767Y-102864841D01*
X141133753Y-102742296D01*
X141054184Y-102625590D01*
X140985961Y-102525525D01*
X140985959Y-102525523D01*
X140985958Y-102525521D01*
X140807506Y-102333195D01*
X140602382Y-102169614D01*
X140375168Y-102038432D01*
X140185119Y-101963843D01*
X143476552Y-101963843D01*
X144313500Y-102800791D01*
X144313501Y-102800791D01*
X145150448Y-101963843D01*
X145150447Y-101963842D01*
X145113689Y-101935232D01*
X144901176Y-101820225D01*
X144672648Y-101741772D01*
X144434312Y-101702001D01*
X144192690Y-101702001D01*
X143954353Y-101741772D01*
X143725822Y-101820226D01*
X143513315Y-101935229D01*
X143476553Y-101963842D01*
X143476552Y-101963843D01*
X140185119Y-101963843D01*
X140130942Y-101942580D01*
X139875156Y-101884198D01*
X139842465Y-101881748D01*
X139679019Y-101869500D01*
X139548031Y-101869500D01*
X139407933Y-101879998D01*
X139351893Y-101884198D01*
X139096107Y-101942580D01*
X138851881Y-102038432D01*
X138624671Y-102169612D01*
X138624668Y-102169614D01*
X138419544Y-102333195D01*
X138298682Y-102463454D01*
X138241088Y-102525525D01*
X138093297Y-102742295D01*
X137979461Y-102978676D01*
X137913427Y-103192758D01*
X137902129Y-103229385D01*
X137863025Y-103488818D01*
X137863025Y-103751182D01*
X137902129Y-104010615D01*
X137902130Y-104010618D01*
X137979461Y-104261323D01*
X138093297Y-104497704D01*
X138241088Y-104714474D01*
X138241090Y-104714476D01*
X138241092Y-104714479D01*
X138419544Y-104906805D01*
X138624668Y-105070386D01*
X138851882Y-105201568D01*
X139072401Y-105288115D01*
X139085382Y-105293210D01*
X139140166Y-105334922D01*
X139164842Y-105399205D01*
X139152041Y-105466861D01*
X139105585Y-105517686D01*
X139039349Y-105536500D01*
X134610675Y-105536500D01*
X134544439Y-105517686D01*
X134497983Y-105466861D01*
X134485182Y-105399205D01*
X134509858Y-105334922D01*
X134564642Y-105293210D01*
X134572704Y-105290045D01*
X134798142Y-105201568D01*
X135025356Y-105070386D01*
X135230480Y-104906805D01*
X135408932Y-104714479D01*
X135556727Y-104497704D01*
X135670562Y-104261323D01*
X135747895Y-104010615D01*
X135786999Y-103751182D01*
X135786999Y-103488818D01*
X135747895Y-103229385D01*
X135670562Y-102978677D01*
X135641882Y-102919123D01*
X135615741Y-102864841D01*
X135556727Y-102742296D01*
X135477158Y-102625590D01*
X135408935Y-102525525D01*
X135408933Y-102525523D01*
X135408932Y-102525521D01*
X135230480Y-102333195D01*
X135025356Y-102169614D01*
X134798142Y-102038432D01*
X134553916Y-101942580D01*
X134298130Y-101884198D01*
X134265439Y-101881748D01*
X134101993Y-101869500D01*
X133971005Y-101869500D01*
X133830907Y-101879998D01*
X133774867Y-101884198D01*
X133519081Y-101942580D01*
X133274855Y-102038432D01*
X133047645Y-102169612D01*
X133047642Y-102169614D01*
X132842518Y-102333195D01*
X132721656Y-102463454D01*
X132664062Y-102525525D01*
X132516271Y-102742295D01*
X132402435Y-102978676D01*
X132336401Y-103192758D01*
X132325103Y-103229385D01*
X132285999Y-103488818D01*
X132285999Y-103751182D01*
X132325103Y-104010615D01*
X132325104Y-104010618D01*
X132402435Y-104261323D01*
X132516271Y-104497704D01*
X132664062Y-104714474D01*
X132664064Y-104714476D01*
X132664066Y-104714479D01*
X132842518Y-104906805D01*
X133047642Y-105070386D01*
X133274856Y-105201568D01*
X133495375Y-105288115D01*
X133508356Y-105293210D01*
X133563140Y-105334922D01*
X133587816Y-105399205D01*
X133575015Y-105466861D01*
X133528559Y-105517686D01*
X133462323Y-105536500D01*
X121010702Y-105536500D01*
X120944466Y-105517686D01*
X120898010Y-105466861D01*
X120885209Y-105399205D01*
X120909885Y-105334922D01*
X120964669Y-105293210D01*
X120972731Y-105290045D01*
X121198169Y-105201568D01*
X121425383Y-105070386D01*
X121630507Y-104906805D01*
X121808959Y-104714479D01*
X121956754Y-104497704D01*
X122024919Y-104356158D01*
X124299553Y-104356158D01*
X124336312Y-104384769D01*
X124548826Y-104499776D01*
X124777354Y-104578229D01*
X125015691Y-104618001D01*
X125257313Y-104618001D01*
X125495649Y-104578229D01*
X125724180Y-104499775D01*
X125936686Y-104384772D01*
X125973448Y-104356158D01*
X125973449Y-104356157D01*
X125136503Y-103519211D01*
X125136502Y-103519211D01*
X124299553Y-104356158D01*
X122024919Y-104356158D01*
X122070589Y-104261323D01*
X122147922Y-104010615D01*
X122187026Y-103751182D01*
X122187026Y-103488818D01*
X122147922Y-103229385D01*
X122126520Y-103160001D01*
X123673505Y-103160001D01*
X123693459Y-103400806D01*
X123752773Y-103635033D01*
X123849835Y-103856311D01*
X123941174Y-103996116D01*
X124777291Y-103160002D01*
X125495712Y-103160002D01*
X126331826Y-103996116D01*
X126331827Y-103996116D01*
X126423170Y-103856307D01*
X126520230Y-103635033D01*
X126579544Y-103400806D01*
X126599498Y-103160001D01*
X127873002Y-103160001D01*
X127892962Y-103400885D01*
X127892962Y-103400888D01*
X127892963Y-103400889D01*
X127952297Y-103635196D01*
X128049390Y-103856547D01*
X128049392Y-103856550D01*
X128181595Y-104058901D01*
X128210175Y-104089947D01*
X128327087Y-104216948D01*
X128345300Y-104236732D01*
X128413423Y-104289754D01*
X128536044Y-104385194D01*
X128670408Y-104457908D01*
X128748620Y-104500234D01*
X128977233Y-104578717D01*
X129215646Y-104618501D01*
X129457353Y-104618501D01*
X129457356Y-104618501D01*
X129695769Y-104578717D01*
X129924382Y-104500234D01*
X130136959Y-104385193D01*
X130327702Y-104236732D01*
X130491407Y-104058901D01*
X130623610Y-103856550D01*
X130720704Y-103635198D01*
X130780040Y-103400885D01*
X130800000Y-103160001D01*
X130780040Y-102919117D01*
X130720704Y-102684804D01*
X130623716Y-102463694D01*
X130623611Y-102463454D01*
X130623610Y-102463452D01*
X130491407Y-102261101D01*
X130347790Y-102105091D01*
X130327705Y-102083273D01*
X130327704Y-102083272D01*
X130327702Y-102083270D01*
X130174270Y-101963849D01*
X130136957Y-101934807D01*
X129924381Y-101819767D01*
X129769625Y-101766639D01*
X129695769Y-101741285D01*
X129457356Y-101701501D01*
X129215646Y-101701501D01*
X128977233Y-101741285D01*
X128977230Y-101741285D01*
X128977230Y-101741286D01*
X128748620Y-101819767D01*
X128536044Y-101934807D01*
X128345296Y-102083273D01*
X128181598Y-102261097D01*
X128049390Y-102463454D01*
X127952297Y-102684805D01*
X127892963Y-102919112D01*
X127892962Y-102919117D01*
X127873002Y-103160001D01*
X126599498Y-103160001D01*
X126579544Y-102919195D01*
X126520230Y-102684968D01*
X126423170Y-102463694D01*
X126331827Y-102323884D01*
X125495712Y-103160001D01*
X125495712Y-103160002D01*
X124777291Y-103160002D01*
X124777292Y-103160001D01*
X124777292Y-103160000D01*
X123941176Y-102323884D01*
X123941175Y-102323884D01*
X123849835Y-102463690D01*
X123752773Y-102684968D01*
X123693459Y-102919195D01*
X123673505Y-103160001D01*
X122126520Y-103160001D01*
X122070589Y-102978677D01*
X122041909Y-102919123D01*
X122015768Y-102864841D01*
X121956754Y-102742296D01*
X121877185Y-102625590D01*
X121808962Y-102525525D01*
X121808960Y-102525523D01*
X121808959Y-102525521D01*
X121630507Y-102333195D01*
X121425383Y-102169614D01*
X121198169Y-102038432D01*
X121008120Y-101963843D01*
X124299553Y-101963843D01*
X125136501Y-102800791D01*
X125136502Y-102800791D01*
X125973449Y-101963843D01*
X125973448Y-101963842D01*
X125936690Y-101935232D01*
X125724177Y-101820225D01*
X125495649Y-101741772D01*
X125257313Y-101702001D01*
X125015691Y-101702001D01*
X124777354Y-101741772D01*
X124548823Y-101820226D01*
X124336316Y-101935229D01*
X124299554Y-101963842D01*
X124299553Y-101963843D01*
X121008120Y-101963843D01*
X120953943Y-101942580D01*
X120698157Y-101884198D01*
X120665466Y-101881748D01*
X120502020Y-101869500D01*
X120371032Y-101869500D01*
X120230934Y-101879998D01*
X120174894Y-101884198D01*
X119919108Y-101942580D01*
X119674882Y-102038432D01*
X119447672Y-102169612D01*
X119447669Y-102169614D01*
X119242545Y-102333195D01*
X119121683Y-102463454D01*
X119064089Y-102525525D01*
X118916298Y-102742295D01*
X118802462Y-102978676D01*
X118736428Y-103192758D01*
X118725130Y-103229385D01*
X118686026Y-103488818D01*
X118686026Y-103751182D01*
X118725130Y-104010615D01*
X118725131Y-104010618D01*
X118802462Y-104261323D01*
X118916298Y-104497704D01*
X119064089Y-104714474D01*
X119064091Y-104714476D01*
X119064093Y-104714479D01*
X119242545Y-104906805D01*
X119447669Y-105070386D01*
X119674883Y-105201568D01*
X119895402Y-105288115D01*
X119908383Y-105293210D01*
X119963167Y-105334922D01*
X119987843Y-105399205D01*
X119975042Y-105466861D01*
X119928586Y-105517686D01*
X119862350Y-105536500D01*
X115433675Y-105536500D01*
X115367439Y-105517686D01*
X115320983Y-105466861D01*
X115308182Y-105399205D01*
X115332858Y-105334922D01*
X115387642Y-105293210D01*
X115395704Y-105290045D01*
X115621142Y-105201568D01*
X115848356Y-105070386D01*
X116053480Y-104906805D01*
X116231932Y-104714479D01*
X116379727Y-104497704D01*
X116493562Y-104261323D01*
X116570895Y-104010615D01*
X116609999Y-103751182D01*
X116609999Y-103488818D01*
X116570895Y-103229385D01*
X116493562Y-102978677D01*
X116464882Y-102919123D01*
X116438741Y-102864841D01*
X116379727Y-102742296D01*
X116300158Y-102625590D01*
X116231935Y-102525525D01*
X116231933Y-102525523D01*
X116231932Y-102525521D01*
X116053480Y-102333195D01*
X115848356Y-102169614D01*
X115621142Y-102038432D01*
X115376916Y-101942580D01*
X115121130Y-101884198D01*
X115088439Y-101881748D01*
X114924993Y-101869500D01*
X114794005Y-101869500D01*
X114653907Y-101879998D01*
X114597867Y-101884198D01*
X114342081Y-101942580D01*
X114097855Y-102038432D01*
X113870645Y-102169612D01*
X113870642Y-102169614D01*
X113665518Y-102333195D01*
X113544656Y-102463454D01*
X113487062Y-102525525D01*
X113339271Y-102742295D01*
X113225435Y-102978676D01*
X113159401Y-103192758D01*
X113148103Y-103229385D01*
X113108999Y-103488818D01*
X113108999Y-103751182D01*
X113148103Y-104010615D01*
X113148104Y-104010618D01*
X113225435Y-104261323D01*
X113339271Y-104497704D01*
X113487062Y-104714474D01*
X113487064Y-104714476D01*
X113487066Y-104714479D01*
X113665518Y-104906805D01*
X113870642Y-105070386D01*
X114097856Y-105201568D01*
X114318375Y-105288115D01*
X114331356Y-105293210D01*
X114386140Y-105334922D01*
X114410816Y-105399205D01*
X114398015Y-105466861D01*
X114351559Y-105517686D01*
X114285323Y-105536500D01*
X101833702Y-105536500D01*
X101767466Y-105517686D01*
X101721010Y-105466861D01*
X101708209Y-105399205D01*
X101732885Y-105334922D01*
X101787669Y-105293210D01*
X101795731Y-105290045D01*
X102021169Y-105201568D01*
X102248383Y-105070386D01*
X102453507Y-104906805D01*
X102631959Y-104714479D01*
X102779754Y-104497704D01*
X102847919Y-104356158D01*
X105122553Y-104356158D01*
X105159312Y-104384769D01*
X105371826Y-104499776D01*
X105600354Y-104578229D01*
X105838691Y-104618001D01*
X106080313Y-104618001D01*
X106318649Y-104578229D01*
X106547180Y-104499775D01*
X106759686Y-104384772D01*
X106796448Y-104356158D01*
X106796449Y-104356157D01*
X105959503Y-103519211D01*
X105959502Y-103519211D01*
X105122553Y-104356158D01*
X102847919Y-104356158D01*
X102893589Y-104261323D01*
X102970922Y-104010615D01*
X103010026Y-103751182D01*
X103010026Y-103488818D01*
X102970922Y-103229385D01*
X102949520Y-103160001D01*
X104496505Y-103160001D01*
X104516459Y-103400806D01*
X104575773Y-103635033D01*
X104672835Y-103856311D01*
X104764174Y-103996116D01*
X105600291Y-103160002D01*
X106318712Y-103160002D01*
X107154826Y-103996116D01*
X107154827Y-103996116D01*
X107246170Y-103856307D01*
X107343230Y-103635033D01*
X107402544Y-103400806D01*
X107422498Y-103160001D01*
X108696002Y-103160001D01*
X108715962Y-103400885D01*
X108715962Y-103400888D01*
X108715963Y-103400889D01*
X108775297Y-103635196D01*
X108872390Y-103856547D01*
X108872392Y-103856550D01*
X109004595Y-104058901D01*
X109033175Y-104089947D01*
X109150087Y-104216948D01*
X109168300Y-104236732D01*
X109236423Y-104289754D01*
X109359044Y-104385194D01*
X109493408Y-104457908D01*
X109571620Y-104500234D01*
X109800233Y-104578717D01*
X110038646Y-104618501D01*
X110280353Y-104618501D01*
X110280356Y-104618501D01*
X110518769Y-104578717D01*
X110747382Y-104500234D01*
X110959959Y-104385193D01*
X111150702Y-104236732D01*
X111314407Y-104058901D01*
X111446610Y-103856550D01*
X111543704Y-103635198D01*
X111603040Y-103400885D01*
X111623000Y-103160001D01*
X111603040Y-102919117D01*
X111543704Y-102684804D01*
X111446716Y-102463694D01*
X111446611Y-102463454D01*
X111446610Y-102463452D01*
X111314407Y-102261101D01*
X111170790Y-102105091D01*
X111150705Y-102083273D01*
X111150704Y-102083272D01*
X111150702Y-102083270D01*
X110997270Y-101963849D01*
X110959957Y-101934807D01*
X110747381Y-101819767D01*
X110592625Y-101766639D01*
X110518769Y-101741285D01*
X110280356Y-101701501D01*
X110038646Y-101701501D01*
X109800233Y-101741285D01*
X109800230Y-101741285D01*
X109800230Y-101741286D01*
X109571620Y-101819767D01*
X109359044Y-101934807D01*
X109168296Y-102083273D01*
X109004598Y-102261097D01*
X108872390Y-102463454D01*
X108775297Y-102684805D01*
X108715963Y-102919112D01*
X108715962Y-102919117D01*
X108696002Y-103160001D01*
X107422498Y-103160001D01*
X107402544Y-102919195D01*
X107343230Y-102684968D01*
X107246170Y-102463694D01*
X107154827Y-102323884D01*
X106318712Y-103160001D01*
X106318712Y-103160002D01*
X105600291Y-103160002D01*
X105600292Y-103160001D01*
X105600292Y-103160000D01*
X104764176Y-102323884D01*
X104764175Y-102323884D01*
X104672835Y-102463690D01*
X104575773Y-102684968D01*
X104516459Y-102919195D01*
X104496505Y-103160001D01*
X102949520Y-103160001D01*
X102893589Y-102978677D01*
X102864909Y-102919123D01*
X102838768Y-102864841D01*
X102779754Y-102742296D01*
X102700185Y-102625590D01*
X102631962Y-102525525D01*
X102631960Y-102525523D01*
X102631959Y-102525521D01*
X102453507Y-102333195D01*
X102248383Y-102169614D01*
X102021169Y-102038432D01*
X101831120Y-101963843D01*
X105122553Y-101963843D01*
X105959501Y-102800791D01*
X105959502Y-102800791D01*
X106796449Y-101963843D01*
X106796448Y-101963842D01*
X106759690Y-101935232D01*
X106547177Y-101820225D01*
X106318649Y-101741772D01*
X106080313Y-101702001D01*
X105838691Y-101702001D01*
X105600354Y-101741772D01*
X105371823Y-101820226D01*
X105159316Y-101935229D01*
X105122554Y-101963842D01*
X105122553Y-101963843D01*
X101831120Y-101963843D01*
X101776943Y-101942580D01*
X101521157Y-101884198D01*
X101488466Y-101881748D01*
X101325020Y-101869500D01*
X101194032Y-101869500D01*
X101053934Y-101879998D01*
X100997894Y-101884198D01*
X100742108Y-101942580D01*
X100497882Y-102038432D01*
X100270672Y-102169612D01*
X100270669Y-102169614D01*
X100065545Y-102333195D01*
X99944683Y-102463454D01*
X99887089Y-102525525D01*
X99739298Y-102742295D01*
X99625462Y-102978676D01*
X99559428Y-103192758D01*
X99548130Y-103229385D01*
X99509026Y-103488818D01*
X99509026Y-103751182D01*
X99548130Y-104010615D01*
X99548131Y-104010618D01*
X99625462Y-104261323D01*
X99739298Y-104497704D01*
X99887089Y-104714474D01*
X99887091Y-104714476D01*
X99887093Y-104714479D01*
X100065545Y-104906805D01*
X100270669Y-105070386D01*
X100497883Y-105201568D01*
X100718402Y-105288115D01*
X100731383Y-105293210D01*
X100786167Y-105334922D01*
X100810843Y-105399205D01*
X100798042Y-105466861D01*
X100751586Y-105517686D01*
X100685350Y-105536500D01*
X96256685Y-105536500D01*
X96190449Y-105517686D01*
X96143993Y-105466862D01*
X96131192Y-105399206D01*
X96155868Y-105334923D01*
X96210652Y-105293210D01*
X96266621Y-105271243D01*
X96444136Y-105201574D01*
X96671350Y-105070392D01*
X96876474Y-104906811D01*
X97054926Y-104714485D01*
X97202721Y-104497710D01*
X97316556Y-104261329D01*
X97393889Y-104010621D01*
X97432993Y-103751188D01*
X97432993Y-103488824D01*
X97393889Y-103229391D01*
X97316556Y-102978683D01*
X97316553Y-102978677D01*
X97261735Y-102864846D01*
X97202721Y-102742302D01*
X97054926Y-102525527D01*
X96876474Y-102333201D01*
X96671350Y-102169620D01*
X96444136Y-102038438D01*
X96290377Y-101978092D01*
X96199910Y-101942586D01*
X95944124Y-101884204D01*
X95911433Y-101881754D01*
X95747987Y-101869506D01*
X95616999Y-101869506D01*
X95476901Y-101880004D01*
X95420861Y-101884204D01*
X95165075Y-101942586D01*
X94920849Y-102038438D01*
X94693646Y-102169614D01*
X94693636Y-102169620D01*
X94488512Y-102333201D01*
X94367431Y-102463696D01*
X94310056Y-102525531D01*
X94162265Y-102742301D01*
X94048429Y-102978682D01*
X93971100Y-103229381D01*
X93971097Y-103229391D01*
X93931993Y-103488824D01*
X93931993Y-103751188D01*
X93971097Y-104010621D01*
X93971098Y-104010624D01*
X94048429Y-104261329D01*
X94162265Y-104497710D01*
X94310056Y-104714480D01*
X94310058Y-104714482D01*
X94310060Y-104714485D01*
X94488512Y-104906811D01*
X94693636Y-105070392D01*
X94920850Y-105201574D01*
X95074560Y-105261900D01*
X95154334Y-105293210D01*
X95209118Y-105334923D01*
X95233794Y-105399206D01*
X95220993Y-105466862D01*
X95174537Y-105517686D01*
X95108301Y-105536500D01*
X85174069Y-105536500D01*
X85153231Y-105534199D01*
X85082002Y-105536438D01*
X85078044Y-105536500D01*
X85050015Y-105536500D01*
X85045957Y-105537012D01*
X85034144Y-105537941D01*
X84989792Y-105539335D01*
X84970252Y-105545012D01*
X84950902Y-105549020D01*
X84930702Y-105551572D01*
X84889437Y-105567910D01*
X84878210Y-105571753D01*
X84835608Y-105584130D01*
X84818091Y-105594490D01*
X84800344Y-105603184D01*
X84781411Y-105610680D01*
X84745513Y-105636762D01*
X84735595Y-105643277D01*
X84697400Y-105665865D01*
X84683003Y-105680262D01*
X84667978Y-105693094D01*
X84651513Y-105705057D01*
X84623220Y-105739256D01*
X84615233Y-105748032D01*
X83339669Y-107023597D01*
X83298795Y-107050909D01*
X83250577Y-107060500D01*
X73236074Y-107060500D01*
X73215228Y-107058198D01*
X73143970Y-107060438D01*
X73140012Y-107060500D01*
X73112015Y-107060500D01*
X73107975Y-107061010D01*
X73096154Y-107061940D01*
X73051794Y-107063334D01*
X73032243Y-107069014D01*
X73012894Y-107073021D01*
X72992699Y-107075573D01*
X72951441Y-107091907D01*
X72940218Y-107095750D01*
X72897607Y-107108130D01*
X72880083Y-107118494D01*
X72862337Y-107127187D01*
X72843413Y-107134680D01*
X72807512Y-107160763D01*
X72797594Y-107167277D01*
X72759402Y-107189864D01*
X72745003Y-107204262D01*
X72729978Y-107217094D01*
X72713513Y-107229057D01*
X72685220Y-107263256D01*
X72677233Y-107272032D01*
X71335593Y-108613673D01*
X71285436Y-108644410D01*
X71226789Y-108649026D01*
X71172439Y-108626513D01*
X71134233Y-108581780D01*
X71120500Y-108524577D01*
X71120500Y-102411905D01*
X72779793Y-102411905D01*
X72789672Y-102719975D01*
X72821867Y-102919112D01*
X72838867Y-103024261D01*
X72888876Y-103192758D01*
X72926570Y-103319758D01*
X73051336Y-103601609D01*
X73211119Y-103865189D01*
X73288476Y-103962191D01*
X73403304Y-104106181D01*
X73624723Y-104320613D01*
X73624724Y-104320614D01*
X73871748Y-104504973D01*
X74140317Y-104656228D01*
X74294483Y-104718643D01*
X74426025Y-104771899D01*
X74724179Y-104850084D01*
X75029883Y-104889500D01*
X75260974Y-104889500D01*
X75260976Y-104889500D01*
X75491603Y-104874693D01*
X75794146Y-104815773D01*
X75794146Y-104815772D01*
X75794151Y-104815772D01*
X76086683Y-104718644D01*
X76364393Y-104584907D01*
X76622720Y-104416754D01*
X76857424Y-104216948D01*
X77064650Y-103988769D01*
X77230376Y-103751188D01*
X80332020Y-103751188D01*
X80371124Y-104010621D01*
X80371125Y-104010624D01*
X80448456Y-104261329D01*
X80562292Y-104497710D01*
X80710083Y-104714480D01*
X80710085Y-104714482D01*
X80710087Y-104714485D01*
X80888539Y-104906811D01*
X81093663Y-105070392D01*
X81320877Y-105201574D01*
X81565104Y-105297426D01*
X81820890Y-105355808D01*
X82017026Y-105370506D01*
X82148009Y-105370506D01*
X82148014Y-105370506D01*
X82344150Y-105355808D01*
X82599936Y-105297426D01*
X82844163Y-105201574D01*
X83071377Y-105070392D01*
X83276501Y-104906811D01*
X83454953Y-104714485D01*
X83602748Y-104497710D01*
X83670913Y-104356164D01*
X85945548Y-104356164D01*
X85982306Y-104384775D01*
X86194820Y-104499782D01*
X86423348Y-104578235D01*
X86661685Y-104618007D01*
X86903307Y-104618007D01*
X87141643Y-104578235D01*
X87370174Y-104499781D01*
X87582680Y-104384778D01*
X87619442Y-104356164D01*
X87619443Y-104356163D01*
X86782497Y-103519217D01*
X86782496Y-103519217D01*
X85945548Y-104356164D01*
X83670913Y-104356164D01*
X83716583Y-104261329D01*
X83793916Y-104010621D01*
X83833020Y-103751188D01*
X83833020Y-103488824D01*
X83793916Y-103229391D01*
X83772514Y-103160007D01*
X85319499Y-103160007D01*
X85339453Y-103400812D01*
X85398767Y-103635039D01*
X85495829Y-103856317D01*
X85587168Y-103996122D01*
X86423285Y-103160008D01*
X87141706Y-103160008D01*
X87977820Y-103996122D01*
X87977821Y-103996122D01*
X88069164Y-103856313D01*
X88166224Y-103635039D01*
X88225538Y-103400812D01*
X88245492Y-103160007D01*
X89518996Y-103160007D01*
X89538956Y-103400891D01*
X89538956Y-103400894D01*
X89538957Y-103400895D01*
X89598291Y-103635202D01*
X89695384Y-103856553D01*
X89695386Y-103856556D01*
X89827589Y-104058907D01*
X89827592Y-104058910D01*
X89991284Y-104236728D01*
X89991294Y-104236738D01*
X90099058Y-104320614D01*
X90182038Y-104385200D01*
X90316391Y-104457908D01*
X90394614Y-104500240D01*
X90623227Y-104578723D01*
X90861640Y-104618507D01*
X91103347Y-104618507D01*
X91103350Y-104618507D01*
X91341763Y-104578723D01*
X91570376Y-104500240D01*
X91782953Y-104385199D01*
X91973696Y-104236738D01*
X92137401Y-104058907D01*
X92269604Y-103856556D01*
X92366698Y-103635204D01*
X92426034Y-103400891D01*
X92445994Y-103160007D01*
X92426034Y-102919123D01*
X92366698Y-102684810D01*
X92269710Y-102463700D01*
X92269605Y-102463460D01*
X92269600Y-102463452D01*
X92137401Y-102261107D01*
X91973696Y-102083276D01*
X91859250Y-101994199D01*
X91782951Y-101934813D01*
X91570375Y-101819773D01*
X91415619Y-101766645D01*
X91341763Y-101741291D01*
X91103350Y-101701507D01*
X90861640Y-101701507D01*
X90623227Y-101741291D01*
X90623224Y-101741291D01*
X90623224Y-101741292D01*
X90394614Y-101819773D01*
X90182038Y-101934813D01*
X89991290Y-102083279D01*
X89827592Y-102261103D01*
X89695384Y-102463460D01*
X89598291Y-102684811D01*
X89538957Y-102919118D01*
X89538956Y-102919123D01*
X89518996Y-103160007D01*
X88245492Y-103160007D01*
X88225538Y-102919201D01*
X88166224Y-102684974D01*
X88069164Y-102463700D01*
X87977821Y-102323890D01*
X87141706Y-103160007D01*
X87141706Y-103160008D01*
X86423285Y-103160008D01*
X86423286Y-103160007D01*
X86423286Y-103160006D01*
X85587170Y-102323890D01*
X85587169Y-102323890D01*
X85495829Y-102463696D01*
X85398767Y-102684974D01*
X85339453Y-102919201D01*
X85319499Y-103160007D01*
X83772514Y-103160007D01*
X83716583Y-102978683D01*
X83716580Y-102978677D01*
X83661762Y-102864846D01*
X83602748Y-102742302D01*
X83454953Y-102525527D01*
X83276501Y-102333201D01*
X83071377Y-102169620D01*
X82844163Y-102038438D01*
X82690404Y-101978092D01*
X82654114Y-101963849D01*
X85945547Y-101963849D01*
X86782495Y-102800797D01*
X86782496Y-102800797D01*
X87619443Y-101963849D01*
X87619442Y-101963848D01*
X87582684Y-101935238D01*
X87370171Y-101820231D01*
X87141643Y-101741778D01*
X86903307Y-101702007D01*
X86661685Y-101702007D01*
X86423348Y-101741778D01*
X86194817Y-101820232D01*
X85982310Y-101935235D01*
X85945548Y-101963848D01*
X85945547Y-101963849D01*
X82654114Y-101963849D01*
X82599937Y-101942586D01*
X82344151Y-101884204D01*
X82311460Y-101881754D01*
X82148014Y-101869506D01*
X82017026Y-101869506D01*
X81876928Y-101880004D01*
X81820888Y-101884204D01*
X81565102Y-101942586D01*
X81320876Y-102038438D01*
X81093673Y-102169614D01*
X81093663Y-102169620D01*
X80888539Y-102333201D01*
X80767458Y-102463696D01*
X80710083Y-102525531D01*
X80562292Y-102742301D01*
X80448456Y-102978682D01*
X80371127Y-103229381D01*
X80371124Y-103229391D01*
X80332020Y-103488824D01*
X80332020Y-103751188D01*
X77230376Y-103751188D01*
X77240996Y-103735963D01*
X77383567Y-103462683D01*
X77490020Y-103173415D01*
X77558609Y-102872908D01*
X77588206Y-102566098D01*
X77584914Y-102463452D01*
X77578327Y-102258024D01*
X77578327Y-102258022D01*
X77529133Y-101953739D01*
X77441431Y-101658244D01*
X77366211Y-101488322D01*
X77316663Y-101376390D01*
X77156880Y-101112810D01*
X77098861Y-101040057D01*
X76964696Y-100871819D01*
X76743276Y-100657386D01*
X76712011Y-100634052D01*
X76496251Y-100473026D01*
X76227682Y-100321771D01*
X75941976Y-100206101D01*
X75643826Y-100127917D01*
X75643823Y-100127916D01*
X75643821Y-100127916D01*
X75338117Y-100088500D01*
X75107026Y-100088500D01*
X75107024Y-100088500D01*
X74876396Y-100103306D01*
X74573853Y-100162226D01*
X74281314Y-100259356D01*
X74003609Y-100393091D01*
X73745278Y-100561247D01*
X73510576Y-100761052D01*
X73303351Y-100989229D01*
X73127000Y-101242042D01*
X72984434Y-101515314D01*
X72877980Y-101804583D01*
X72809391Y-102105091D01*
X72779793Y-102411905D01*
X71120500Y-102411905D01*
X71120500Y-98551500D01*
X71137381Y-98488500D01*
X71183500Y-98442381D01*
X71246500Y-98425500D01*
X164211500Y-98425500D01*
X164274500Y-98442381D01*
G37*
%TD.AperFunction*%
%TA.AperFunction,Conductor*%
G36*
X77150191Y-112532091D02*
G01*
X77191068Y-112559405D01*
X86029058Y-121397396D01*
X86041026Y-121411243D01*
X86055601Y-121430821D01*
X86055602Y-121430822D01*
X86094162Y-121463177D01*
X86102259Y-121470597D01*
X86106235Y-121474573D01*
X86130952Y-121494117D01*
X86133767Y-121496409D01*
X86137974Y-121499940D01*
X86193139Y-121546228D01*
X86209816Y-121556851D01*
X86210976Y-121557392D01*
X86210980Y-121557395D01*
X86280039Y-121589597D01*
X86283338Y-121591195D01*
X86352582Y-121625971D01*
X86371258Y-121632463D01*
X86372526Y-121632724D01*
X86372527Y-121632725D01*
X86447211Y-121648145D01*
X86450668Y-121648911D01*
X86524877Y-121666500D01*
X86524879Y-121666500D01*
X86526124Y-121666795D01*
X86545804Y-121668806D01*
X86547090Y-121668768D01*
X86547092Y-121668769D01*
X86619060Y-121666675D01*
X86623270Y-121666553D01*
X86626933Y-121666500D01*
X105360000Y-121666500D01*
X105423000Y-121683381D01*
X105469119Y-121729500D01*
X105486000Y-121792500D01*
X105486000Y-125975500D01*
X105469119Y-126038500D01*
X105423000Y-126084619D01*
X105360000Y-126101500D01*
X105249862Y-126101500D01*
X105189299Y-126108011D01*
X105052294Y-126159111D01*
X104935238Y-126246738D01*
X104847611Y-126363794D01*
X104796511Y-126500799D01*
X104790000Y-126561362D01*
X104790000Y-126619500D01*
X104773119Y-126682500D01*
X104727000Y-126728619D01*
X104664000Y-126745500D01*
X100374558Y-126745500D01*
X100335622Y-126739333D01*
X100300497Y-126721436D01*
X100142201Y-126606428D01*
X100142200Y-126606427D01*
X99971385Y-126530375D01*
X99788490Y-126491500D01*
X99601510Y-126491500D01*
X99479580Y-126517416D01*
X99418614Y-126530375D01*
X99247798Y-126606428D01*
X99096530Y-126716330D01*
X98971413Y-126855286D01*
X98877924Y-127017214D01*
X98820145Y-127195042D01*
X98800600Y-127381000D01*
X98820145Y-127566957D01*
X98877924Y-127744785D01*
X98971413Y-127906713D01*
X99024448Y-127965614D01*
X99096530Y-128045669D01*
X99247800Y-128155573D01*
X99418615Y-128231625D01*
X99601510Y-128270500D01*
X99788488Y-128270500D01*
X99788490Y-128270500D01*
X99971385Y-128231625D01*
X100142200Y-128155573D01*
X100293470Y-128045669D01*
X100293469Y-128045669D01*
X100300497Y-128040564D01*
X100335622Y-128022667D01*
X100374558Y-128016500D01*
X104664000Y-128016500D01*
X104727000Y-128033381D01*
X104773119Y-128079500D01*
X104790000Y-128142500D01*
X104790000Y-128397500D01*
X104773119Y-128460500D01*
X104727000Y-128506619D01*
X104664000Y-128523500D01*
X92617027Y-128523500D01*
X92552529Y-128505741D01*
X92506213Y-128457469D01*
X92491135Y-128392293D01*
X92511543Y-128328587D01*
X92558608Y-128256549D01*
X92655702Y-128035197D01*
X92715038Y-127800884D01*
X92734998Y-127560000D01*
X92715038Y-127319116D01*
X92655702Y-127084803D01*
X92558608Y-126863451D01*
X92426405Y-126661100D01*
X92262700Y-126483269D01*
X92109201Y-126363796D01*
X92071955Y-126334806D01*
X91859379Y-126219766D01*
X91676019Y-126156819D01*
X91630767Y-126141284D01*
X91392354Y-126101500D01*
X91150644Y-126101500D01*
X90912231Y-126141284D01*
X90912230Y-126141284D01*
X90912226Y-126141285D01*
X90866975Y-126156819D01*
X90797664Y-126160402D01*
X90736971Y-126126740D01*
X89696315Y-125086083D01*
X89683204Y-125069717D01*
X89631234Y-125020915D01*
X89628421Y-125018189D01*
X89608593Y-124998361D01*
X89606960Y-124997094D01*
X89605372Y-124995862D01*
X89596348Y-124988155D01*
X89576871Y-124969865D01*
X89564005Y-124957783D01*
X89564002Y-124957781D01*
X89546171Y-124947978D01*
X89529653Y-124937128D01*
X89513566Y-124924650D01*
X89472835Y-124907024D01*
X89462177Y-124901802D01*
X89423301Y-124880430D01*
X89403585Y-124875368D01*
X89384879Y-124868963D01*
X89366208Y-124860883D01*
X89322372Y-124853940D01*
X89310749Y-124851532D01*
X89267783Y-124840500D01*
X89267781Y-124840500D01*
X89247433Y-124840500D01*
X89227723Y-124838949D01*
X89207620Y-124835765D01*
X89207619Y-124835765D01*
X89163443Y-124839941D01*
X89151585Y-124840500D01*
X82888074Y-124840500D01*
X82867228Y-124838198D01*
X82795970Y-124840438D01*
X82792012Y-124840500D01*
X82764015Y-124840500D01*
X82759975Y-124841010D01*
X82748154Y-124841940D01*
X82703794Y-124843334D01*
X82684243Y-124849014D01*
X82664894Y-124853021D01*
X82644699Y-124855573D01*
X82603441Y-124871907D01*
X82592218Y-124875750D01*
X82549607Y-124888130D01*
X82532083Y-124898494D01*
X82514337Y-124907187D01*
X82495413Y-124914680D01*
X82459512Y-124940763D01*
X82449594Y-124947277D01*
X82411402Y-124969864D01*
X82397003Y-124984262D01*
X82381978Y-124997094D01*
X82365513Y-125009057D01*
X82337220Y-125043256D01*
X82329233Y-125052032D01*
X80926669Y-126454597D01*
X80885795Y-126481909D01*
X80837577Y-126491500D01*
X76549019Y-126491500D01*
X76486914Y-126475131D01*
X76440945Y-126430277D01*
X76423057Y-126368592D01*
X76437897Y-126306104D01*
X76531782Y-126130458D01*
X76591332Y-125934145D01*
X76611439Y-125730000D01*
X76591332Y-125525854D01*
X76531783Y-125329544D01*
X76459637Y-125194570D01*
X75565000Y-126089210D01*
X75199615Y-126454595D01*
X75158738Y-126481909D01*
X75110520Y-126491500D01*
X74749480Y-126491500D01*
X74701262Y-126481909D01*
X74660385Y-126454595D01*
X73935791Y-125730001D01*
X74654210Y-125730001D01*
X74929999Y-126005790D01*
X74930001Y-126005790D01*
X75205790Y-125730001D01*
X75205790Y-125729999D01*
X74930001Y-125454210D01*
X74929999Y-125454210D01*
X74654210Y-125729999D01*
X74654210Y-125730001D01*
X73935791Y-125730001D01*
X73570405Y-125364615D01*
X73543091Y-125323738D01*
X73533500Y-125275520D01*
X73533500Y-125095001D01*
X74019210Y-125095001D01*
X74294999Y-125370790D01*
X74295001Y-125370790D01*
X74570790Y-125095001D01*
X75289210Y-125095001D01*
X75564999Y-125370790D01*
X75565001Y-125370790D01*
X75840790Y-125095001D01*
X75840790Y-125094999D01*
X75565001Y-124819210D01*
X75564999Y-124819210D01*
X75289210Y-125094999D01*
X75289210Y-125095001D01*
X74570790Y-125095001D01*
X74570790Y-125094999D01*
X74295001Y-124819210D01*
X74294999Y-124819210D01*
X74019210Y-125094999D01*
X74019210Y-125095001D01*
X73533500Y-125095001D01*
X73533500Y-124914480D01*
X73543091Y-124866262D01*
X73570405Y-124825384D01*
X73935789Y-124460001D01*
X74654210Y-124460001D01*
X74929999Y-124735790D01*
X74930001Y-124735790D01*
X75205790Y-124460001D01*
X75924210Y-124460001D01*
X76459637Y-124995428D01*
X76531782Y-124860459D01*
X76591332Y-124664145D01*
X76611439Y-124460000D01*
X76591332Y-124255854D01*
X76531783Y-124059544D01*
X76459636Y-123924571D01*
X75924210Y-124460000D01*
X75924210Y-124460001D01*
X75205790Y-124460001D01*
X75205790Y-124459999D01*
X74930001Y-124184210D01*
X74929999Y-124184210D01*
X74654210Y-124459999D01*
X74654210Y-124460001D01*
X73935789Y-124460001D01*
X73935790Y-124460000D01*
X73570405Y-124094616D01*
X73543091Y-124053738D01*
X73533500Y-124005520D01*
X73533500Y-123825001D01*
X74019210Y-123825001D01*
X74294999Y-124100790D01*
X74295001Y-124100790D01*
X74570790Y-123825001D01*
X75289210Y-123825001D01*
X75564999Y-124100790D01*
X75565001Y-124100790D01*
X75840790Y-123825001D01*
X75840790Y-123824999D01*
X75565001Y-123549210D01*
X75564999Y-123549210D01*
X75289210Y-123824999D01*
X75289210Y-123825001D01*
X74570790Y-123825001D01*
X74570790Y-123824999D01*
X74295001Y-123549210D01*
X74294999Y-123549210D01*
X74019210Y-123824999D01*
X74019210Y-123825001D01*
X73533500Y-123825001D01*
X73533500Y-123644481D01*
X73543091Y-123596263D01*
X73570404Y-123555386D01*
X74128916Y-122996872D01*
X74175565Y-122967332D01*
X74230360Y-122960574D01*
X74295000Y-122966941D01*
X74295000Y-122966940D01*
X74295001Y-122966941D01*
X74363082Y-122960235D01*
X74499248Y-122946824D01*
X74589389Y-122919479D01*
X74655377Y-122917535D01*
X74713292Y-122949226D01*
X74747233Y-123005852D01*
X74747882Y-123071867D01*
X74715060Y-123129149D01*
X74654210Y-123190000D01*
X74654210Y-123190001D01*
X74929999Y-123465790D01*
X74930001Y-123465790D01*
X75205790Y-123190001D01*
X75924210Y-123190001D01*
X76459637Y-123725428D01*
X76531783Y-123590455D01*
X76591332Y-123394145D01*
X76611439Y-123190000D01*
X76591332Y-122985854D01*
X76531783Y-122789544D01*
X76459636Y-122654571D01*
X75924210Y-123190000D01*
X75924210Y-123190001D01*
X75205790Y-123190001D01*
X75205790Y-123189999D01*
X74936307Y-122920516D01*
X74902693Y-122860033D01*
X74906089Y-122790920D01*
X74945469Y-122734022D01*
X75035299Y-122660299D01*
X75109022Y-122570469D01*
X75165920Y-122531089D01*
X75235033Y-122527693D01*
X75295516Y-122561307D01*
X75564999Y-122830790D01*
X75565001Y-122830790D01*
X75840790Y-122555001D01*
X75840790Y-122554999D01*
X75565001Y-122279210D01*
X75565000Y-122279210D01*
X75504149Y-122340060D01*
X75446867Y-122372882D01*
X75380852Y-122372233D01*
X75324226Y-122338292D01*
X75292535Y-122280377D01*
X75294479Y-122214389D01*
X75321824Y-122124248D01*
X75341941Y-121920001D01*
X75924210Y-121920001D01*
X76459637Y-122455428D01*
X76531783Y-122320455D01*
X76591332Y-122124145D01*
X76611439Y-121919999D01*
X76591332Y-121715854D01*
X76531783Y-121519544D01*
X76459636Y-121384571D01*
X75924210Y-121920000D01*
X75924210Y-121920001D01*
X75341941Y-121920001D01*
X75341941Y-121920000D01*
X75321824Y-121715752D01*
X75294479Y-121625610D01*
X75292535Y-121559621D01*
X75324226Y-121501706D01*
X75380852Y-121467766D01*
X75446868Y-121467117D01*
X75504149Y-121499940D01*
X75564999Y-121560790D01*
X75565001Y-121560790D01*
X75840790Y-121285001D01*
X75840790Y-121284999D01*
X75565001Y-121009210D01*
X75565000Y-121009210D01*
X75504149Y-121070060D01*
X75446867Y-121102882D01*
X75380852Y-121102233D01*
X75324226Y-121068292D01*
X75292535Y-121010377D01*
X75294479Y-120944389D01*
X75321824Y-120854248D01*
X75341941Y-120650001D01*
X75924210Y-120650001D01*
X76459637Y-121185428D01*
X76531783Y-121050455D01*
X76591332Y-120854145D01*
X76611439Y-120649999D01*
X76591332Y-120445854D01*
X76531783Y-120249544D01*
X76459637Y-120114570D01*
X75924210Y-120650000D01*
X75924210Y-120650001D01*
X75341941Y-120650001D01*
X75341941Y-120650000D01*
X75321824Y-120445752D01*
X75294479Y-120355610D01*
X75292535Y-120289621D01*
X75324226Y-120231706D01*
X75380852Y-120197766D01*
X75446868Y-120197117D01*
X75504149Y-120229940D01*
X75564999Y-120290790D01*
X75565001Y-120290790D01*
X75840790Y-120015001D01*
X75840790Y-120014999D01*
X75565001Y-119739210D01*
X75565000Y-119739210D01*
X75504149Y-119800060D01*
X75446867Y-119832882D01*
X75380852Y-119832233D01*
X75324226Y-119798292D01*
X75292535Y-119740377D01*
X75294479Y-119674389D01*
X75321824Y-119584248D01*
X75341941Y-119380001D01*
X75924210Y-119380001D01*
X76459637Y-119915428D01*
X76531782Y-119780459D01*
X76591332Y-119584145D01*
X76611439Y-119379999D01*
X76591332Y-119175854D01*
X76531783Y-118979544D01*
X76459636Y-118844571D01*
X75924210Y-119380000D01*
X75924210Y-119380001D01*
X75341941Y-119380001D01*
X75341941Y-119380000D01*
X75321824Y-119175752D01*
X75294479Y-119085610D01*
X75292535Y-119019621D01*
X75324226Y-118961706D01*
X75380852Y-118927766D01*
X75446868Y-118927117D01*
X75504149Y-118959940D01*
X75564999Y-119020790D01*
X75565001Y-119020790D01*
X75840790Y-118745001D01*
X75840790Y-118744999D01*
X75565001Y-118469210D01*
X75565000Y-118469210D01*
X75504149Y-118530060D01*
X75446867Y-118562882D01*
X75380852Y-118562233D01*
X75324226Y-118528292D01*
X75292535Y-118470377D01*
X75294479Y-118404389D01*
X75321824Y-118314248D01*
X75341941Y-118110000D01*
X75335574Y-118045359D01*
X75342332Y-117990564D01*
X75371872Y-117943916D01*
X75398916Y-117916872D01*
X75445564Y-117887332D01*
X75500359Y-117880574D01*
X75557099Y-117886162D01*
X75564999Y-117886941D01*
X75564999Y-117886940D01*
X75565000Y-117886941D01*
X75629639Y-117880574D01*
X75684434Y-117887332D01*
X75731083Y-117916872D01*
X76459637Y-118645427D01*
X76531783Y-118510455D01*
X76591332Y-118314145D01*
X76611439Y-118110000D01*
X76591332Y-117905854D01*
X76531783Y-117709544D01*
X76438447Y-117534927D01*
X76423569Y-117475530D01*
X76438446Y-117416136D01*
X76532247Y-117240647D01*
X76591824Y-117044248D01*
X76611941Y-116840000D01*
X76591824Y-116635752D01*
X76532247Y-116439353D01*
X76532247Y-116439352D01*
X76438731Y-116264394D01*
X76423853Y-116204999D01*
X76438730Y-116145605D01*
X76532247Y-115970647D01*
X76591824Y-115774248D01*
X76611941Y-115570000D01*
X76591824Y-115365752D01*
X76532247Y-115169353D01*
X76532247Y-115169352D01*
X76438731Y-114994394D01*
X76423853Y-114934999D01*
X76438730Y-114875605D01*
X76532247Y-114700647D01*
X76591824Y-114504248D01*
X76611941Y-114300000D01*
X76591824Y-114095752D01*
X76532247Y-113899353D01*
X76532247Y-113899352D01*
X76438731Y-113724394D01*
X76423853Y-113664999D01*
X76438730Y-113605605D01*
X76532247Y-113430647D01*
X76591824Y-113234248D01*
X76611941Y-113030000D01*
X76591824Y-112825752D01*
X76549149Y-112685074D01*
X76545580Y-112626959D01*
X76568521Y-112573442D01*
X76613074Y-112535954D01*
X76669725Y-112522500D01*
X77101973Y-112522500D01*
X77150191Y-112532091D01*
G37*
%TD.AperFunction*%
%TD*%
M02*
