%TF.GenerationSoftware,KiCad,Pcbnew,7.0.1*%
%TF.CreationDate,2023-04-04T11:35:31-07:00*%
%TF.ProjectId,PT Hub,50542048-7562-42e6-9b69-6361645f7063,v01*%
%TF.SameCoordinates,Original*%
%TF.FileFunction,Copper,L1,Top*%
%TF.FilePolarity,Positive*%
%FSLAX46Y46*%
G04 Gerber Fmt 4.6, Leading zero omitted, Abs format (unit mm)*
G04 Created by KiCad (PCBNEW 7.0.1) date 2023-04-04 11:35:31*
%MOMM*%
%LPD*%
G01*
G04 APERTURE LIST*
%TA.AperFunction,SMDPad,CuDef*%
%ADD10R,1.100000X1.000000*%
%TD*%
%TA.AperFunction,ComponentPad*%
%ADD11R,1.900000X1.900000*%
%TD*%
%TA.AperFunction,ComponentPad*%
%ADD12C,1.900000*%
%TD*%
%TA.AperFunction,SMDPad,CuDef*%
%ADD13R,0.940000X1.020000*%
%TD*%
%TA.AperFunction,ComponentPad*%
%ADD14C,1.066800*%
%TD*%
%TA.AperFunction,SMDPad,CuDef*%
%ADD15R,0.965200X1.295400*%
%TD*%
%TA.AperFunction,ViaPad*%
%ADD16C,0.762000*%
%TD*%
%TA.AperFunction,Conductor*%
%ADD17C,0.254000*%
%TD*%
G04 APERTURE END LIST*
D10*
%TO.P,C2,1*%
%TO.N,5V*%
X160108000Y-121793000D03*
%TO.P,C2,2*%
%TO.N,Earth*%
X158408000Y-121793000D03*
%TD*%
D11*
%TO.P,P6,1,+12V*%
%TO.N,VIN*%
X125425500Y-127560000D03*
D12*
%TO.P,P6,2,GND*%
%TO.N,PT6+*%
X129625499Y-127560000D03*
%TO.P,P6,3,3*%
%TO.N,Earth*%
X125425500Y-133059999D03*
%TO.P,P6,4,4*%
X129625499Y-133059999D03*
%TD*%
D13*
%TO.P,R1,1*%
%TO.N,Earth*%
X158722000Y-117475000D03*
%TO.P,R1,2*%
%TO.N,Net-(D1-Pad1)*%
X160302000Y-117475000D03*
%TD*%
D14*
%TO.P,P1,1,1*%
%TO.N,5V*%
X74295000Y-110490000D03*
%TO.P,P1,2,2*%
X75565000Y-110490000D03*
%TO.P,P1,3,3*%
%TO.N,VIN*%
X74295000Y-111760000D03*
%TO.P,P1,4,4*%
X75565000Y-111760000D03*
%TO.P,P1,5,5*%
%TO.N,PT1+*%
X74295000Y-113030000D03*
%TO.P,P1,6,6*%
%TO.N,PT1-*%
X75565000Y-113030000D03*
%TO.P,P1,7,7*%
%TO.N,PT2+*%
X74295000Y-114300000D03*
%TO.P,P1,8,8*%
%TO.N,PT2-*%
X75565000Y-114300000D03*
%TO.P,P1,9,9*%
%TO.N,PT3+*%
X74295000Y-115570000D03*
%TO.P,P1,10,10*%
%TO.N,PT3-*%
X75565000Y-115570000D03*
%TO.P,P1,11,11*%
%TO.N,PT4+*%
X74295000Y-116840000D03*
%TO.P,P1,12,12*%
%TO.N,PT4-*%
X75565000Y-116840000D03*
%TO.P,P1,13,13*%
%TO.N,PT5+*%
X74295000Y-118110000D03*
%TO.P,P1,14,14*%
%TO.N,Earth*%
X75565000Y-118110000D03*
%TO.P,P1,15,15*%
%TO.N,PT6+*%
X74295000Y-119380000D03*
%TO.P,P1,16,16*%
%TO.N,Earth*%
X75565000Y-119380000D03*
%TO.P,P1,17,17*%
%TO.N,PT7+*%
X74295000Y-120650000D03*
%TO.P,P1,18,18*%
%TO.N,Earth*%
X75565000Y-120650000D03*
%TO.P,P1,19,19*%
%TO.N,PT8+*%
X74295000Y-121920000D03*
%TO.P,P1,20,20*%
%TO.N,Earth*%
X75565000Y-121920000D03*
%TO.P,P1,21,21*%
X74295000Y-123190000D03*
%TO.P,P1,22,22*%
X75565000Y-123190000D03*
%TO.P,P1,23,23*%
X74295000Y-124460000D03*
%TO.P,P1,24,24*%
X75565000Y-124460000D03*
%TO.P,P1,25,25*%
X74295000Y-125730000D03*
%TO.P,P1,26,26*%
X75565000Y-125730000D03*
%TD*%
D11*
%TO.P,P3,1,+12V*%
%TO.N,VIN*%
X106248500Y-127560000D03*
D12*
%TO.P,P3,2,GND*%
%TO.N,PT7+*%
X110448499Y-127560000D03*
%TO.P,P3,3,3*%
%TO.N,Earth*%
X106248500Y-133059999D03*
%TO.P,P3,4,4*%
X110448499Y-133059999D03*
%TD*%
D11*
%TO.P,P8,1,+12V*%
%TO.N,5V*%
X148513500Y-108660000D03*
D12*
%TO.P,P8,2,GND*%
%TO.N,PT4+*%
X144313501Y-108660000D03*
%TO.P,P8,3,3*%
%TO.N,PT4-*%
X148513500Y-103160001D03*
%TO.P,P8,4,4*%
%TO.N,Earth*%
X144313501Y-103160001D03*
%TD*%
D10*
%TO.P,C1,1*%
%TO.N,5V*%
X90893000Y-118237000D03*
%TO.P,C1,2*%
%TO.N,Earth*%
X89193000Y-118237000D03*
%TD*%
D11*
%TO.P,P2,1,+12V*%
%TO.N,VIN*%
X144653000Y-127560000D03*
D12*
%TO.P,P2,2,GND*%
%TO.N,PT5+*%
X148852999Y-127560000D03*
%TO.P,P2,3,3*%
%TO.N,Earth*%
X144653000Y-133059999D03*
%TO.P,P2,4,4*%
X148852999Y-133059999D03*
%TD*%
D15*
%TO.P,D1,1,1*%
%TO.N,Net-(D1-Pad1)*%
X158115000Y-112522000D03*
%TO.P,D1,2,2*%
%TO.N,5V*%
X161163000Y-112522000D03*
%TD*%
D11*
%TO.P,P5,1,+12V*%
%TO.N,5V*%
X129336501Y-108660000D03*
D12*
%TO.P,P5,2,GND*%
%TO.N,PT3+*%
X125136502Y-108660000D03*
%TO.P,P5,3,3*%
%TO.N,PT3-*%
X129336501Y-103160001D03*
%TO.P,P5,4,4*%
%TO.N,Earth*%
X125136502Y-103160001D03*
%TD*%
D11*
%TO.P,P4,1,+12V*%
%TO.N,5V*%
X90982495Y-108660006D03*
D12*
%TO.P,P4,2,GND*%
%TO.N,PT1+*%
X86782496Y-108660006D03*
%TO.P,P4,3,3*%
%TO.N,PT1-*%
X90982495Y-103160007D03*
%TO.P,P4,4,4*%
%TO.N,Earth*%
X86782496Y-103160007D03*
%TD*%
D11*
%TO.P,P7,1,+12V*%
%TO.N,5V*%
X110159501Y-108660000D03*
D12*
%TO.P,P7,2,GND*%
%TO.N,PT2+*%
X105959502Y-108660000D03*
%TO.P,P7,3,3*%
%TO.N,PT2-*%
X110159501Y-103160001D03*
%TO.P,P7,4,4*%
%TO.N,Earth*%
X105959502Y-103160001D03*
%TD*%
D11*
%TO.P,P9,1,+12V*%
%TO.N,VIN*%
X87071500Y-127560000D03*
D12*
%TO.P,P9,2,GND*%
%TO.N,PT8+*%
X91271499Y-127560000D03*
%TO.P,P9,3,3*%
%TO.N,Earth*%
X87071500Y-133059999D03*
%TO.P,P9,4,4*%
X91271499Y-133059999D03*
%TD*%
D16*
%TO.N,VIN*%
X99695000Y-127381000D03*
%TO.N,Earth*%
X87249000Y-118237000D03*
%TD*%
D17*
%TO.N,VIN*%
X89154000Y-129667000D02*
X97409000Y-129667000D01*
X87071500Y-127560000D02*
X87071500Y-127584500D01*
X97409000Y-129667000D02*
X99695000Y-127381000D01*
X87071500Y-127584500D02*
X89154000Y-129667000D01*
X74295000Y-111760000D02*
X75311000Y-111760000D01*
X75311000Y-111760000D02*
X75438000Y-111633000D01*
%TO.N,Earth*%
X89193000Y-118237000D02*
X87249000Y-118237000D01*
X148852999Y-133059999D02*
X152908000Y-129004998D01*
X158408000Y-121793000D02*
X153035000Y-121793000D01*
X155702000Y-117475000D02*
X152908000Y-120269000D01*
X152908000Y-129004998D02*
X152908000Y-121920000D01*
X153035000Y-121793000D02*
X152908000Y-121920000D01*
X158722000Y-117475000D02*
X155702000Y-117475000D01*
X152908000Y-121920000D02*
X152908000Y-120269000D01*
%TO.N,Net-(D1-Pad1)*%
X158115000Y-112522000D02*
X158115000Y-114046000D01*
X158115000Y-114046000D02*
X160274000Y-116205000D01*
X160274000Y-116205000D02*
X160274000Y-117348000D01*
%TO.N,PT1-*%
X88138000Y-106172000D02*
X91059000Y-103251000D01*
X77343000Y-113030000D02*
X84201000Y-106172000D01*
X84201000Y-106172000D02*
X88138000Y-106172000D01*
X75565000Y-113030000D02*
X77343000Y-113030000D01*
%TO.N,PT2-*%
X75565000Y-114300000D02*
X77597000Y-114300000D01*
X104267000Y-106045000D02*
X107188000Y-106045000D01*
X110159501Y-103160001D02*
X107274502Y-106045000D01*
X77597000Y-114300000D02*
X81026000Y-110871000D01*
X99441000Y-110871000D02*
X103759000Y-106553000D01*
X103759000Y-106553000D02*
X104267000Y-106045000D01*
X81026000Y-110871000D02*
X99441000Y-110871000D01*
X107274502Y-106045000D02*
X107188000Y-106045000D01*
%TO.N,PT3-*%
X118110000Y-112014000D02*
X124206000Y-105918000D01*
X129336501Y-103160001D02*
X126578502Y-105918000D01*
X117475000Y-112014000D02*
X118110000Y-112014000D01*
X124206000Y-105918000D02*
X126492000Y-105918000D01*
X126578502Y-105918000D02*
X126492000Y-105918000D01*
X94996000Y-112014000D02*
X117348000Y-112014000D01*
X117348000Y-112014000D02*
X117475000Y-112014000D01*
X75565000Y-115570000D02*
X77724000Y-115570000D01*
X81280000Y-112014000D02*
X94996000Y-112014000D01*
X77724000Y-115570000D02*
X81280000Y-112014000D01*
%TO.N,PT4-*%
X145669000Y-106299000D02*
X148463000Y-103505000D01*
X135763000Y-113030000D02*
X142494000Y-106299000D01*
X148463000Y-103505000D02*
X148463000Y-103124000D01*
X142494000Y-106299000D02*
X145669000Y-106299000D01*
X77724000Y-116840000D02*
X77851000Y-116840000D01*
X77851000Y-116840000D02*
X81534000Y-113157000D01*
X81661000Y-113030000D02*
X135763000Y-113030000D01*
X75565000Y-116840000D02*
X77724000Y-116840000D01*
X81534000Y-113157000D02*
X81661000Y-113030000D01*
%TO.N,Earth*%
X144653000Y-130683000D02*
X144399000Y-130429000D01*
X75565000Y-118110000D02*
X77089000Y-118110000D01*
X137541000Y-123571000D02*
X144399000Y-130429000D01*
X82550000Y-123571000D02*
X137541000Y-123571000D01*
X77089000Y-118110000D02*
X82550000Y-123571000D01*
X144653000Y-133059999D02*
X144653000Y-130683000D01*
X117602000Y-124333000D02*
X123317000Y-130048000D01*
X124333000Y-130048000D02*
X125476000Y-131191000D01*
X82169000Y-124333000D02*
X117602000Y-124333000D01*
X75565000Y-119380000D02*
X77216000Y-119380000D01*
X77216000Y-119380000D02*
X82169000Y-124333000D01*
X123317000Y-130048000D02*
X124333000Y-130048000D01*
X125476000Y-131191000D02*
X125476000Y-132842000D01*
X106248500Y-133059999D02*
X106248500Y-131267500D01*
X99949000Y-124968000D02*
X103124000Y-128143000D01*
X75565000Y-120650000D02*
X77343000Y-120650000D01*
X106248500Y-131267500D02*
X103124000Y-128143000D01*
X81661000Y-124968000D02*
X99949000Y-124968000D01*
X77343000Y-120650000D02*
X81661000Y-124968000D01*
X87071500Y-133059999D02*
X87071500Y-130886500D01*
X87071500Y-130632500D02*
X87071500Y-130886500D01*
X82042000Y-125603000D02*
X87071500Y-130632500D01*
X76835000Y-121920000D02*
X80518000Y-125603000D01*
X80518000Y-125603000D02*
X82042000Y-125603000D01*
X75565000Y-121920000D02*
X76835000Y-121920000D01*
%TD*%
%TA.AperFunction,Conductor*%
%TO.N,5V*%
G36*
X164274500Y-98442381D02*
G01*
X164320619Y-98488500D01*
X164337500Y-98551500D01*
X164337500Y-137744700D01*
X164320619Y-137807700D01*
X164274500Y-137853819D01*
X164211500Y-137870700D01*
X71246500Y-137870700D01*
X71183500Y-137853819D01*
X71137381Y-137807700D01*
X71120500Y-137744700D01*
X71120500Y-133653905D01*
X73033793Y-133653905D01*
X73043672Y-133961975D01*
X73092866Y-134266260D01*
X73092867Y-134266261D01*
X73167730Y-134518499D01*
X73180570Y-134561758D01*
X73305336Y-134843609D01*
X73465119Y-135107189D01*
X73542476Y-135204191D01*
X73657304Y-135348181D01*
X73878724Y-135562614D01*
X74125748Y-135746973D01*
X74394317Y-135898228D01*
X74548483Y-135960643D01*
X74680025Y-136013899D01*
X74978179Y-136092084D01*
X75283883Y-136131500D01*
X75514974Y-136131500D01*
X75514976Y-136131500D01*
X75745603Y-136116693D01*
X76048146Y-136057773D01*
X76048146Y-136057772D01*
X76048151Y-136057772D01*
X76340683Y-135960644D01*
X76618393Y-135826907D01*
X76876720Y-135658754D01*
X77111424Y-135458948D01*
X77318650Y-135230769D01*
X77494996Y-134977963D01*
X77637567Y-134704683D01*
X77744020Y-134415415D01*
X77812609Y-134114908D01*
X77842206Y-133808098D01*
X77838562Y-133694474D01*
X77832327Y-133500024D01*
X77832327Y-133500022D01*
X77783133Y-133195739D01*
X77695431Y-132900244D01*
X77620592Y-132731182D01*
X80621002Y-132731182D01*
X80660106Y-132990615D01*
X80660107Y-132990618D01*
X80737438Y-133241323D01*
X80851274Y-133477704D01*
X80999065Y-133694474D01*
X80999067Y-133694476D01*
X80999069Y-133694479D01*
X81177521Y-133886805D01*
X81382645Y-134050386D01*
X81609859Y-134181568D01*
X81854086Y-134277420D01*
X82109872Y-134335802D01*
X82306008Y-134350500D01*
X82436991Y-134350500D01*
X82436996Y-134350500D01*
X82633132Y-134335802D01*
X82888918Y-134277420D01*
X83133145Y-134181568D01*
X83360359Y-134050386D01*
X83565483Y-133886805D01*
X83743935Y-133694479D01*
X83891730Y-133477704D01*
X84005565Y-133241323D01*
X84082898Y-132990615D01*
X84122002Y-132731182D01*
X84122002Y-132468818D01*
X84082898Y-132209385D01*
X84013151Y-131983271D01*
X84005565Y-131958676D01*
X83920130Y-131781269D01*
X83891730Y-131722296D01*
X83743935Y-131505521D01*
X83565483Y-131313195D01*
X83360359Y-131149614D01*
X83133145Y-131018432D01*
X83119577Y-131013107D01*
X82888919Y-130922580D01*
X82633133Y-130864198D01*
X82583971Y-130860514D01*
X82436996Y-130849500D01*
X82306008Y-130849500D01*
X82165910Y-130859998D01*
X82109870Y-130864198D01*
X81854084Y-130922580D01*
X81609858Y-131018432D01*
X81382648Y-131149612D01*
X81382645Y-131149614D01*
X81177521Y-131313195D01*
X81124892Y-131369916D01*
X80999065Y-131505525D01*
X80851274Y-131722295D01*
X80737438Y-131958676D01*
X80675001Y-132161095D01*
X80660106Y-132209385D01*
X80621002Y-132468818D01*
X80621002Y-132731182D01*
X77620592Y-132731182D01*
X77620211Y-132730322D01*
X77570663Y-132618390D01*
X77410880Y-132354810D01*
X77352861Y-132282057D01*
X77218696Y-132113819D01*
X76997276Y-131899386D01*
X76910745Y-131834806D01*
X76750251Y-131715026D01*
X76481682Y-131563771D01*
X76195976Y-131448101D01*
X75897826Y-131369917D01*
X75897823Y-131369916D01*
X75897821Y-131369916D01*
X75592117Y-131330500D01*
X75361026Y-131330500D01*
X75361024Y-131330500D01*
X75130396Y-131345306D01*
X74827853Y-131404226D01*
X74535314Y-131501356D01*
X74257609Y-131635091D01*
X73999278Y-131803247D01*
X73764576Y-132003052D01*
X73557351Y-132231229D01*
X73381000Y-132484042D01*
X73238434Y-132757314D01*
X73131980Y-133046583D01*
X73063391Y-133347091D01*
X73033793Y-133653905D01*
X71120500Y-133653905D01*
X71120500Y-125729999D01*
X73248058Y-125729999D01*
X73268175Y-125934248D01*
X73327752Y-126130645D01*
X73424501Y-126311652D01*
X73554700Y-126470299D01*
X73713347Y-126600498D01*
X73750496Y-126620354D01*
X73894353Y-126697247D01*
X73957265Y-126716331D01*
X74090751Y-126756824D01*
X74295000Y-126776941D01*
X74499248Y-126756824D01*
X74695647Y-126697247D01*
X74870604Y-126603730D01*
X74930000Y-126588853D01*
X74989395Y-126603730D01*
X75164353Y-126697247D01*
X75227265Y-126716331D01*
X75360751Y-126756824D01*
X75565000Y-126776941D01*
X75769248Y-126756824D01*
X75965647Y-126697247D01*
X76146649Y-126600500D01*
X76146650Y-126600498D01*
X76146652Y-126600498D01*
X76305299Y-126470299D01*
X76435498Y-126311652D01*
X76435500Y-126311649D01*
X76532247Y-126130647D01*
X76591824Y-125934248D01*
X76611941Y-125730000D01*
X76591824Y-125525752D01*
X76532247Y-125329353D01*
X76438730Y-125154394D01*
X76423853Y-125095000D01*
X76438731Y-125035604D01*
X76446837Y-125020439D01*
X76532247Y-124860647D01*
X76591824Y-124664248D01*
X76611941Y-124460000D01*
X76591824Y-124255752D01*
X76581049Y-124220233D01*
X76532247Y-124059354D01*
X76532247Y-124059353D01*
X76438730Y-123884394D01*
X76423853Y-123825000D01*
X76438731Y-123765604D01*
X76438732Y-123765603D01*
X76532247Y-123590647D01*
X76591824Y-123394248D01*
X76611941Y-123190000D01*
X76591824Y-122985752D01*
X76559228Y-122878300D01*
X76557284Y-122812311D01*
X76588975Y-122754396D01*
X76645601Y-122720456D01*
X76711617Y-122719807D01*
X76768897Y-122752629D01*
X78437862Y-124421595D01*
X80009184Y-125992917D01*
X80022298Y-126009285D01*
X80074265Y-126058085D01*
X80077107Y-126060840D01*
X80096906Y-126080639D01*
X80100131Y-126083141D01*
X80109149Y-126090843D01*
X80141494Y-126121217D01*
X80159330Y-126131023D01*
X80175852Y-126141876D01*
X80191934Y-126154350D01*
X80232661Y-126171974D01*
X80243309Y-126177190D01*
X80282199Y-126198570D01*
X80301908Y-126203630D01*
X80320613Y-126210033D01*
X80339293Y-126218117D01*
X80383126Y-126225059D01*
X80394721Y-126227459D01*
X80437718Y-126238500D01*
X80458067Y-126238500D01*
X80477776Y-126240050D01*
X80497880Y-126243235D01*
X80542055Y-126239059D01*
X80553914Y-126238500D01*
X81726578Y-126238500D01*
X81774796Y-126248091D01*
X81815673Y-126275405D01*
X86399095Y-130858828D01*
X86426409Y-130899705D01*
X86436000Y-130947923D01*
X86436000Y-131670456D01*
X86418241Y-131734953D01*
X86369970Y-131781269D01*
X86271045Y-131834805D01*
X86080295Y-131983271D01*
X85916597Y-132161095D01*
X85784389Y-132363452D01*
X85687296Y-132584803D01*
X85643611Y-132757314D01*
X85627961Y-132819115D01*
X85608001Y-133059999D01*
X85627961Y-133300883D01*
X85627961Y-133300886D01*
X85627962Y-133300887D01*
X85687296Y-133535194D01*
X85784389Y-133756545D01*
X85784391Y-133756548D01*
X85916594Y-133958899D01*
X86080299Y-134136730D01*
X86232893Y-134255498D01*
X86271043Y-134285192D01*
X86391722Y-134350500D01*
X86483619Y-134400232D01*
X86712232Y-134478715D01*
X86950645Y-134518499D01*
X87192352Y-134518499D01*
X87192355Y-134518499D01*
X87430768Y-134478715D01*
X87659381Y-134400232D01*
X87871958Y-134285191D01*
X88062701Y-134136730D01*
X88226406Y-133958899D01*
X88358609Y-133756548D01*
X88455703Y-133535196D01*
X88515039Y-133300883D01*
X88534999Y-133059999D01*
X89808000Y-133059999D01*
X89827960Y-133300883D01*
X89827960Y-133300886D01*
X89827961Y-133300887D01*
X89887295Y-133535194D01*
X89984388Y-133756545D01*
X89984390Y-133756548D01*
X90116593Y-133958899D01*
X90280298Y-134136730D01*
X90432892Y-134255498D01*
X90471042Y-134285192D01*
X90591721Y-134350500D01*
X90683618Y-134400232D01*
X90912231Y-134478715D01*
X91150644Y-134518499D01*
X91392351Y-134518499D01*
X91392354Y-134518499D01*
X91630767Y-134478715D01*
X91859380Y-134400232D01*
X92071957Y-134285191D01*
X92262700Y-134136730D01*
X92426405Y-133958899D01*
X92558608Y-133756548D01*
X92655702Y-133535196D01*
X92715038Y-133300883D01*
X92734998Y-133059999D01*
X92715038Y-132819115D01*
X92692770Y-132731182D01*
X94220975Y-132731182D01*
X94260079Y-132990615D01*
X94260080Y-132990618D01*
X94337411Y-133241323D01*
X94451247Y-133477704D01*
X94599038Y-133694474D01*
X94599040Y-133694476D01*
X94599042Y-133694479D01*
X94777494Y-133886805D01*
X94982618Y-134050386D01*
X95209832Y-134181568D01*
X95454059Y-134277420D01*
X95709845Y-134335802D01*
X95905981Y-134350500D01*
X96036964Y-134350500D01*
X96036969Y-134350500D01*
X96233105Y-134335802D01*
X96488891Y-134277420D01*
X96733118Y-134181568D01*
X96960332Y-134050386D01*
X97165456Y-133886805D01*
X97343908Y-133694479D01*
X97491703Y-133477704D01*
X97605538Y-133241323D01*
X97682871Y-132990615D01*
X97721975Y-132731182D01*
X99798002Y-132731182D01*
X99837106Y-132990615D01*
X99837107Y-132990618D01*
X99914438Y-133241323D01*
X100028274Y-133477704D01*
X100176065Y-133694474D01*
X100176067Y-133694476D01*
X100176069Y-133694479D01*
X100354521Y-133886805D01*
X100559645Y-134050386D01*
X100786859Y-134181568D01*
X101031086Y-134277420D01*
X101286872Y-134335802D01*
X101483008Y-134350500D01*
X101613991Y-134350500D01*
X101613996Y-134350500D01*
X101810132Y-134335802D01*
X102065918Y-134277420D01*
X102310145Y-134181568D01*
X102537359Y-134050386D01*
X102742483Y-133886805D01*
X102920935Y-133694479D01*
X103068730Y-133477704D01*
X103182565Y-133241323D01*
X103259898Y-132990615D01*
X103299002Y-132731182D01*
X103299002Y-132468818D01*
X103259898Y-132209385D01*
X103190151Y-131983271D01*
X103182565Y-131958676D01*
X103097130Y-131781269D01*
X103068730Y-131722296D01*
X102920935Y-131505521D01*
X102742483Y-131313195D01*
X102537359Y-131149614D01*
X102310145Y-131018432D01*
X102296577Y-131013107D01*
X102065919Y-130922580D01*
X101810133Y-130864198D01*
X101760971Y-130860514D01*
X101613996Y-130849500D01*
X101483008Y-130849500D01*
X101342910Y-130859998D01*
X101286870Y-130864198D01*
X101031084Y-130922580D01*
X100786858Y-131018432D01*
X100559648Y-131149612D01*
X100559645Y-131149614D01*
X100354521Y-131313195D01*
X100301892Y-131369916D01*
X100176065Y-131505525D01*
X100028274Y-131722295D01*
X99914438Y-131958676D01*
X99852001Y-132161095D01*
X99837106Y-132209385D01*
X99798002Y-132468818D01*
X99798002Y-132731182D01*
X97721975Y-132731182D01*
X97721975Y-132468818D01*
X97682871Y-132209385D01*
X97613124Y-131983271D01*
X97605538Y-131958676D01*
X97520103Y-131781269D01*
X97491703Y-131722296D01*
X97343908Y-131505521D01*
X97165456Y-131313195D01*
X96960332Y-131149614D01*
X96733118Y-131018432D01*
X96719550Y-131013107D01*
X96488892Y-130922580D01*
X96233106Y-130864198D01*
X96183944Y-130860514D01*
X96036969Y-130849500D01*
X95905981Y-130849500D01*
X95765883Y-130859998D01*
X95709843Y-130864198D01*
X95454057Y-130922580D01*
X95209831Y-131018432D01*
X94982621Y-131149612D01*
X94982618Y-131149614D01*
X94777494Y-131313195D01*
X94724865Y-131369916D01*
X94599038Y-131505525D01*
X94451247Y-131722295D01*
X94337411Y-131958676D01*
X94274974Y-132161095D01*
X94260079Y-132209385D01*
X94220975Y-132468818D01*
X94220975Y-132731182D01*
X92692770Y-132731182D01*
X92655702Y-132584802D01*
X92558608Y-132363450D01*
X92426405Y-132161099D01*
X92332859Y-132059481D01*
X92262703Y-131983271D01*
X92262702Y-131983270D01*
X92262700Y-131983268D01*
X92148254Y-131894191D01*
X92071955Y-131834805D01*
X91859379Y-131719765D01*
X91704623Y-131666637D01*
X91630767Y-131641283D01*
X91392354Y-131601499D01*
X91150644Y-131601499D01*
X90912231Y-131641283D01*
X90912228Y-131641283D01*
X90912228Y-131641284D01*
X90683618Y-131719765D01*
X90471042Y-131834805D01*
X90280294Y-131983271D01*
X90116596Y-132161095D01*
X89984388Y-132363452D01*
X89887295Y-132584803D01*
X89843610Y-132757314D01*
X89827960Y-132819115D01*
X89808000Y-133059999D01*
X88534999Y-133059999D01*
X88515039Y-132819115D01*
X88455703Y-132584802D01*
X88358609Y-132363450D01*
X88226406Y-132161099D01*
X88132860Y-132059481D01*
X88062704Y-131983271D01*
X88062703Y-131983270D01*
X88062701Y-131983268D01*
X87871958Y-131834807D01*
X87853681Y-131824916D01*
X87773030Y-131781269D01*
X87724759Y-131734953D01*
X87707000Y-131670456D01*
X87707000Y-130716569D01*
X87709300Y-130695730D01*
X87709207Y-130692783D01*
X87709208Y-130692781D01*
X87707061Y-130624487D01*
X87707000Y-130620531D01*
X87707000Y-130592523D01*
X87707000Y-130592517D01*
X87706488Y-130588468D01*
X87705558Y-130576645D01*
X87704165Y-130532295D01*
X87698487Y-130512751D01*
X87694477Y-130493389D01*
X87693095Y-130482449D01*
X87691927Y-130473201D01*
X87675592Y-130431943D01*
X87671748Y-130420716D01*
X87668952Y-130411091D01*
X87659369Y-130378107D01*
X87649004Y-130360582D01*
X87640315Y-130342846D01*
X87632819Y-130323912D01*
X87608164Y-130289977D01*
X87606735Y-130288010D01*
X87600219Y-130278090D01*
X87577635Y-130239903D01*
X87573542Y-130235810D01*
X87563243Y-130225511D01*
X87550407Y-130210482D01*
X87544419Y-130202240D01*
X87538442Y-130194013D01*
X87538441Y-130194012D01*
X87504242Y-130165720D01*
X87495463Y-130157731D01*
X86571327Y-129233595D01*
X86540589Y-129183436D01*
X86535973Y-129124789D01*
X86558486Y-129070439D01*
X86603219Y-129032233D01*
X86660422Y-129018500D01*
X87554578Y-129018500D01*
X87602796Y-129028091D01*
X87643673Y-129055405D01*
X88645184Y-130056917D01*
X88658298Y-130073285D01*
X88710265Y-130122085D01*
X88713106Y-130124839D01*
X88732906Y-130144639D01*
X88736131Y-130147141D01*
X88745150Y-130154844D01*
X88777494Y-130185217D01*
X88795325Y-130195020D01*
X88811849Y-130205874D01*
X88827933Y-130218350D01*
X88868674Y-130235980D01*
X88879313Y-130241193D01*
X88918192Y-130262567D01*
X88918194Y-130262567D01*
X88918197Y-130262569D01*
X88937912Y-130267630D01*
X88956614Y-130274034D01*
X88975292Y-130282117D01*
X89008821Y-130287427D01*
X89019114Y-130289057D01*
X89030741Y-130291465D01*
X89073717Y-130302500D01*
X89073718Y-130302500D01*
X89094066Y-130302500D01*
X89113775Y-130304050D01*
X89133879Y-130307235D01*
X89178055Y-130303059D01*
X89189914Y-130302500D01*
X97324931Y-130302500D01*
X97345769Y-130304800D01*
X97348716Y-130304707D01*
X97348719Y-130304708D01*
X97417012Y-130302561D01*
X97420969Y-130302500D01*
X97448978Y-130302500D01*
X97448983Y-130302500D01*
X97453029Y-130301988D01*
X97464848Y-130301058D01*
X97509205Y-130299665D01*
X97528744Y-130293987D01*
X97548102Y-130289978D01*
X97568299Y-130287427D01*
X97609555Y-130271092D01*
X97620765Y-130267253D01*
X97663393Y-130254869D01*
X97680907Y-130244510D01*
X97698667Y-130235810D01*
X97717586Y-130228320D01*
X97717586Y-130228319D01*
X97717588Y-130228319D01*
X97753499Y-130202227D01*
X97763399Y-130195724D01*
X97801598Y-130173134D01*
X97815986Y-130158745D01*
X97831021Y-130145904D01*
X97847487Y-130133942D01*
X97875788Y-130099729D01*
X97883747Y-130090983D01*
X99667329Y-128307402D01*
X99708204Y-128280091D01*
X99756422Y-128270500D01*
X99788488Y-128270500D01*
X99788490Y-128270500D01*
X99971385Y-128231625D01*
X100142200Y-128155573D01*
X100293470Y-128045669D01*
X100418585Y-127906715D01*
X100512075Y-127744785D01*
X100569855Y-127566956D01*
X100589400Y-127381000D01*
X100569855Y-127195044D01*
X100512075Y-127017215D01*
X100512075Y-127017214D01*
X100418586Y-126855286D01*
X100293469Y-126716330D01*
X100142201Y-126606428D01*
X100142200Y-126606427D01*
X99971385Y-126530375D01*
X99788490Y-126491500D01*
X99601510Y-126491500D01*
X99479580Y-126517416D01*
X99418614Y-126530375D01*
X99247798Y-126606428D01*
X99096530Y-126716330D01*
X98971413Y-126855286D01*
X98877924Y-127017214D01*
X98820145Y-127195041D01*
X98805772Y-127331785D01*
X98794187Y-127372858D01*
X98769557Y-127407708D01*
X97182669Y-128994597D01*
X97141795Y-129021909D01*
X97093577Y-129031500D01*
X92114384Y-129031500D01*
X92050784Y-129014270D01*
X92004577Y-128967294D01*
X91988401Y-128903417D01*
X92006680Y-128840110D01*
X92054414Y-128794687D01*
X92071953Y-128785194D01*
X92071952Y-128785194D01*
X92071957Y-128785192D01*
X92262700Y-128636731D01*
X92426405Y-128458900D01*
X92558608Y-128256549D01*
X92655702Y-128035197D01*
X92715038Y-127800884D01*
X92734998Y-127560000D01*
X92715038Y-127319116D01*
X92655702Y-127084803D01*
X92558608Y-126863451D01*
X92426405Y-126661100D01*
X92262700Y-126483269D01*
X92109201Y-126363796D01*
X92071955Y-126334806D01*
X91859379Y-126219766D01*
X91682695Y-126159111D01*
X91630767Y-126141284D01*
X91392354Y-126101500D01*
X91150644Y-126101500D01*
X90912231Y-126141284D01*
X90912228Y-126141284D01*
X90912228Y-126141285D01*
X90683618Y-126219766D01*
X90471042Y-126334806D01*
X90280294Y-126483272D01*
X90116596Y-126661096D01*
X89984388Y-126863453D01*
X89887295Y-127084804D01*
X89859379Y-127195044D01*
X89827960Y-127319116D01*
X89808000Y-127560000D01*
X89827960Y-127800884D01*
X89827960Y-127800887D01*
X89827961Y-127800888D01*
X89887295Y-128035195D01*
X89984388Y-128256546D01*
X89984390Y-128256549D01*
X90116593Y-128458900D01*
X90116596Y-128458903D01*
X90264159Y-128619200D01*
X90280298Y-128636731D01*
X90462662Y-128778670D01*
X90471044Y-128785194D01*
X90488584Y-128794687D01*
X90536318Y-128840110D01*
X90554597Y-128903417D01*
X90538421Y-128967294D01*
X90492214Y-129014270D01*
X90428614Y-129031500D01*
X89469423Y-129031500D01*
X89421205Y-129021909D01*
X89380327Y-128994595D01*
X88566904Y-128181171D01*
X88539591Y-128140294D01*
X88530000Y-128092076D01*
X88530000Y-126561362D01*
X88529500Y-126556715D01*
X88523489Y-126500799D01*
X88472389Y-126363796D01*
X88450689Y-126334808D01*
X88384761Y-126246738D01*
X88267705Y-126159111D01*
X88166107Y-126121217D01*
X88130701Y-126108011D01*
X88070138Y-126101500D01*
X86072862Y-126101500D01*
X86012299Y-126108011D01*
X85875294Y-126159111D01*
X85758238Y-126246738D01*
X85670611Y-126363794D01*
X85619511Y-126500799D01*
X85613000Y-126561362D01*
X85613000Y-127971078D01*
X85599267Y-128028281D01*
X85561061Y-128073014D01*
X85506711Y-128095527D01*
X85448064Y-128090911D01*
X85397905Y-128060173D01*
X83156328Y-125818595D01*
X83125590Y-125768436D01*
X83120974Y-125709789D01*
X83143487Y-125655439D01*
X83188220Y-125617233D01*
X83245423Y-125603500D01*
X99633578Y-125603500D01*
X99681796Y-125613091D01*
X99722673Y-125640405D01*
X102709230Y-128626964D01*
X102709244Y-128626976D01*
X105576095Y-131493827D01*
X105603409Y-131534704D01*
X105613000Y-131582922D01*
X105613000Y-131670456D01*
X105595241Y-131734953D01*
X105546970Y-131781269D01*
X105448045Y-131834805D01*
X105257295Y-131983271D01*
X105093597Y-132161095D01*
X104961389Y-132363452D01*
X104864296Y-132584803D01*
X104820611Y-132757314D01*
X104804961Y-132819115D01*
X104785001Y-133059999D01*
X104804961Y-133300883D01*
X104804961Y-133300886D01*
X104804962Y-133300887D01*
X104864296Y-133535194D01*
X104961389Y-133756545D01*
X104961391Y-133756548D01*
X105093594Y-133958899D01*
X105257299Y-134136730D01*
X105409893Y-134255498D01*
X105448043Y-134285192D01*
X105568722Y-134350500D01*
X105660619Y-134400232D01*
X105889232Y-134478715D01*
X106127645Y-134518499D01*
X106369352Y-134518499D01*
X106369355Y-134518499D01*
X106607768Y-134478715D01*
X106836381Y-134400232D01*
X107048958Y-134285191D01*
X107239701Y-134136730D01*
X107403406Y-133958899D01*
X107535609Y-133756548D01*
X107632703Y-133535196D01*
X107692039Y-133300883D01*
X107711999Y-133059999D01*
X108985000Y-133059999D01*
X109004960Y-133300883D01*
X109004960Y-133300886D01*
X109004961Y-133300887D01*
X109064295Y-133535194D01*
X109161388Y-133756545D01*
X109161390Y-133756548D01*
X109293593Y-133958899D01*
X109457298Y-134136730D01*
X109609892Y-134255498D01*
X109648042Y-134285192D01*
X109768721Y-134350500D01*
X109860618Y-134400232D01*
X110089231Y-134478715D01*
X110327644Y-134518499D01*
X110569351Y-134518499D01*
X110569354Y-134518499D01*
X110807767Y-134478715D01*
X111036380Y-134400232D01*
X111248957Y-134285191D01*
X111439700Y-134136730D01*
X111603405Y-133958899D01*
X111735608Y-133756548D01*
X111832702Y-133535196D01*
X111892038Y-133300883D01*
X111911998Y-133059999D01*
X111892038Y-132819115D01*
X111869770Y-132731182D01*
X113397975Y-132731182D01*
X113437079Y-132990615D01*
X113437080Y-132990618D01*
X113514411Y-133241323D01*
X113628247Y-133477704D01*
X113776038Y-133694474D01*
X113776040Y-133694476D01*
X113776042Y-133694479D01*
X113954494Y-133886805D01*
X114159618Y-134050386D01*
X114386832Y-134181568D01*
X114631059Y-134277420D01*
X114886845Y-134335802D01*
X115082981Y-134350500D01*
X115213964Y-134350500D01*
X115213969Y-134350500D01*
X115410105Y-134335802D01*
X115665891Y-134277420D01*
X115910118Y-134181568D01*
X116137332Y-134050386D01*
X116342456Y-133886805D01*
X116520908Y-133694479D01*
X116668703Y-133477704D01*
X116782538Y-133241323D01*
X116859871Y-132990615D01*
X116898975Y-132731182D01*
X118975002Y-132731182D01*
X119014106Y-132990615D01*
X119014107Y-132990618D01*
X119091438Y-133241323D01*
X119205274Y-133477704D01*
X119353065Y-133694474D01*
X119353067Y-133694476D01*
X119353069Y-133694479D01*
X119531521Y-133886805D01*
X119736645Y-134050386D01*
X119963859Y-134181568D01*
X120208086Y-134277420D01*
X120463872Y-134335802D01*
X120660008Y-134350500D01*
X120790991Y-134350500D01*
X120790996Y-134350500D01*
X120987132Y-134335802D01*
X121242918Y-134277420D01*
X121487145Y-134181568D01*
X121714359Y-134050386D01*
X121919483Y-133886805D01*
X122097935Y-133694479D01*
X122245730Y-133477704D01*
X122359565Y-133241323D01*
X122436898Y-132990615D01*
X122476002Y-132731182D01*
X122476002Y-132468818D01*
X122436898Y-132209385D01*
X122367151Y-131983271D01*
X122359565Y-131958676D01*
X122274130Y-131781269D01*
X122245730Y-131722296D01*
X122097935Y-131505521D01*
X121919483Y-131313195D01*
X121714359Y-131149614D01*
X121487145Y-131018432D01*
X121473577Y-131013107D01*
X121242919Y-130922580D01*
X120987133Y-130864198D01*
X120937971Y-130860514D01*
X120790996Y-130849500D01*
X120660008Y-130849500D01*
X120519910Y-130859998D01*
X120463870Y-130864198D01*
X120208084Y-130922580D01*
X119963858Y-131018432D01*
X119736648Y-131149612D01*
X119736645Y-131149614D01*
X119531521Y-131313195D01*
X119478892Y-131369916D01*
X119353065Y-131505525D01*
X119205274Y-131722295D01*
X119091438Y-131958676D01*
X119029001Y-132161095D01*
X119014106Y-132209385D01*
X118975002Y-132468818D01*
X118975002Y-132731182D01*
X116898975Y-132731182D01*
X116898975Y-132468818D01*
X116859871Y-132209385D01*
X116790124Y-131983271D01*
X116782538Y-131958676D01*
X116697103Y-131781269D01*
X116668703Y-131722296D01*
X116520908Y-131505521D01*
X116342456Y-131313195D01*
X116137332Y-131149614D01*
X115910118Y-131018432D01*
X115896550Y-131013107D01*
X115665892Y-130922580D01*
X115410106Y-130864198D01*
X115360944Y-130860514D01*
X115213969Y-130849500D01*
X115082981Y-130849500D01*
X114942883Y-130859998D01*
X114886843Y-130864198D01*
X114631057Y-130922580D01*
X114386831Y-131018432D01*
X114159621Y-131149612D01*
X114159618Y-131149614D01*
X113954494Y-131313195D01*
X113901865Y-131369916D01*
X113776038Y-131505525D01*
X113628247Y-131722295D01*
X113514411Y-131958676D01*
X113451974Y-132161095D01*
X113437079Y-132209385D01*
X113397975Y-132468818D01*
X113397975Y-132731182D01*
X111869770Y-132731182D01*
X111832702Y-132584802D01*
X111735608Y-132363450D01*
X111603405Y-132161099D01*
X111509859Y-132059481D01*
X111439703Y-131983271D01*
X111439702Y-131983270D01*
X111439700Y-131983268D01*
X111325254Y-131894191D01*
X111248955Y-131834805D01*
X111036379Y-131719765D01*
X110881623Y-131666637D01*
X110807767Y-131641283D01*
X110569354Y-131601499D01*
X110327644Y-131601499D01*
X110089231Y-131641283D01*
X110089228Y-131641283D01*
X110089228Y-131641284D01*
X109860618Y-131719765D01*
X109648042Y-131834805D01*
X109457294Y-131983271D01*
X109293596Y-132161095D01*
X109161388Y-132363452D01*
X109064295Y-132584803D01*
X109020610Y-132757314D01*
X109004960Y-132819115D01*
X108985000Y-133059999D01*
X107711999Y-133059999D01*
X107692039Y-132819115D01*
X107632703Y-132584802D01*
X107535609Y-132363450D01*
X107403406Y-132161099D01*
X107309860Y-132059481D01*
X107239704Y-131983271D01*
X107239703Y-131983270D01*
X107239701Y-131983268D01*
X107048958Y-131834807D01*
X107030681Y-131824916D01*
X106950030Y-131781269D01*
X106901759Y-131734953D01*
X106884000Y-131670456D01*
X106884000Y-131351569D01*
X106886300Y-131330730D01*
X106886207Y-131327783D01*
X106886208Y-131327781D01*
X106884061Y-131259487D01*
X106884000Y-131255531D01*
X106884000Y-131227523D01*
X106884000Y-131227517D01*
X106883488Y-131223468D01*
X106882558Y-131211645D01*
X106881165Y-131167295D01*
X106876028Y-131149614D01*
X106875487Y-131147751D01*
X106871477Y-131128389D01*
X106868927Y-131108201D01*
X106852592Y-131066943D01*
X106848748Y-131055716D01*
X106841771Y-131031701D01*
X106836369Y-131013107D01*
X106826004Y-130995582D01*
X106817315Y-130977846D01*
X106809819Y-130958912D01*
X106783739Y-130923016D01*
X106777223Y-130913096D01*
X106754635Y-130874902D01*
X106754634Y-130874901D01*
X106740240Y-130860507D01*
X106727404Y-130845477D01*
X106715443Y-130829014D01*
X106681248Y-130800725D01*
X106672469Y-130792736D01*
X105108427Y-129228693D01*
X105076882Y-129175958D01*
X105074032Y-129114575D01*
X105100553Y-129059143D01*
X105150138Y-129022847D01*
X105210987Y-129014320D01*
X105249862Y-129018500D01*
X107247138Y-129018500D01*
X107307701Y-129011989D01*
X107444704Y-128960889D01*
X107561761Y-128873261D01*
X107649389Y-128756204D01*
X107700489Y-128619201D01*
X107707000Y-128558638D01*
X107707000Y-127560000D01*
X108985000Y-127560000D01*
X109004960Y-127800884D01*
X109004960Y-127800887D01*
X109004961Y-127800888D01*
X109064295Y-128035195D01*
X109161388Y-128256546D01*
X109161390Y-128256549D01*
X109293593Y-128458900D01*
X109293596Y-128458903D01*
X109441159Y-128619200D01*
X109457298Y-128636731D01*
X109587143Y-128737793D01*
X109648042Y-128785193D01*
X109810778Y-128873261D01*
X109860618Y-128900233D01*
X110089231Y-128978716D01*
X110327644Y-129018500D01*
X110569351Y-129018500D01*
X110569354Y-129018500D01*
X110807767Y-128978716D01*
X111036380Y-128900233D01*
X111248957Y-128785192D01*
X111439700Y-128636731D01*
X111603405Y-128458900D01*
X111735608Y-128256549D01*
X111832702Y-128035197D01*
X111892038Y-127800884D01*
X111911998Y-127560000D01*
X111892038Y-127319116D01*
X111832702Y-127084803D01*
X111735608Y-126863451D01*
X111603405Y-126661100D01*
X111439700Y-126483269D01*
X111286201Y-126363796D01*
X111248955Y-126334806D01*
X111036379Y-126219766D01*
X110859695Y-126159111D01*
X110807767Y-126141284D01*
X110569354Y-126101500D01*
X110327644Y-126101500D01*
X110089231Y-126141284D01*
X110089228Y-126141284D01*
X110089228Y-126141285D01*
X109860618Y-126219766D01*
X109648042Y-126334806D01*
X109457294Y-126483272D01*
X109293596Y-126661096D01*
X109161388Y-126863453D01*
X109064295Y-127084804D01*
X109036379Y-127195044D01*
X109004960Y-127319116D01*
X108985000Y-127560000D01*
X107707000Y-127560000D01*
X107707000Y-126561362D01*
X107700489Y-126500799D01*
X107649389Y-126363796D01*
X107627689Y-126334808D01*
X107561761Y-126246738D01*
X107444705Y-126159111D01*
X107343107Y-126121217D01*
X107307701Y-126108011D01*
X107247138Y-126101500D01*
X105249862Y-126101500D01*
X105189299Y-126108011D01*
X105052294Y-126159111D01*
X104935238Y-126246738D01*
X104847611Y-126363794D01*
X104796511Y-126500799D01*
X104790000Y-126561362D01*
X104790000Y-128558638D01*
X104794179Y-128597508D01*
X104785651Y-128658363D01*
X104749355Y-128707947D01*
X104693924Y-128734467D01*
X104632540Y-128731617D01*
X104579806Y-128700072D01*
X103540169Y-127660435D01*
X103540150Y-127660418D01*
X101063328Y-125183595D01*
X101032590Y-125133436D01*
X101027974Y-125074789D01*
X101050487Y-125020439D01*
X101095220Y-124982233D01*
X101152423Y-124968500D01*
X117286578Y-124968500D01*
X117334796Y-124978091D01*
X117375673Y-125005405D01*
X122808184Y-130437917D01*
X122821298Y-130454285D01*
X122873265Y-130503085D01*
X122876106Y-130505839D01*
X122895906Y-130525639D01*
X122899131Y-130528141D01*
X122908149Y-130535843D01*
X122940494Y-130566217D01*
X122958330Y-130576023D01*
X122974852Y-130586876D01*
X122982124Y-130592517D01*
X122990934Y-130599350D01*
X123031661Y-130616974D01*
X123042304Y-130622187D01*
X123051322Y-130627145D01*
X123081199Y-130643570D01*
X123100908Y-130648630D01*
X123119613Y-130655033D01*
X123138293Y-130663117D01*
X123182126Y-130670059D01*
X123193721Y-130672459D01*
X123236718Y-130683500D01*
X123257067Y-130683500D01*
X123276776Y-130685050D01*
X123296880Y-130688235D01*
X123341055Y-130684059D01*
X123352914Y-130683500D01*
X124017577Y-130683500D01*
X124065795Y-130693091D01*
X124106673Y-130720405D01*
X124803596Y-131417329D01*
X124830909Y-131458206D01*
X124840500Y-131506424D01*
X124840500Y-131643127D01*
X124822741Y-131707625D01*
X124774469Y-131753941D01*
X124625043Y-131834805D01*
X124434295Y-131983271D01*
X124270597Y-132161095D01*
X124138389Y-132363452D01*
X124041296Y-132584803D01*
X123997611Y-132757314D01*
X123981961Y-132819115D01*
X123962001Y-133059999D01*
X123981961Y-133300883D01*
X123981961Y-133300886D01*
X123981962Y-133300887D01*
X124041296Y-133535194D01*
X124138389Y-133756545D01*
X124138391Y-133756548D01*
X124270594Y-133958899D01*
X124434299Y-134136730D01*
X124586893Y-134255498D01*
X124625043Y-134285192D01*
X124745722Y-134350500D01*
X124837619Y-134400232D01*
X125066232Y-134478715D01*
X125304645Y-134518499D01*
X125546352Y-134518499D01*
X125546355Y-134518499D01*
X125784768Y-134478715D01*
X126013381Y-134400232D01*
X126225958Y-134285191D01*
X126416701Y-134136730D01*
X126580406Y-133958899D01*
X126712609Y-133756548D01*
X126809703Y-133535196D01*
X126869039Y-133300883D01*
X126888999Y-133059999D01*
X128162000Y-133059999D01*
X128181960Y-133300883D01*
X128181960Y-133300886D01*
X128181961Y-133300887D01*
X128241295Y-133535194D01*
X128338388Y-133756545D01*
X128338390Y-133756548D01*
X128470593Y-133958899D01*
X128634298Y-134136730D01*
X128786892Y-134255498D01*
X128825042Y-134285192D01*
X128945721Y-134350500D01*
X129037618Y-134400232D01*
X129266231Y-134478715D01*
X129504644Y-134518499D01*
X129746351Y-134518499D01*
X129746354Y-134518499D01*
X129984767Y-134478715D01*
X130213380Y-134400232D01*
X130425957Y-134285191D01*
X130616700Y-134136730D01*
X130780405Y-133958899D01*
X130912608Y-133756548D01*
X131009702Y-133535196D01*
X131069038Y-133300883D01*
X131088998Y-133059999D01*
X131069038Y-132819115D01*
X131046770Y-132731182D01*
X132574975Y-132731182D01*
X132614079Y-132990615D01*
X132614080Y-132990618D01*
X132691411Y-133241323D01*
X132805247Y-133477704D01*
X132953038Y-133694474D01*
X132953040Y-133694476D01*
X132953042Y-133694479D01*
X133131494Y-133886805D01*
X133336618Y-134050386D01*
X133563832Y-134181568D01*
X133808059Y-134277420D01*
X134063845Y-134335802D01*
X134259981Y-134350500D01*
X134390964Y-134350500D01*
X134390969Y-134350500D01*
X134587105Y-134335802D01*
X134842891Y-134277420D01*
X135087118Y-134181568D01*
X135314332Y-134050386D01*
X135519456Y-133886805D01*
X135697908Y-133694479D01*
X135845703Y-133477704D01*
X135959538Y-133241323D01*
X136036871Y-132990615D01*
X136075975Y-132731182D01*
X138202502Y-132731182D01*
X138241606Y-132990615D01*
X138241607Y-132990618D01*
X138318938Y-133241323D01*
X138432774Y-133477704D01*
X138580565Y-133694474D01*
X138580567Y-133694476D01*
X138580569Y-133694479D01*
X138759021Y-133886805D01*
X138964145Y-134050386D01*
X139191359Y-134181568D01*
X139435586Y-134277420D01*
X139691372Y-134335802D01*
X139887508Y-134350500D01*
X140018491Y-134350500D01*
X140018496Y-134350500D01*
X140214632Y-134335802D01*
X140470418Y-134277420D01*
X140714645Y-134181568D01*
X140941859Y-134050386D01*
X141146983Y-133886805D01*
X141325435Y-133694479D01*
X141473230Y-133477704D01*
X141587065Y-133241323D01*
X141664398Y-132990615D01*
X141703502Y-132731182D01*
X141703502Y-132468818D01*
X141664398Y-132209385D01*
X141594651Y-131983271D01*
X141587065Y-131958676D01*
X141501630Y-131781269D01*
X141473230Y-131722296D01*
X141325435Y-131505521D01*
X141146983Y-131313195D01*
X140941859Y-131149614D01*
X140714645Y-131018432D01*
X140701077Y-131013107D01*
X140470419Y-130922580D01*
X140214633Y-130864198D01*
X140165471Y-130860514D01*
X140018496Y-130849500D01*
X139887508Y-130849500D01*
X139747410Y-130859998D01*
X139691370Y-130864198D01*
X139435584Y-130922580D01*
X139191358Y-131018432D01*
X138964148Y-131149612D01*
X138964145Y-131149614D01*
X138759021Y-131313195D01*
X138706392Y-131369916D01*
X138580565Y-131505525D01*
X138432774Y-131722295D01*
X138318938Y-131958676D01*
X138256501Y-132161095D01*
X138241606Y-132209385D01*
X138202502Y-132468818D01*
X138202502Y-132731182D01*
X136075975Y-132731182D01*
X136075975Y-132468818D01*
X136036871Y-132209385D01*
X135967124Y-131983271D01*
X135959538Y-131958676D01*
X135874103Y-131781269D01*
X135845703Y-131722296D01*
X135697908Y-131505521D01*
X135519456Y-131313195D01*
X135314332Y-131149614D01*
X135087118Y-131018432D01*
X135073550Y-131013107D01*
X134842892Y-130922580D01*
X134587106Y-130864198D01*
X134537944Y-130860514D01*
X134390969Y-130849500D01*
X134259981Y-130849500D01*
X134119883Y-130859998D01*
X134063843Y-130864198D01*
X133808057Y-130922580D01*
X133563831Y-131018432D01*
X133336621Y-131149612D01*
X133336618Y-131149614D01*
X133131494Y-131313195D01*
X133078865Y-131369916D01*
X132953038Y-131505525D01*
X132805247Y-131722295D01*
X132691411Y-131958676D01*
X132628974Y-132161095D01*
X132614079Y-132209385D01*
X132574975Y-132468818D01*
X132574975Y-132731182D01*
X131046770Y-132731182D01*
X131009702Y-132584802D01*
X130912608Y-132363450D01*
X130780405Y-132161099D01*
X130686859Y-132059481D01*
X130616703Y-131983271D01*
X130616702Y-131983270D01*
X130616700Y-131983268D01*
X130502254Y-131894191D01*
X130425955Y-131834805D01*
X130213379Y-131719765D01*
X130058623Y-131666637D01*
X129984767Y-131641283D01*
X129746354Y-131601499D01*
X129504644Y-131601499D01*
X129266231Y-131641283D01*
X129266228Y-131641283D01*
X129266228Y-131641284D01*
X129037618Y-131719765D01*
X128825042Y-131834805D01*
X128634294Y-131983271D01*
X128470596Y-132161095D01*
X128338388Y-132363452D01*
X128241295Y-132584803D01*
X128197610Y-132757314D01*
X128181960Y-132819115D01*
X128162000Y-133059999D01*
X126888999Y-133059999D01*
X126869039Y-132819115D01*
X126809703Y-132584802D01*
X126712609Y-132363450D01*
X126580406Y-132161099D01*
X126486860Y-132059481D01*
X126416704Y-131983271D01*
X126416703Y-131983270D01*
X126416701Y-131983268D01*
X126225958Y-131834807D01*
X126216832Y-131829868D01*
X126177529Y-131808598D01*
X126129259Y-131762282D01*
X126111500Y-131697785D01*
X126111500Y-131275069D01*
X126113800Y-131254230D01*
X126113707Y-131251283D01*
X126113708Y-131251281D01*
X126111561Y-131182987D01*
X126111500Y-131179031D01*
X126111500Y-131151023D01*
X126111500Y-131151017D01*
X126110988Y-131146968D01*
X126110058Y-131135145D01*
X126109846Y-131128389D01*
X126108665Y-131090795D01*
X126102987Y-131071251D01*
X126098977Y-131051889D01*
X126096427Y-131031701D01*
X126080092Y-130990443D01*
X126076248Y-130979216D01*
X126070349Y-130958912D01*
X126063869Y-130936607D01*
X126053504Y-130919082D01*
X126044815Y-130901346D01*
X126037319Y-130882412D01*
X126011235Y-130846510D01*
X126004719Y-130836590D01*
X125982135Y-130798403D01*
X125976468Y-130792736D01*
X125967743Y-130784011D01*
X125954907Y-130768982D01*
X125942941Y-130752512D01*
X125908743Y-130724221D01*
X125899964Y-130716232D01*
X124841816Y-129658083D01*
X124828705Y-129641717D01*
X124776735Y-129592915D01*
X124773922Y-129590189D01*
X124754094Y-129570361D01*
X124753556Y-129569944D01*
X124750873Y-129567862D01*
X124741849Y-129560155D01*
X124709506Y-129529783D01*
X124709503Y-129529781D01*
X124691672Y-129519978D01*
X124675154Y-129509128D01*
X124659067Y-129496650D01*
X124618336Y-129479024D01*
X124607678Y-129473802D01*
X124568802Y-129452430D01*
X124549086Y-129447368D01*
X124530380Y-129440963D01*
X124511709Y-129432883D01*
X124467873Y-129425940D01*
X124456250Y-129423532D01*
X124413284Y-129412500D01*
X124413282Y-129412500D01*
X124392934Y-129412500D01*
X124373224Y-129410949D01*
X124353121Y-129407765D01*
X124353120Y-129407765D01*
X124308944Y-129411941D01*
X124297086Y-129412500D01*
X123632423Y-129412500D01*
X123584205Y-129402909D01*
X123543328Y-129375595D01*
X122726371Y-128558638D01*
X123967000Y-128558638D01*
X123973511Y-128619201D01*
X123988118Y-128658363D01*
X124024611Y-128756205D01*
X124112238Y-128873261D01*
X124229294Y-128960888D01*
X124229295Y-128960888D01*
X124229296Y-128960889D01*
X124366299Y-129011989D01*
X124426862Y-129018500D01*
X126424138Y-129018500D01*
X126484701Y-129011989D01*
X126621704Y-128960889D01*
X126738761Y-128873261D01*
X126826389Y-128756204D01*
X126877489Y-128619201D01*
X126884000Y-128558638D01*
X126884000Y-127560000D01*
X128162000Y-127560000D01*
X128181960Y-127800884D01*
X128181960Y-127800887D01*
X128181961Y-127800888D01*
X128241295Y-128035195D01*
X128338388Y-128256546D01*
X128338390Y-128256549D01*
X128470593Y-128458900D01*
X128470596Y-128458903D01*
X128618159Y-128619200D01*
X128634298Y-128636731D01*
X128764143Y-128737793D01*
X128825042Y-128785193D01*
X128987778Y-128873261D01*
X129037618Y-128900233D01*
X129266231Y-128978716D01*
X129504644Y-129018500D01*
X129746351Y-129018500D01*
X129746354Y-129018500D01*
X129984767Y-128978716D01*
X130213380Y-128900233D01*
X130425957Y-128785192D01*
X130616700Y-128636731D01*
X130780405Y-128458900D01*
X130912608Y-128256549D01*
X131009702Y-128035197D01*
X131069038Y-127800884D01*
X131088998Y-127560000D01*
X131069038Y-127319116D01*
X131009702Y-127084803D01*
X130912608Y-126863451D01*
X130780405Y-126661100D01*
X130616700Y-126483269D01*
X130463201Y-126363796D01*
X130425955Y-126334806D01*
X130213379Y-126219766D01*
X130036695Y-126159111D01*
X129984767Y-126141284D01*
X129746354Y-126101500D01*
X129504644Y-126101500D01*
X129266231Y-126141284D01*
X129266228Y-126141284D01*
X129266228Y-126141285D01*
X129037618Y-126219766D01*
X128825042Y-126334806D01*
X128634294Y-126483272D01*
X128470596Y-126661096D01*
X128338388Y-126863453D01*
X128241295Y-127084804D01*
X128213379Y-127195044D01*
X128181960Y-127319116D01*
X128162000Y-127560000D01*
X126884000Y-127560000D01*
X126884000Y-126561362D01*
X126877489Y-126500799D01*
X126826389Y-126363796D01*
X126804689Y-126334808D01*
X126738761Y-126246738D01*
X126621705Y-126159111D01*
X126520107Y-126121217D01*
X126484701Y-126108011D01*
X126424138Y-126101500D01*
X124426862Y-126101500D01*
X124366299Y-126108011D01*
X124229294Y-126159111D01*
X124112238Y-126246738D01*
X124024611Y-126363794D01*
X123984887Y-126470299D01*
X123973511Y-126500799D01*
X123967000Y-126561362D01*
X123967000Y-128558638D01*
X122726371Y-128558638D01*
X118589328Y-124421595D01*
X118558590Y-124371436D01*
X118553974Y-124312789D01*
X118576487Y-124258439D01*
X118621220Y-124220233D01*
X118678423Y-124206500D01*
X137225578Y-124206500D01*
X137273796Y-124216091D01*
X137314673Y-124243405D01*
X143980595Y-130909329D01*
X144007909Y-130950206D01*
X144017500Y-130998424D01*
X144017500Y-131670456D01*
X143999741Y-131734953D01*
X143951470Y-131781269D01*
X143852545Y-131834805D01*
X143661795Y-131983271D01*
X143498097Y-132161095D01*
X143365889Y-132363452D01*
X143268796Y-132584803D01*
X143225111Y-132757314D01*
X143209461Y-132819115D01*
X143189501Y-133059999D01*
X143209461Y-133300883D01*
X143209461Y-133300886D01*
X143209462Y-133300887D01*
X143268796Y-133535194D01*
X143365889Y-133756545D01*
X143365891Y-133756548D01*
X143498094Y-133958899D01*
X143661799Y-134136730D01*
X143814393Y-134255498D01*
X143852543Y-134285192D01*
X143973222Y-134350500D01*
X144065119Y-134400232D01*
X144293732Y-134478715D01*
X144532145Y-134518499D01*
X144773852Y-134518499D01*
X144773855Y-134518499D01*
X145012268Y-134478715D01*
X145240881Y-134400232D01*
X145453458Y-134285191D01*
X145644201Y-134136730D01*
X145807906Y-133958899D01*
X145940109Y-133756548D01*
X146037203Y-133535196D01*
X146096539Y-133300883D01*
X146116499Y-133059999D01*
X147389500Y-133059999D01*
X147409460Y-133300883D01*
X147409460Y-133300886D01*
X147409461Y-133300887D01*
X147468795Y-133535194D01*
X147565888Y-133756545D01*
X147565890Y-133756548D01*
X147698093Y-133958899D01*
X147861798Y-134136730D01*
X148014392Y-134255498D01*
X148052542Y-134285192D01*
X148173221Y-134350500D01*
X148265118Y-134400232D01*
X148493731Y-134478715D01*
X148732144Y-134518499D01*
X148973851Y-134518499D01*
X148973854Y-134518499D01*
X149212267Y-134478715D01*
X149440880Y-134400232D01*
X149653457Y-134285191D01*
X149844200Y-134136730D01*
X150007905Y-133958899D01*
X150140108Y-133756548D01*
X150237202Y-133535196D01*
X150296538Y-133300883D01*
X150316498Y-133059999D01*
X150296538Y-132819115D01*
X150274270Y-132731182D01*
X151802475Y-132731182D01*
X151841579Y-132990615D01*
X151841580Y-132990618D01*
X151918911Y-133241323D01*
X152032747Y-133477704D01*
X152180538Y-133694474D01*
X152180540Y-133694476D01*
X152180542Y-133694479D01*
X152358994Y-133886805D01*
X152564118Y-134050386D01*
X152791332Y-134181568D01*
X153035559Y-134277420D01*
X153291345Y-134335802D01*
X153487481Y-134350500D01*
X153618464Y-134350500D01*
X153618469Y-134350500D01*
X153814605Y-134335802D01*
X154070391Y-134277420D01*
X154314618Y-134181568D01*
X154541832Y-134050386D01*
X154746956Y-133886805D01*
X154925408Y-133694479D01*
X154953071Y-133653905D01*
X157869793Y-133653905D01*
X157879672Y-133961975D01*
X157928866Y-134266260D01*
X157928867Y-134266261D01*
X158003730Y-134518499D01*
X158016570Y-134561758D01*
X158141336Y-134843609D01*
X158301119Y-135107189D01*
X158378476Y-135204191D01*
X158493304Y-135348181D01*
X158714724Y-135562614D01*
X158961748Y-135746973D01*
X159230317Y-135898228D01*
X159384483Y-135960643D01*
X159516025Y-136013899D01*
X159814179Y-136092084D01*
X160119883Y-136131500D01*
X160350974Y-136131500D01*
X160350976Y-136131500D01*
X160581603Y-136116693D01*
X160884146Y-136057773D01*
X160884146Y-136057772D01*
X160884151Y-136057772D01*
X161176683Y-135960644D01*
X161454393Y-135826907D01*
X161712720Y-135658754D01*
X161947424Y-135458948D01*
X162154650Y-135230769D01*
X162330996Y-134977963D01*
X162473567Y-134704683D01*
X162580020Y-134415415D01*
X162648609Y-134114908D01*
X162678206Y-133808098D01*
X162674562Y-133694474D01*
X162668327Y-133500024D01*
X162668327Y-133500022D01*
X162619133Y-133195739D01*
X162531431Y-132900244D01*
X162456211Y-132730322D01*
X162406663Y-132618390D01*
X162246880Y-132354810D01*
X162188861Y-132282057D01*
X162054696Y-132113819D01*
X161833276Y-131899386D01*
X161746745Y-131834806D01*
X161586251Y-131715026D01*
X161317682Y-131563771D01*
X161031976Y-131448101D01*
X160733826Y-131369917D01*
X160733823Y-131369916D01*
X160733821Y-131369916D01*
X160428117Y-131330500D01*
X160197026Y-131330500D01*
X160197024Y-131330500D01*
X159966396Y-131345306D01*
X159663853Y-131404226D01*
X159371314Y-131501356D01*
X159093609Y-131635091D01*
X158835278Y-131803247D01*
X158600576Y-132003052D01*
X158393351Y-132231229D01*
X158217000Y-132484042D01*
X158074434Y-132757314D01*
X157967980Y-133046583D01*
X157899391Y-133347091D01*
X157869793Y-133653905D01*
X154953071Y-133653905D01*
X155073203Y-133477704D01*
X155187038Y-133241323D01*
X155264371Y-132990615D01*
X155303475Y-132731182D01*
X155303475Y-132468818D01*
X155264371Y-132209385D01*
X155194624Y-131983271D01*
X155187038Y-131958676D01*
X155101603Y-131781269D01*
X155073203Y-131722296D01*
X154925408Y-131505521D01*
X154746956Y-131313195D01*
X154541832Y-131149614D01*
X154314618Y-131018432D01*
X154301050Y-131013107D01*
X154070392Y-130922580D01*
X153814606Y-130864198D01*
X153765444Y-130860514D01*
X153618469Y-130849500D01*
X153487481Y-130849500D01*
X153347383Y-130859998D01*
X153291343Y-130864198D01*
X153035557Y-130922580D01*
X152791331Y-131018432D01*
X152564121Y-131149612D01*
X152564118Y-131149614D01*
X152358994Y-131313195D01*
X152306365Y-131369916D01*
X152180538Y-131505525D01*
X152032747Y-131722295D01*
X151918911Y-131958676D01*
X151856474Y-132161095D01*
X151841579Y-132209385D01*
X151802475Y-132468818D01*
X151802475Y-132731182D01*
X150274270Y-132731182D01*
X150252700Y-132646002D01*
X150253366Y-132581624D01*
X150285748Y-132525980D01*
X153297915Y-129513813D01*
X153314284Y-129500700D01*
X153316300Y-129498552D01*
X153316303Y-129498551D01*
X153363118Y-129448696D01*
X153365809Y-129445919D01*
X153385638Y-129426092D01*
X153388129Y-129422880D01*
X153395818Y-129413875D01*
X153426217Y-129381504D01*
X153436025Y-129363662D01*
X153446872Y-129347148D01*
X153459349Y-129331065D01*
X153476980Y-129290320D01*
X153482177Y-129279710D01*
X153503569Y-129240801D01*
X153508631Y-129221081D01*
X153515033Y-129202385D01*
X153523117Y-129183706D01*
X153530057Y-129139881D01*
X153532462Y-129128263D01*
X153543500Y-129085280D01*
X153543500Y-129064932D01*
X153545051Y-129045221D01*
X153548235Y-129025119D01*
X153544059Y-128980942D01*
X153543500Y-128969084D01*
X153543500Y-122554500D01*
X153560381Y-122491500D01*
X153606500Y-122445381D01*
X153669500Y-122428500D01*
X157278337Y-122428500D01*
X157327937Y-122438673D01*
X157369528Y-122467550D01*
X157396393Y-122510468D01*
X157407111Y-122539205D01*
X157494738Y-122656261D01*
X157611794Y-122743888D01*
X157611795Y-122743888D01*
X157611796Y-122743889D01*
X157748799Y-122794989D01*
X157809362Y-122801500D01*
X159006638Y-122801500D01*
X159067201Y-122794989D01*
X159204204Y-122743889D01*
X159204204Y-122743888D01*
X159214681Y-122739981D01*
X159258714Y-122732036D01*
X159302746Y-122739980D01*
X159448906Y-122794494D01*
X159509411Y-122801000D01*
X159854000Y-122801000D01*
X159854000Y-122047000D01*
X160362000Y-122047000D01*
X160362000Y-122801000D01*
X160706589Y-122801000D01*
X160767093Y-122794494D01*
X160903962Y-122743445D01*
X161020904Y-122655904D01*
X161108445Y-122538962D01*
X161159494Y-122402093D01*
X161166000Y-122341589D01*
X161166000Y-122047000D01*
X160362000Y-122047000D01*
X159854000Y-122047000D01*
X159854000Y-120785000D01*
X160362000Y-120785000D01*
X160362000Y-121539000D01*
X161166000Y-121539000D01*
X161166000Y-121244411D01*
X161159494Y-121183906D01*
X161108445Y-121047037D01*
X161020904Y-120930095D01*
X160903962Y-120842554D01*
X160767093Y-120791505D01*
X160706589Y-120785000D01*
X160362000Y-120785000D01*
X159854000Y-120785000D01*
X159509411Y-120785000D01*
X159448906Y-120791505D01*
X159302747Y-120846019D01*
X159258715Y-120853963D01*
X159214683Y-120846019D01*
X159129859Y-120814381D01*
X159067201Y-120791011D01*
X159006638Y-120784500D01*
X157809362Y-120784500D01*
X157748799Y-120791011D01*
X157611794Y-120842111D01*
X157494738Y-120929738D01*
X157407111Y-121046794D01*
X157396393Y-121075532D01*
X157369528Y-121118450D01*
X157327937Y-121147327D01*
X157278337Y-121157500D01*
X153669500Y-121157500D01*
X153606500Y-121140619D01*
X153560381Y-121094500D01*
X153543500Y-121031500D01*
X153543500Y-120584422D01*
X153553091Y-120536204D01*
X153580405Y-120495327D01*
X155928328Y-118147405D01*
X155969205Y-118120091D01*
X156017423Y-118110500D01*
X157668607Y-118110500D01*
X157718207Y-118120673D01*
X157759798Y-118149550D01*
X157786663Y-118192468D01*
X157801111Y-118231205D01*
X157888738Y-118348261D01*
X158005794Y-118435888D01*
X158005795Y-118435888D01*
X158005796Y-118435889D01*
X158142799Y-118486989D01*
X158203362Y-118493500D01*
X159240638Y-118493500D01*
X159301201Y-118486989D01*
X159438204Y-118435889D01*
X159438207Y-118435886D01*
X159444195Y-118433653D01*
X159485213Y-118414919D01*
X159538782Y-118414919D01*
X159579817Y-118433659D01*
X159585796Y-118435889D01*
X159722799Y-118486989D01*
X159783362Y-118493500D01*
X160820638Y-118493500D01*
X160881201Y-118486989D01*
X161018204Y-118435889D01*
X161135261Y-118348261D01*
X161222889Y-118231204D01*
X161273989Y-118094201D01*
X161280500Y-118033638D01*
X161280500Y-116916362D01*
X161273989Y-116855799D01*
X161222889Y-116718796D01*
X161222888Y-116718794D01*
X161135261Y-116601738D01*
X161018205Y-116514111D01*
X160991468Y-116504139D01*
X160948550Y-116477274D01*
X160919673Y-116435683D01*
X160909500Y-116386083D01*
X160909500Y-116289069D01*
X160911800Y-116268230D01*
X160911707Y-116265283D01*
X160911708Y-116265281D01*
X160909561Y-116196987D01*
X160909500Y-116193031D01*
X160909500Y-116165023D01*
X160909500Y-116165017D01*
X160908988Y-116160968D01*
X160908058Y-116149145D01*
X160907947Y-116145604D01*
X160906665Y-116104795D01*
X160900987Y-116085251D01*
X160896977Y-116065889D01*
X160894427Y-116045701D01*
X160878092Y-116004443D01*
X160874248Y-115993216D01*
X160867691Y-115970647D01*
X160861869Y-115950607D01*
X160851504Y-115933082D01*
X160842815Y-115915346D01*
X160835319Y-115896412D01*
X160809235Y-115860510D01*
X160802719Y-115850590D01*
X160780135Y-115812403D01*
X160780134Y-115812402D01*
X160765743Y-115798011D01*
X160752907Y-115782982D01*
X160740942Y-115766513D01*
X160706743Y-115738221D01*
X160697964Y-115730232D01*
X158796360Y-113828627D01*
X158764558Y-113775028D01*
X158762335Y-113712745D01*
X158790235Y-113657015D01*
X158841428Y-113621475D01*
X158843804Y-113620589D01*
X158847438Y-113617869D01*
X158960861Y-113532961D01*
X158978871Y-113508902D01*
X159048489Y-113415904D01*
X159099589Y-113278901D01*
X159106100Y-113218338D01*
X159106100Y-112776000D01*
X160172400Y-112776000D01*
X160172400Y-113218289D01*
X160178905Y-113278793D01*
X160229954Y-113415662D01*
X160317495Y-113532604D01*
X160434437Y-113620145D01*
X160571306Y-113671194D01*
X160631811Y-113677700D01*
X160909000Y-113677700D01*
X160909000Y-112776000D01*
X161417000Y-112776000D01*
X161417000Y-113677700D01*
X161694189Y-113677700D01*
X161754693Y-113671194D01*
X161891562Y-113620145D01*
X162008504Y-113532604D01*
X162096045Y-113415662D01*
X162147094Y-113278793D01*
X162153600Y-113218289D01*
X162153600Y-112776000D01*
X161417000Y-112776000D01*
X160909000Y-112776000D01*
X160172400Y-112776000D01*
X159106100Y-112776000D01*
X159106100Y-112268000D01*
X160172400Y-112268000D01*
X160909000Y-112268000D01*
X160909000Y-111366300D01*
X161417000Y-111366300D01*
X161417000Y-112268000D01*
X162153600Y-112268000D01*
X162153600Y-111825711D01*
X162147094Y-111765206D01*
X162096045Y-111628337D01*
X162008504Y-111511395D01*
X161891562Y-111423854D01*
X161754693Y-111372805D01*
X161694189Y-111366300D01*
X161417000Y-111366300D01*
X160909000Y-111366300D01*
X160631811Y-111366300D01*
X160571306Y-111372805D01*
X160434437Y-111423854D01*
X160317495Y-111511395D01*
X160229954Y-111628337D01*
X160178905Y-111765206D01*
X160172400Y-111825711D01*
X160172400Y-112268000D01*
X159106100Y-112268000D01*
X159106100Y-111825662D01*
X159099589Y-111765099D01*
X159048489Y-111628096D01*
X158994333Y-111555752D01*
X158960861Y-111511038D01*
X158843805Y-111423411D01*
X158775302Y-111397861D01*
X158706801Y-111372311D01*
X158646238Y-111365800D01*
X157583762Y-111365800D01*
X157523199Y-111372311D01*
X157386194Y-111423411D01*
X157269138Y-111511038D01*
X157181511Y-111628094D01*
X157130411Y-111765099D01*
X157123900Y-111825662D01*
X157123900Y-113218338D01*
X157130411Y-113278900D01*
X157181511Y-113415905D01*
X157269138Y-113532961D01*
X157386194Y-113620588D01*
X157386195Y-113620588D01*
X157386196Y-113620589D01*
X157388569Y-113621474D01*
X157397531Y-113624817D01*
X157440449Y-113651682D01*
X157469327Y-113693273D01*
X157479500Y-113742873D01*
X157479500Y-113961931D01*
X157477199Y-113982769D01*
X157479438Y-114054011D01*
X157479500Y-114057969D01*
X157479500Y-114085983D01*
X157480011Y-114090032D01*
X157480940Y-114101848D01*
X157482334Y-114146205D01*
X157488014Y-114165755D01*
X157492022Y-114185110D01*
X157494572Y-114205296D01*
X157510906Y-114246552D01*
X157514749Y-114257779D01*
X157527130Y-114300392D01*
X157537492Y-114317914D01*
X157546189Y-114335667D01*
X157553680Y-114354587D01*
X157579764Y-114390489D01*
X157586275Y-114400401D01*
X157608866Y-114438598D01*
X157623254Y-114452986D01*
X157636092Y-114468017D01*
X157648058Y-114484487D01*
X157682253Y-114512775D01*
X157691034Y-114520766D01*
X159421249Y-116250982D01*
X159454458Y-116309785D01*
X159452533Y-116377290D01*
X159416028Y-116434105D01*
X159355428Y-116463909D01*
X159317372Y-116460646D01*
X159316936Y-116464703D01*
X159301202Y-116463011D01*
X159301201Y-116463011D01*
X159240638Y-116456500D01*
X158203362Y-116456500D01*
X158142799Y-116463011D01*
X158005794Y-116514111D01*
X157888738Y-116601738D01*
X157801111Y-116718794D01*
X157786663Y-116757532D01*
X157759798Y-116800450D01*
X157718207Y-116829327D01*
X157668607Y-116839500D01*
X155786074Y-116839500D01*
X155765228Y-116837198D01*
X155693970Y-116839438D01*
X155690012Y-116839500D01*
X155662015Y-116839500D01*
X155657975Y-116840010D01*
X155646154Y-116840940D01*
X155601794Y-116842334D01*
X155582243Y-116848014D01*
X155562894Y-116852021D01*
X155542699Y-116854573D01*
X155501441Y-116870907D01*
X155490218Y-116874750D01*
X155447607Y-116887130D01*
X155430083Y-116897494D01*
X155412337Y-116906187D01*
X155393413Y-116913680D01*
X155357512Y-116939763D01*
X155347594Y-116946277D01*
X155309402Y-116968864D01*
X155295003Y-116983262D01*
X155279978Y-116996094D01*
X155263513Y-117008057D01*
X155235220Y-117042256D01*
X155227233Y-117051032D01*
X152518078Y-119760187D01*
X152501711Y-119773301D01*
X152452928Y-119825249D01*
X152450178Y-119828087D01*
X152430356Y-119847909D01*
X152427852Y-119851138D01*
X152420157Y-119860147D01*
X152389780Y-119892496D01*
X152379974Y-119910333D01*
X152369125Y-119926849D01*
X152356649Y-119942933D01*
X152339022Y-119983664D01*
X152333804Y-119994316D01*
X152312430Y-120033197D01*
X152307370Y-120052906D01*
X152300967Y-120071608D01*
X152292883Y-120090289D01*
X152285941Y-120134119D01*
X152283534Y-120145740D01*
X152272500Y-120188718D01*
X152272500Y-120209066D01*
X152270949Y-120228777D01*
X152267765Y-120248879D01*
X152271941Y-120293056D01*
X152272500Y-120304914D01*
X152272500Y-121860066D01*
X152270949Y-121879777D01*
X152267765Y-121899879D01*
X152271941Y-121944056D01*
X152272500Y-121955914D01*
X152272500Y-128689575D01*
X152262909Y-128737793D01*
X152235595Y-128778670D01*
X149387524Y-131626739D01*
X149326830Y-131660402D01*
X149257518Y-131656817D01*
X149212272Y-131641284D01*
X149212267Y-131641283D01*
X148973854Y-131601499D01*
X148732144Y-131601499D01*
X148493731Y-131641283D01*
X148493728Y-131641283D01*
X148493728Y-131641284D01*
X148265118Y-131719765D01*
X148052542Y-131834805D01*
X147861794Y-131983271D01*
X147698096Y-132161095D01*
X147565888Y-132363452D01*
X147468795Y-132584803D01*
X147425110Y-132757314D01*
X147409460Y-132819115D01*
X147402738Y-132900241D01*
X147390612Y-133046585D01*
X147389500Y-133059999D01*
X146116499Y-133059999D01*
X146096539Y-132819115D01*
X146037203Y-132584802D01*
X145940109Y-132363450D01*
X145807906Y-132161099D01*
X145714360Y-132059481D01*
X145644204Y-131983271D01*
X145644203Y-131983270D01*
X145644201Y-131983268D01*
X145453458Y-131834807D01*
X145435181Y-131824916D01*
X145354530Y-131781269D01*
X145306259Y-131734953D01*
X145288500Y-131670456D01*
X145288500Y-130767069D01*
X145290800Y-130746230D01*
X145290707Y-130743283D01*
X145290708Y-130743281D01*
X145288561Y-130674987D01*
X145288500Y-130671031D01*
X145288500Y-130643023D01*
X145288500Y-130643017D01*
X145287988Y-130638968D01*
X145287058Y-130627145D01*
X145286975Y-130624489D01*
X145285665Y-130582795D01*
X145281371Y-130568018D01*
X145279987Y-130563251D01*
X145275977Y-130543889D01*
X145274961Y-130535844D01*
X145273427Y-130523701D01*
X145257092Y-130482443D01*
X145253248Y-130471216D01*
X145240869Y-130428607D01*
X145230504Y-130411082D01*
X145221815Y-130393346D01*
X145214319Y-130374412D01*
X145188239Y-130338516D01*
X145181723Y-130328596D01*
X145159135Y-130290402D01*
X145156159Y-130287426D01*
X145144740Y-130276007D01*
X145131904Y-130260977D01*
X145119942Y-130244513D01*
X145085748Y-130216225D01*
X145076969Y-130208236D01*
X144102328Y-129233595D01*
X144071590Y-129183436D01*
X144066974Y-129124789D01*
X144089487Y-129070439D01*
X144134220Y-129032233D01*
X144191423Y-129018500D01*
X145651638Y-129018500D01*
X145712201Y-129011989D01*
X145849204Y-128960889D01*
X145966261Y-128873261D01*
X146053889Y-128756204D01*
X146104989Y-128619201D01*
X146111500Y-128558638D01*
X146111500Y-127560000D01*
X147389500Y-127560000D01*
X147409460Y-127800884D01*
X147409460Y-127800887D01*
X147409461Y-127800888D01*
X147468795Y-128035195D01*
X147565888Y-128256546D01*
X147565890Y-128256549D01*
X147698093Y-128458900D01*
X147698096Y-128458903D01*
X147845659Y-128619200D01*
X147861798Y-128636731D01*
X147991643Y-128737793D01*
X148052542Y-128785193D01*
X148215278Y-128873261D01*
X148265118Y-128900233D01*
X148493731Y-128978716D01*
X148732144Y-129018500D01*
X148973851Y-129018500D01*
X148973854Y-129018500D01*
X149212267Y-128978716D01*
X149440880Y-128900233D01*
X149653457Y-128785192D01*
X149844200Y-128636731D01*
X150007905Y-128458900D01*
X150140108Y-128256549D01*
X150237202Y-128035197D01*
X150296538Y-127800884D01*
X150316498Y-127560000D01*
X150296538Y-127319116D01*
X150237202Y-127084803D01*
X150140108Y-126863451D01*
X150007905Y-126661100D01*
X149844200Y-126483269D01*
X149690701Y-126363796D01*
X149653455Y-126334806D01*
X149440879Y-126219766D01*
X149264195Y-126159111D01*
X149212267Y-126141284D01*
X148973854Y-126101500D01*
X148732144Y-126101500D01*
X148493731Y-126141284D01*
X148493728Y-126141284D01*
X148493728Y-126141285D01*
X148265118Y-126219766D01*
X148052542Y-126334806D01*
X147861794Y-126483272D01*
X147698096Y-126661096D01*
X147565888Y-126863453D01*
X147468795Y-127084804D01*
X147440879Y-127195044D01*
X147409460Y-127319116D01*
X147389500Y-127560000D01*
X146111500Y-127560000D01*
X146111500Y-126561362D01*
X146104989Y-126500799D01*
X146053889Y-126363796D01*
X146032189Y-126334808D01*
X145966261Y-126246738D01*
X145849205Y-126159111D01*
X145747607Y-126121217D01*
X145712201Y-126108011D01*
X145651638Y-126101500D01*
X143654362Y-126101500D01*
X143593799Y-126108011D01*
X143456794Y-126159111D01*
X143339738Y-126246738D01*
X143252111Y-126363794D01*
X143201011Y-126500799D01*
X143194500Y-126561362D01*
X143194500Y-128021577D01*
X143180767Y-128078780D01*
X143142561Y-128123513D01*
X143088211Y-128146026D01*
X143029564Y-128141410D01*
X142979405Y-128110672D01*
X138049816Y-123181083D01*
X138036705Y-123164717D01*
X137984735Y-123115915D01*
X137981922Y-123113189D01*
X137962094Y-123093361D01*
X137961556Y-123092944D01*
X137958873Y-123090862D01*
X137949849Y-123083155D01*
X137917506Y-123052783D01*
X137917503Y-123052781D01*
X137899672Y-123042978D01*
X137883154Y-123032128D01*
X137867067Y-123019650D01*
X137826336Y-123002024D01*
X137815678Y-122996802D01*
X137776802Y-122975430D01*
X137757086Y-122970368D01*
X137738380Y-122963963D01*
X137719709Y-122955883D01*
X137675873Y-122948940D01*
X137664250Y-122946532D01*
X137621284Y-122935500D01*
X137621282Y-122935500D01*
X137600934Y-122935500D01*
X137581224Y-122933949D01*
X137561121Y-122930765D01*
X137561120Y-122930765D01*
X137516944Y-122934941D01*
X137505086Y-122935500D01*
X82865423Y-122935500D01*
X82817205Y-122925909D01*
X82776328Y-122898595D01*
X78114733Y-118237000D01*
X86354600Y-118237000D01*
X86374145Y-118422957D01*
X86431924Y-118600785D01*
X86525413Y-118762713D01*
X86525415Y-118762715D01*
X86650530Y-118901669D01*
X86801800Y-119011573D01*
X86972615Y-119087625D01*
X87155510Y-119126500D01*
X87342488Y-119126500D01*
X87342490Y-119126500D01*
X87525385Y-119087625D01*
X87696200Y-119011573D01*
X87847470Y-118901669D01*
X87847469Y-118901669D01*
X87854497Y-118896564D01*
X87889622Y-118878667D01*
X87928558Y-118872500D01*
X88063337Y-118872500D01*
X88112937Y-118882673D01*
X88154528Y-118911550D01*
X88181393Y-118954468D01*
X88192111Y-118983205D01*
X88279738Y-119100261D01*
X88396794Y-119187888D01*
X88396795Y-119187888D01*
X88396796Y-119187889D01*
X88533799Y-119238989D01*
X88594362Y-119245500D01*
X89791638Y-119245500D01*
X89852201Y-119238989D01*
X89989204Y-119187889D01*
X89989204Y-119187888D01*
X89999681Y-119183981D01*
X90043714Y-119176036D01*
X90087746Y-119183980D01*
X90233906Y-119238494D01*
X90294411Y-119245000D01*
X90639000Y-119245000D01*
X90639000Y-118491000D01*
X91147000Y-118491000D01*
X91147000Y-119245000D01*
X91491589Y-119245000D01*
X91552093Y-119238494D01*
X91688962Y-119187445D01*
X91805904Y-119099904D01*
X91893445Y-118982962D01*
X91944494Y-118846093D01*
X91951000Y-118785589D01*
X91951000Y-118491000D01*
X91147000Y-118491000D01*
X90639000Y-118491000D01*
X90639000Y-117229000D01*
X91147000Y-117229000D01*
X91147000Y-117983000D01*
X91951000Y-117983000D01*
X91951000Y-117688411D01*
X91944494Y-117627906D01*
X91893445Y-117491037D01*
X91805904Y-117374095D01*
X91688962Y-117286554D01*
X91552093Y-117235505D01*
X91491589Y-117229000D01*
X91147000Y-117229000D01*
X90639000Y-117229000D01*
X90294411Y-117229000D01*
X90233906Y-117235505D01*
X90087747Y-117290019D01*
X90043715Y-117297963D01*
X89999683Y-117290019D01*
X89914859Y-117258381D01*
X89852201Y-117235011D01*
X89791638Y-117228500D01*
X88594362Y-117228500D01*
X88533799Y-117235011D01*
X88396794Y-117286111D01*
X88279738Y-117373738D01*
X88192111Y-117490794D01*
X88181393Y-117519532D01*
X88154528Y-117562450D01*
X88112937Y-117591327D01*
X88063337Y-117601500D01*
X87928558Y-117601500D01*
X87889622Y-117595333D01*
X87854497Y-117577436D01*
X87735578Y-117491037D01*
X87696200Y-117462427D01*
X87525385Y-117386375D01*
X87342490Y-117347500D01*
X87155510Y-117347500D01*
X87041454Y-117371743D01*
X86972614Y-117386375D01*
X86879418Y-117427869D01*
X86806295Y-117460426D01*
X86801798Y-117462428D01*
X86650530Y-117572330D01*
X86525413Y-117711286D01*
X86431924Y-117873214D01*
X86374145Y-118051042D01*
X86354600Y-118237000D01*
X78114733Y-118237000D01*
X77597816Y-117720083D01*
X77584704Y-117703717D01*
X77573666Y-117693351D01*
X77541101Y-117643436D01*
X77535120Y-117584139D01*
X77557059Y-117528726D01*
X77602011Y-117489595D01*
X77659918Y-117475500D01*
X77763983Y-117475500D01*
X77766931Y-117475500D01*
X77787769Y-117477800D01*
X77790716Y-117477707D01*
X77790719Y-117477708D01*
X77859012Y-117475561D01*
X77862969Y-117475500D01*
X77890978Y-117475500D01*
X77890983Y-117475500D01*
X77895029Y-117474988D01*
X77906848Y-117474058D01*
X77951205Y-117472665D01*
X77970744Y-117466987D01*
X77990102Y-117462978D01*
X78010299Y-117460427D01*
X78051555Y-117444092D01*
X78062765Y-117440253D01*
X78105393Y-117427869D01*
X78122907Y-117417510D01*
X78140667Y-117408810D01*
X78159586Y-117401320D01*
X78159586Y-117401319D01*
X78159588Y-117401319D01*
X78195499Y-117375227D01*
X78205399Y-117368724D01*
X78243598Y-117346134D01*
X78257986Y-117331745D01*
X78273021Y-117318904D01*
X78289487Y-117306942D01*
X78317788Y-117272729D01*
X78325757Y-117263973D01*
X81887327Y-113702405D01*
X81928205Y-113675091D01*
X81976423Y-113665500D01*
X135678931Y-113665500D01*
X135699769Y-113667800D01*
X135702716Y-113667707D01*
X135702719Y-113667708D01*
X135771012Y-113665561D01*
X135774969Y-113665500D01*
X135802978Y-113665500D01*
X135802983Y-113665500D01*
X135807029Y-113664988D01*
X135818848Y-113664058D01*
X135863205Y-113662665D01*
X135882744Y-113656987D01*
X135902102Y-113652978D01*
X135922299Y-113650427D01*
X135963555Y-113634092D01*
X135974765Y-113630253D01*
X136017393Y-113617869D01*
X136034907Y-113607510D01*
X136052667Y-113598810D01*
X136071586Y-113591320D01*
X136071586Y-113591319D01*
X136071588Y-113591319D01*
X136107499Y-113565227D01*
X136117399Y-113558724D01*
X136155598Y-113536134D01*
X136169986Y-113521745D01*
X136185021Y-113508904D01*
X136201487Y-113496942D01*
X136229788Y-113462729D01*
X136237757Y-113453973D01*
X141031731Y-108660000D01*
X142850002Y-108660000D01*
X142869962Y-108900884D01*
X142869962Y-108900887D01*
X142869963Y-108900888D01*
X142929297Y-109135195D01*
X143026390Y-109356546D01*
X143026392Y-109356549D01*
X143158595Y-109558900D01*
X143192159Y-109595360D01*
X143306068Y-109719099D01*
X143322300Y-109736731D01*
X143474894Y-109855499D01*
X143513044Y-109885193D01*
X143722761Y-109998686D01*
X143725620Y-110000233D01*
X143954233Y-110078716D01*
X144192646Y-110118500D01*
X144434353Y-110118500D01*
X144434356Y-110118500D01*
X144672769Y-110078716D01*
X144901382Y-110000233D01*
X145113959Y-109885192D01*
X145304702Y-109736731D01*
X145468407Y-109558900D01*
X145600610Y-109356549D01*
X145697704Y-109135197D01*
X145753719Y-108914000D01*
X147055500Y-108914000D01*
X147055500Y-109658589D01*
X147062005Y-109719093D01*
X147113054Y-109855962D01*
X147200595Y-109972904D01*
X147317537Y-110060445D01*
X147454406Y-110111494D01*
X147514911Y-110118000D01*
X148259500Y-110118000D01*
X148259500Y-108914000D01*
X148767500Y-108914000D01*
X148767500Y-110118000D01*
X149512089Y-110118000D01*
X149572593Y-110111494D01*
X149709462Y-110060445D01*
X149826404Y-109972904D01*
X149913945Y-109855962D01*
X149964994Y-109719093D01*
X149971500Y-109658589D01*
X149971500Y-108914000D01*
X148767500Y-108914000D01*
X148259500Y-108914000D01*
X147055500Y-108914000D01*
X145753719Y-108914000D01*
X145757040Y-108900884D01*
X145777000Y-108660000D01*
X145757040Y-108419116D01*
X145753719Y-108406000D01*
X147055500Y-108406000D01*
X148259500Y-108406000D01*
X148259500Y-107202000D01*
X148767500Y-107202000D01*
X148767500Y-108406000D01*
X149971500Y-108406000D01*
X149971500Y-107661411D01*
X149964994Y-107600906D01*
X149913945Y-107464037D01*
X149826404Y-107347095D01*
X149709462Y-107259554D01*
X149572593Y-107208505D01*
X149512089Y-107202000D01*
X148767500Y-107202000D01*
X148259500Y-107202000D01*
X147514911Y-107202000D01*
X147454406Y-107208505D01*
X147317537Y-107259554D01*
X147200595Y-107347095D01*
X147113054Y-107464037D01*
X147062005Y-107600906D01*
X147055500Y-107661411D01*
X147055500Y-108406000D01*
X145753719Y-108406000D01*
X145697704Y-108184803D01*
X145600610Y-107963451D01*
X145468407Y-107761100D01*
X145320938Y-107600906D01*
X145304705Y-107583272D01*
X145304704Y-107583271D01*
X145304702Y-107583269D01*
X145151520Y-107464043D01*
X145113957Y-107434806D01*
X144901381Y-107319766D01*
X144726005Y-107259560D01*
X144672769Y-107241284D01*
X144434356Y-107201500D01*
X144192646Y-107201500D01*
X143954233Y-107241284D01*
X143954230Y-107241284D01*
X143954230Y-107241285D01*
X143725620Y-107319766D01*
X143513044Y-107434806D01*
X143322296Y-107583272D01*
X143158598Y-107761096D01*
X143026390Y-107963453D01*
X142929297Y-108184804D01*
X142873283Y-108406000D01*
X142869962Y-108419116D01*
X142850002Y-108660000D01*
X141031731Y-108660000D01*
X142720326Y-106971405D01*
X142761204Y-106944091D01*
X142809422Y-106934500D01*
X145584931Y-106934500D01*
X145605769Y-106936800D01*
X145608716Y-106936707D01*
X145608719Y-106936708D01*
X145677012Y-106934561D01*
X145680969Y-106934500D01*
X145708978Y-106934500D01*
X145708983Y-106934500D01*
X145713029Y-106933988D01*
X145724848Y-106933058D01*
X145769205Y-106931665D01*
X145788744Y-106925987D01*
X145808102Y-106921978D01*
X145828299Y-106919427D01*
X145869555Y-106903092D01*
X145880765Y-106899253D01*
X145923393Y-106886869D01*
X145940907Y-106876510D01*
X145958667Y-106867810D01*
X145977586Y-106860320D01*
X145977586Y-106860319D01*
X145977588Y-106860319D01*
X146013499Y-106834227D01*
X146023399Y-106827724D01*
X146061598Y-106805134D01*
X146075991Y-106790740D01*
X146091013Y-106777910D01*
X146107487Y-106765942D01*
X146135786Y-106731733D01*
X146143756Y-106722975D01*
X148223023Y-104643707D01*
X148273677Y-104612811D01*
X148332853Y-104608523D01*
X148392645Y-104618501D01*
X148634352Y-104618501D01*
X148634355Y-104618501D01*
X148872768Y-104578717D01*
X149101381Y-104500234D01*
X149313958Y-104385193D01*
X149504701Y-104236732D01*
X149668406Y-104058901D01*
X149800609Y-103856550D01*
X149846828Y-103751182D01*
X151462998Y-103751182D01*
X151502102Y-104010615D01*
X151502103Y-104010618D01*
X151579434Y-104261323D01*
X151693270Y-104497704D01*
X151841061Y-104714474D01*
X151841063Y-104714476D01*
X151841065Y-104714479D01*
X152019517Y-104906805D01*
X152224641Y-105070386D01*
X152451855Y-105201568D01*
X152696082Y-105297420D01*
X152951868Y-105355802D01*
X153148004Y-105370500D01*
X153278987Y-105370500D01*
X153278992Y-105370500D01*
X153475128Y-105355802D01*
X153730914Y-105297420D01*
X153975141Y-105201568D01*
X154202355Y-105070386D01*
X154407479Y-104906805D01*
X154585931Y-104714479D01*
X154733726Y-104497704D01*
X154847561Y-104261323D01*
X154924894Y-104010615D01*
X154963998Y-103751182D01*
X154963998Y-103488818D01*
X154924894Y-103229385D01*
X154847561Y-102978677D01*
X154818881Y-102919123D01*
X154735465Y-102745908D01*
X154733726Y-102742296D01*
X154654157Y-102625590D01*
X154585934Y-102525525D01*
X154585932Y-102525523D01*
X154585931Y-102525521D01*
X154407479Y-102333195D01*
X154346925Y-102284905D01*
X157869793Y-102284905D01*
X157879672Y-102592975D01*
X157903814Y-102742301D01*
X157928867Y-102897261D01*
X158006849Y-103160007D01*
X158016570Y-103192758D01*
X158141336Y-103474609D01*
X158301119Y-103738189D01*
X158378476Y-103835191D01*
X158493304Y-103979181D01*
X158714723Y-104193613D01*
X158714724Y-104193614D01*
X158961748Y-104377973D01*
X159230317Y-104529228D01*
X159352570Y-104578723D01*
X159516025Y-104644899D01*
X159814179Y-104723084D01*
X160119883Y-104762500D01*
X160350974Y-104762500D01*
X160350976Y-104762500D01*
X160581603Y-104747693D01*
X160884146Y-104688773D01*
X160884146Y-104688772D01*
X160884151Y-104688772D01*
X161176683Y-104591644D01*
X161454393Y-104457907D01*
X161712720Y-104289754D01*
X161947424Y-104089948D01*
X162154650Y-103861769D01*
X162330996Y-103608963D01*
X162473567Y-103335683D01*
X162580020Y-103046415D01*
X162648609Y-102745908D01*
X162678206Y-102439098D01*
X162668327Y-102131022D01*
X162619133Y-101826739D01*
X162531431Y-101531244D01*
X162406663Y-101249391D01*
X162406663Y-101249390D01*
X162246880Y-100985810D01*
X162155973Y-100871817D01*
X162054696Y-100744819D01*
X161833276Y-100530386D01*
X161833275Y-100530385D01*
X161586251Y-100346026D01*
X161317682Y-100194771D01*
X161031976Y-100079101D01*
X160733826Y-100000917D01*
X160733823Y-100000916D01*
X160733821Y-100000916D01*
X160428117Y-99961500D01*
X160197026Y-99961500D01*
X160197024Y-99961500D01*
X159966396Y-99976306D01*
X159663853Y-100035226D01*
X159371314Y-100132356D01*
X159093609Y-100266091D01*
X158835278Y-100434247D01*
X158600576Y-100634052D01*
X158393351Y-100862229D01*
X158217000Y-101115042D01*
X158074434Y-101388314D01*
X157967980Y-101677583D01*
X157899391Y-101978091D01*
X157869793Y-102284905D01*
X154346925Y-102284905D01*
X154202355Y-102169614D01*
X153975141Y-102038432D01*
X153730915Y-101942580D01*
X153475129Y-101884198D01*
X153442438Y-101881748D01*
X153278992Y-101869500D01*
X153148004Y-101869500D01*
X153007906Y-101879998D01*
X152951866Y-101884198D01*
X152696080Y-101942580D01*
X152451854Y-102038432D01*
X152224644Y-102169612D01*
X152224641Y-102169614D01*
X152019517Y-102333195D01*
X151898655Y-102463454D01*
X151841061Y-102525525D01*
X151693270Y-102742295D01*
X151579434Y-102978676D01*
X151513400Y-103192758D01*
X151502102Y-103229385D01*
X151462998Y-103488818D01*
X151462998Y-103751182D01*
X149846828Y-103751182D01*
X149897703Y-103635198D01*
X149957039Y-103400885D01*
X149976999Y-103160001D01*
X149957039Y-102919117D01*
X149897703Y-102684804D01*
X149800609Y-102463452D01*
X149668406Y-102261101D01*
X149524789Y-102105091D01*
X149504704Y-102083273D01*
X149504703Y-102083272D01*
X149504701Y-102083270D01*
X149369567Y-101978091D01*
X149313956Y-101934807D01*
X149101380Y-101819767D01*
X148946624Y-101766639D01*
X148872768Y-101741285D01*
X148634355Y-101701501D01*
X148392645Y-101701501D01*
X148154232Y-101741285D01*
X148154229Y-101741285D01*
X148154229Y-101741286D01*
X147925619Y-101819767D01*
X147713043Y-101934807D01*
X147522295Y-102083273D01*
X147358597Y-102261097D01*
X147226389Y-102463454D01*
X147129296Y-102684805D01*
X147069962Y-102919112D01*
X147069961Y-102919117D01*
X147050001Y-103160001D01*
X147069961Y-103400885D01*
X147069961Y-103400888D01*
X147069962Y-103400889D01*
X147129295Y-103635193D01*
X147129296Y-103635196D01*
X147129297Y-103635198D01*
X147174474Y-103738193D01*
X147187641Y-103768209D01*
X147198241Y-103817086D01*
X147188991Y-103866237D01*
X147161348Y-103907917D01*
X145442669Y-105626597D01*
X145401795Y-105653909D01*
X145353577Y-105663500D01*
X142578069Y-105663500D01*
X142557231Y-105661199D01*
X142486002Y-105663438D01*
X142482044Y-105663500D01*
X142454015Y-105663500D01*
X142449957Y-105664012D01*
X142438144Y-105664941D01*
X142393792Y-105666335D01*
X142374252Y-105672012D01*
X142354902Y-105676020D01*
X142334702Y-105678572D01*
X142293437Y-105694910D01*
X142282210Y-105698753D01*
X142239608Y-105711130D01*
X142222091Y-105721490D01*
X142204344Y-105730184D01*
X142185411Y-105737680D01*
X142149513Y-105763762D01*
X142139595Y-105770277D01*
X142101400Y-105792865D01*
X142087003Y-105807262D01*
X142071978Y-105820094D01*
X142055513Y-105832057D01*
X142027220Y-105866256D01*
X142019233Y-105875032D01*
X135536672Y-112357595D01*
X135495795Y-112384909D01*
X135447577Y-112394500D01*
X118932422Y-112394500D01*
X118875219Y-112380767D01*
X118830486Y-112342561D01*
X118807973Y-112288211D01*
X118812589Y-112229564D01*
X118843327Y-112179405D01*
X121559066Y-109463667D01*
X122362733Y-108660000D01*
X123673003Y-108660000D01*
X123692963Y-108900884D01*
X123692963Y-108900887D01*
X123692964Y-108900888D01*
X123752298Y-109135195D01*
X123849391Y-109356546D01*
X123849393Y-109356549D01*
X123981596Y-109558900D01*
X124015160Y-109595360D01*
X124129069Y-109719099D01*
X124145301Y-109736731D01*
X124297895Y-109855499D01*
X124336045Y-109885193D01*
X124545762Y-109998686D01*
X124548621Y-110000233D01*
X124777234Y-110078716D01*
X125015647Y-110118500D01*
X125257354Y-110118500D01*
X125257357Y-110118500D01*
X125495770Y-110078716D01*
X125724383Y-110000233D01*
X125936960Y-109885192D01*
X126127703Y-109736731D01*
X126291408Y-109558900D01*
X126423611Y-109356549D01*
X126520705Y-109135197D01*
X126576720Y-108914000D01*
X127878501Y-108914000D01*
X127878501Y-109658589D01*
X127885006Y-109719093D01*
X127936055Y-109855962D01*
X128023596Y-109972904D01*
X128140538Y-110060445D01*
X128277407Y-110111494D01*
X128337912Y-110118000D01*
X129082501Y-110118000D01*
X129082501Y-108914000D01*
X129590501Y-108914000D01*
X129590501Y-110118000D01*
X130335090Y-110118000D01*
X130395594Y-110111494D01*
X130532463Y-110060445D01*
X130649405Y-109972904D01*
X130736946Y-109855962D01*
X130787995Y-109719093D01*
X130794501Y-109658589D01*
X130794501Y-108914000D01*
X129590501Y-108914000D01*
X129082501Y-108914000D01*
X127878501Y-108914000D01*
X126576720Y-108914000D01*
X126580041Y-108900884D01*
X126600001Y-108660000D01*
X126580041Y-108419116D01*
X126576720Y-108406000D01*
X127878501Y-108406000D01*
X129082501Y-108406000D01*
X129082501Y-107202000D01*
X129590501Y-107202000D01*
X129590501Y-108406000D01*
X130794501Y-108406000D01*
X130794501Y-107661411D01*
X130787995Y-107600906D01*
X130736946Y-107464037D01*
X130649405Y-107347095D01*
X130532463Y-107259554D01*
X130395594Y-107208505D01*
X130335090Y-107202000D01*
X129590501Y-107202000D01*
X129082501Y-107202000D01*
X128337912Y-107202000D01*
X128277407Y-107208505D01*
X128140538Y-107259554D01*
X128023596Y-107347095D01*
X127936055Y-107464037D01*
X127885006Y-107600906D01*
X127878501Y-107661411D01*
X127878501Y-108406000D01*
X126576720Y-108406000D01*
X126520705Y-108184803D01*
X126423611Y-107963451D01*
X126291408Y-107761100D01*
X126143939Y-107600906D01*
X126127706Y-107583272D01*
X126127705Y-107583271D01*
X126127703Y-107583269D01*
X125974521Y-107464043D01*
X125936958Y-107434806D01*
X125724382Y-107319766D01*
X125549006Y-107259560D01*
X125495770Y-107241284D01*
X125257357Y-107201500D01*
X125015647Y-107201500D01*
X124777234Y-107241284D01*
X124777231Y-107241284D01*
X124777231Y-107241285D01*
X124548621Y-107319766D01*
X124336045Y-107434806D01*
X124145297Y-107583272D01*
X123981599Y-107761096D01*
X123849391Y-107963453D01*
X123752298Y-108184804D01*
X123696284Y-108406000D01*
X123692963Y-108419116D01*
X123673003Y-108660000D01*
X122362733Y-108660000D01*
X124432327Y-106590405D01*
X124473205Y-106563091D01*
X124521423Y-106553500D01*
X126411718Y-106553500D01*
X126494433Y-106553500D01*
X126515271Y-106555800D01*
X126518218Y-106555707D01*
X126518221Y-106555708D01*
X126586514Y-106553561D01*
X126590471Y-106553500D01*
X126618480Y-106553500D01*
X126618485Y-106553500D01*
X126622531Y-106552988D01*
X126634350Y-106552058D01*
X126678707Y-106550665D01*
X126698246Y-106544987D01*
X126717604Y-106540978D01*
X126737801Y-106538427D01*
X126779057Y-106522092D01*
X126790267Y-106518253D01*
X126832895Y-106505869D01*
X126850409Y-106495510D01*
X126868169Y-106486810D01*
X126887088Y-106479320D01*
X126887088Y-106479319D01*
X126887090Y-106479319D01*
X126923001Y-106453227D01*
X126932901Y-106446724D01*
X126971100Y-106424134D01*
X126985493Y-106409740D01*
X127000515Y-106396910D01*
X127016989Y-106384942D01*
X127045288Y-106350733D01*
X127053258Y-106341975D01*
X128801975Y-104593257D01*
X128862668Y-104559596D01*
X128931978Y-104563180D01*
X128977233Y-104578717D01*
X129215646Y-104618501D01*
X129457353Y-104618501D01*
X129457356Y-104618501D01*
X129695769Y-104578717D01*
X129924382Y-104500234D01*
X130136959Y-104385193D01*
X130327702Y-104236732D01*
X130491407Y-104058901D01*
X130623610Y-103856550D01*
X130669829Y-103751182D01*
X132285999Y-103751182D01*
X132325103Y-104010615D01*
X132325104Y-104010618D01*
X132402435Y-104261323D01*
X132516271Y-104497704D01*
X132664062Y-104714474D01*
X132664064Y-104714476D01*
X132664066Y-104714479D01*
X132842518Y-104906805D01*
X133047642Y-105070386D01*
X133274856Y-105201568D01*
X133519083Y-105297420D01*
X133774869Y-105355802D01*
X133971005Y-105370500D01*
X134101988Y-105370500D01*
X134101993Y-105370500D01*
X134298129Y-105355802D01*
X134553915Y-105297420D01*
X134798142Y-105201568D01*
X135025356Y-105070386D01*
X135230480Y-104906805D01*
X135408932Y-104714479D01*
X135556727Y-104497704D01*
X135670562Y-104261323D01*
X135747895Y-104010615D01*
X135786999Y-103751182D01*
X137863025Y-103751182D01*
X137902129Y-104010615D01*
X137902130Y-104010618D01*
X137979461Y-104261323D01*
X138093297Y-104497704D01*
X138241088Y-104714474D01*
X138241090Y-104714476D01*
X138241092Y-104714479D01*
X138419544Y-104906805D01*
X138624668Y-105070386D01*
X138851882Y-105201568D01*
X139096109Y-105297420D01*
X139351895Y-105355802D01*
X139548031Y-105370500D01*
X139679014Y-105370500D01*
X139679019Y-105370500D01*
X139875155Y-105355802D01*
X140130941Y-105297420D01*
X140375168Y-105201568D01*
X140602382Y-105070386D01*
X140807506Y-104906805D01*
X140985958Y-104714479D01*
X141133753Y-104497704D01*
X141247588Y-104261323D01*
X141324921Y-104010615D01*
X141364025Y-103751182D01*
X141364025Y-103488818D01*
X141324921Y-103229385D01*
X141303519Y-103160001D01*
X142850002Y-103160001D01*
X142869962Y-103400885D01*
X142869962Y-103400888D01*
X142869963Y-103400889D01*
X142929297Y-103635196D01*
X143026390Y-103856547D01*
X143026392Y-103856550D01*
X143158595Y-104058901D01*
X143187175Y-104089947D01*
X143304087Y-104216948D01*
X143322300Y-104236732D01*
X143390423Y-104289754D01*
X143513044Y-104385194D01*
X143647408Y-104457908D01*
X143725620Y-104500234D01*
X143954233Y-104578717D01*
X144192646Y-104618501D01*
X144434353Y-104618501D01*
X144434356Y-104618501D01*
X144672769Y-104578717D01*
X144901382Y-104500234D01*
X145113959Y-104385193D01*
X145304702Y-104236732D01*
X145468407Y-104058901D01*
X145600610Y-103856550D01*
X145697704Y-103635198D01*
X145757040Y-103400885D01*
X145777000Y-103160001D01*
X145757040Y-102919117D01*
X145697704Y-102684804D01*
X145600610Y-102463452D01*
X145468407Y-102261101D01*
X145324790Y-102105091D01*
X145304705Y-102083273D01*
X145304704Y-102083272D01*
X145304702Y-102083270D01*
X145169568Y-101978091D01*
X145113957Y-101934807D01*
X144901381Y-101819767D01*
X144746625Y-101766639D01*
X144672769Y-101741285D01*
X144434356Y-101701501D01*
X144192646Y-101701501D01*
X143954233Y-101741285D01*
X143954230Y-101741285D01*
X143954230Y-101741286D01*
X143725620Y-101819767D01*
X143513044Y-101934807D01*
X143322296Y-102083273D01*
X143158598Y-102261097D01*
X143026390Y-102463454D01*
X142929297Y-102684805D01*
X142869963Y-102919112D01*
X142869962Y-102919117D01*
X142850002Y-103160001D01*
X141303519Y-103160001D01*
X141247588Y-102978677D01*
X141218908Y-102919123D01*
X141135492Y-102745908D01*
X141133753Y-102742296D01*
X141054184Y-102625590D01*
X140985961Y-102525525D01*
X140985959Y-102525523D01*
X140985958Y-102525521D01*
X140807506Y-102333195D01*
X140602382Y-102169614D01*
X140375168Y-102038432D01*
X140130942Y-101942580D01*
X139875156Y-101884198D01*
X139842465Y-101881748D01*
X139679019Y-101869500D01*
X139548031Y-101869500D01*
X139407933Y-101879998D01*
X139351893Y-101884198D01*
X139096107Y-101942580D01*
X138851881Y-102038432D01*
X138624671Y-102169612D01*
X138624668Y-102169614D01*
X138419544Y-102333195D01*
X138298682Y-102463454D01*
X138241088Y-102525525D01*
X138093297Y-102742295D01*
X137979461Y-102978676D01*
X137913427Y-103192758D01*
X137902129Y-103229385D01*
X137863025Y-103488818D01*
X137863025Y-103751182D01*
X135786999Y-103751182D01*
X135786999Y-103488818D01*
X135747895Y-103229385D01*
X135670562Y-102978677D01*
X135641882Y-102919123D01*
X135558466Y-102745908D01*
X135556727Y-102742296D01*
X135477158Y-102625590D01*
X135408935Y-102525525D01*
X135408933Y-102525523D01*
X135408932Y-102525521D01*
X135230480Y-102333195D01*
X135025356Y-102169614D01*
X134798142Y-102038432D01*
X134553916Y-101942580D01*
X134298130Y-101884198D01*
X134265439Y-101881748D01*
X134101993Y-101869500D01*
X133971005Y-101869500D01*
X133830907Y-101879998D01*
X133774867Y-101884198D01*
X133519081Y-101942580D01*
X133274855Y-102038432D01*
X133047645Y-102169612D01*
X133047642Y-102169614D01*
X132842518Y-102333195D01*
X132721656Y-102463454D01*
X132664062Y-102525525D01*
X132516271Y-102742295D01*
X132402435Y-102978676D01*
X132336401Y-103192758D01*
X132325103Y-103229385D01*
X132285999Y-103488818D01*
X132285999Y-103751182D01*
X130669829Y-103751182D01*
X130720704Y-103635198D01*
X130780040Y-103400885D01*
X130800000Y-103160001D01*
X130780040Y-102919117D01*
X130720704Y-102684804D01*
X130623610Y-102463452D01*
X130491407Y-102261101D01*
X130347790Y-102105091D01*
X130327705Y-102083273D01*
X130327704Y-102083272D01*
X130327702Y-102083270D01*
X130192568Y-101978091D01*
X130136957Y-101934807D01*
X129924381Y-101819767D01*
X129769625Y-101766639D01*
X129695769Y-101741285D01*
X129457356Y-101701501D01*
X129215646Y-101701501D01*
X128977233Y-101741285D01*
X128977230Y-101741285D01*
X128977230Y-101741286D01*
X128748620Y-101819767D01*
X128536044Y-101934807D01*
X128345296Y-102083273D01*
X128181598Y-102261097D01*
X128049390Y-102463454D01*
X127952297Y-102684805D01*
X127892963Y-102919112D01*
X127892962Y-102919117D01*
X127873002Y-103160001D01*
X127892962Y-103400885D01*
X127911631Y-103474609D01*
X127936799Y-103573992D01*
X127936133Y-103638372D01*
X127903749Y-103694018D01*
X126352171Y-105245597D01*
X126311297Y-105272909D01*
X126263079Y-105282500D01*
X124290074Y-105282500D01*
X124269228Y-105280198D01*
X124197970Y-105282438D01*
X124194012Y-105282500D01*
X124166015Y-105282500D01*
X124161975Y-105283010D01*
X124150154Y-105283940D01*
X124105794Y-105285334D01*
X124086243Y-105291014D01*
X124066894Y-105295021D01*
X124046699Y-105297573D01*
X124005441Y-105313907D01*
X123994217Y-105317750D01*
X123951605Y-105330131D01*
X123934084Y-105340492D01*
X123916341Y-105349184D01*
X123897415Y-105356678D01*
X123861513Y-105382762D01*
X123851597Y-105389276D01*
X123813399Y-105411867D01*
X123799011Y-105426255D01*
X123783984Y-105439089D01*
X123767514Y-105451055D01*
X123739216Y-105485261D01*
X123731228Y-105494038D01*
X117883672Y-111341595D01*
X117842795Y-111368909D01*
X117794577Y-111378500D01*
X117555282Y-111378500D01*
X117428282Y-111378500D01*
X100136421Y-111378500D01*
X100079218Y-111364767D01*
X100034485Y-111326561D01*
X100011972Y-111272211D01*
X100016588Y-111213564D01*
X100047326Y-111163405D01*
X102075529Y-109135203D01*
X102550732Y-108660000D01*
X104496003Y-108660000D01*
X104515963Y-108900884D01*
X104515963Y-108900887D01*
X104515964Y-108900888D01*
X104575298Y-109135195D01*
X104672391Y-109356546D01*
X104672393Y-109356549D01*
X104804596Y-109558900D01*
X104838160Y-109595360D01*
X104952069Y-109719099D01*
X104968301Y-109736731D01*
X105120895Y-109855499D01*
X105159045Y-109885193D01*
X105368762Y-109998686D01*
X105371621Y-110000233D01*
X105600234Y-110078716D01*
X105838647Y-110118500D01*
X106080354Y-110118500D01*
X106080357Y-110118500D01*
X106318770Y-110078716D01*
X106547383Y-110000233D01*
X106759960Y-109885192D01*
X106950703Y-109736731D01*
X107114408Y-109558900D01*
X107246611Y-109356549D01*
X107343705Y-109135197D01*
X107399720Y-108914000D01*
X108701501Y-108914000D01*
X108701501Y-109658589D01*
X108708006Y-109719093D01*
X108759055Y-109855962D01*
X108846596Y-109972904D01*
X108963538Y-110060445D01*
X109100407Y-110111494D01*
X109160912Y-110118000D01*
X109905501Y-110118000D01*
X109905501Y-108914000D01*
X110413501Y-108914000D01*
X110413501Y-110118000D01*
X111158090Y-110118000D01*
X111218594Y-110111494D01*
X111355463Y-110060445D01*
X111472405Y-109972904D01*
X111559946Y-109855962D01*
X111610995Y-109719093D01*
X111617501Y-109658589D01*
X111617501Y-108914000D01*
X110413501Y-108914000D01*
X109905501Y-108914000D01*
X108701501Y-108914000D01*
X107399720Y-108914000D01*
X107403041Y-108900884D01*
X107423001Y-108660000D01*
X107403041Y-108419116D01*
X107399720Y-108406000D01*
X108701501Y-108406000D01*
X109905501Y-108406000D01*
X109905501Y-107202000D01*
X110413501Y-107202000D01*
X110413501Y-108406000D01*
X111617501Y-108406000D01*
X111617501Y-107661411D01*
X111610995Y-107600906D01*
X111559946Y-107464037D01*
X111472405Y-107347095D01*
X111355463Y-107259554D01*
X111218594Y-107208505D01*
X111158090Y-107202000D01*
X110413501Y-107202000D01*
X109905501Y-107202000D01*
X109160912Y-107202000D01*
X109100407Y-107208505D01*
X108963538Y-107259554D01*
X108846596Y-107347095D01*
X108759055Y-107464037D01*
X108708006Y-107600906D01*
X108701501Y-107661411D01*
X108701501Y-108406000D01*
X107399720Y-108406000D01*
X107343705Y-108184803D01*
X107246611Y-107963451D01*
X107114408Y-107761100D01*
X106966939Y-107600906D01*
X106950706Y-107583272D01*
X106950705Y-107583271D01*
X106950703Y-107583269D01*
X106797521Y-107464043D01*
X106759958Y-107434806D01*
X106547382Y-107319766D01*
X106372006Y-107259560D01*
X106318770Y-107241284D01*
X106080357Y-107201500D01*
X105838647Y-107201500D01*
X105600234Y-107241284D01*
X105600231Y-107241284D01*
X105600231Y-107241285D01*
X105371621Y-107319766D01*
X105159045Y-107434806D01*
X104968297Y-107583272D01*
X104804599Y-107761096D01*
X104672391Y-107963453D01*
X104575298Y-108184804D01*
X104519284Y-108406000D01*
X104515963Y-108419116D01*
X104496003Y-108660000D01*
X102550732Y-108660000D01*
X104236638Y-106974094D01*
X104296164Y-106914568D01*
X104296165Y-106914565D01*
X104493327Y-106717404D01*
X104534205Y-106690091D01*
X104582423Y-106680500D01*
X107107718Y-106680500D01*
X107190433Y-106680500D01*
X107211271Y-106682800D01*
X107214218Y-106682707D01*
X107214221Y-106682708D01*
X107282514Y-106680561D01*
X107286471Y-106680500D01*
X107314480Y-106680500D01*
X107314485Y-106680500D01*
X107318531Y-106679988D01*
X107330350Y-106679058D01*
X107374707Y-106677665D01*
X107394246Y-106671987D01*
X107413604Y-106667978D01*
X107433801Y-106665427D01*
X107475057Y-106649092D01*
X107486267Y-106645253D01*
X107528895Y-106632869D01*
X107546409Y-106622510D01*
X107564169Y-106613810D01*
X107583088Y-106606320D01*
X107583088Y-106606319D01*
X107583090Y-106606319D01*
X107619001Y-106580227D01*
X107628901Y-106573724D01*
X107667100Y-106551134D01*
X107681493Y-106536740D01*
X107696515Y-106523910D01*
X107712989Y-106511942D01*
X107741288Y-106477733D01*
X107749258Y-106468975D01*
X109624975Y-104593257D01*
X109685668Y-104559596D01*
X109754978Y-104563180D01*
X109800233Y-104578717D01*
X110038646Y-104618501D01*
X110280353Y-104618501D01*
X110280356Y-104618501D01*
X110518769Y-104578717D01*
X110747382Y-104500234D01*
X110959959Y-104385193D01*
X111150702Y-104236732D01*
X111314407Y-104058901D01*
X111446610Y-103856550D01*
X111492829Y-103751182D01*
X113108999Y-103751182D01*
X113148103Y-104010615D01*
X113148104Y-104010618D01*
X113225435Y-104261323D01*
X113339271Y-104497704D01*
X113487062Y-104714474D01*
X113487064Y-104714476D01*
X113487066Y-104714479D01*
X113665518Y-104906805D01*
X113870642Y-105070386D01*
X114097856Y-105201568D01*
X114342083Y-105297420D01*
X114597869Y-105355802D01*
X114794005Y-105370500D01*
X114924988Y-105370500D01*
X114924993Y-105370500D01*
X115121129Y-105355802D01*
X115376915Y-105297420D01*
X115621142Y-105201568D01*
X115848356Y-105070386D01*
X116053480Y-104906805D01*
X116231932Y-104714479D01*
X116379727Y-104497704D01*
X116493562Y-104261323D01*
X116570895Y-104010615D01*
X116609999Y-103751182D01*
X118686026Y-103751182D01*
X118725130Y-104010615D01*
X118725131Y-104010618D01*
X118802462Y-104261323D01*
X118916298Y-104497704D01*
X119064089Y-104714474D01*
X119064091Y-104714476D01*
X119064093Y-104714479D01*
X119242545Y-104906805D01*
X119447669Y-105070386D01*
X119674883Y-105201568D01*
X119919110Y-105297420D01*
X120174896Y-105355802D01*
X120371032Y-105370500D01*
X120502015Y-105370500D01*
X120502020Y-105370500D01*
X120698156Y-105355802D01*
X120953942Y-105297420D01*
X121198169Y-105201568D01*
X121425383Y-105070386D01*
X121630507Y-104906805D01*
X121808959Y-104714479D01*
X121956754Y-104497704D01*
X122070589Y-104261323D01*
X122147922Y-104010615D01*
X122187026Y-103751182D01*
X122187026Y-103488818D01*
X122147922Y-103229385D01*
X122126520Y-103160001D01*
X123673003Y-103160001D01*
X123692963Y-103400885D01*
X123692963Y-103400888D01*
X123692964Y-103400889D01*
X123752298Y-103635196D01*
X123849391Y-103856547D01*
X123849393Y-103856550D01*
X123981596Y-104058901D01*
X124010176Y-104089947D01*
X124127088Y-104216948D01*
X124145301Y-104236732D01*
X124213424Y-104289754D01*
X124336045Y-104385194D01*
X124470409Y-104457908D01*
X124548621Y-104500234D01*
X124777234Y-104578717D01*
X125015647Y-104618501D01*
X125257354Y-104618501D01*
X125257357Y-104618501D01*
X125495770Y-104578717D01*
X125724383Y-104500234D01*
X125936960Y-104385193D01*
X126127703Y-104236732D01*
X126291408Y-104058901D01*
X126423611Y-103856550D01*
X126520705Y-103635198D01*
X126580041Y-103400885D01*
X126600001Y-103160001D01*
X126580041Y-102919117D01*
X126520705Y-102684804D01*
X126423611Y-102463452D01*
X126291408Y-102261101D01*
X126147791Y-102105091D01*
X126127706Y-102083273D01*
X126127705Y-102083272D01*
X126127703Y-102083270D01*
X125992569Y-101978091D01*
X125936958Y-101934807D01*
X125724382Y-101819767D01*
X125569626Y-101766639D01*
X125495770Y-101741285D01*
X125257357Y-101701501D01*
X125015647Y-101701501D01*
X124777234Y-101741285D01*
X124777231Y-101741285D01*
X124777231Y-101741286D01*
X124548621Y-101819767D01*
X124336045Y-101934807D01*
X124145297Y-102083273D01*
X123981599Y-102261097D01*
X123849391Y-102463454D01*
X123752298Y-102684805D01*
X123692964Y-102919112D01*
X123692963Y-102919117D01*
X123673003Y-103160001D01*
X122126520Y-103160001D01*
X122070589Y-102978677D01*
X122041909Y-102919123D01*
X121958493Y-102745908D01*
X121956754Y-102742296D01*
X121877185Y-102625590D01*
X121808962Y-102525525D01*
X121808960Y-102525523D01*
X121808959Y-102525521D01*
X121630507Y-102333195D01*
X121425383Y-102169614D01*
X121198169Y-102038432D01*
X120953943Y-101942580D01*
X120698157Y-101884198D01*
X120665466Y-101881748D01*
X120502020Y-101869500D01*
X120371032Y-101869500D01*
X120230934Y-101879998D01*
X120174894Y-101884198D01*
X119919108Y-101942580D01*
X119674882Y-102038432D01*
X119447672Y-102169612D01*
X119447669Y-102169614D01*
X119242545Y-102333195D01*
X119121683Y-102463454D01*
X119064089Y-102525525D01*
X118916298Y-102742295D01*
X118802462Y-102978676D01*
X118736428Y-103192758D01*
X118725130Y-103229385D01*
X118686026Y-103488818D01*
X118686026Y-103751182D01*
X116609999Y-103751182D01*
X116609999Y-103488818D01*
X116570895Y-103229385D01*
X116493562Y-102978677D01*
X116464882Y-102919123D01*
X116381466Y-102745908D01*
X116379727Y-102742296D01*
X116300158Y-102625590D01*
X116231935Y-102525525D01*
X116231933Y-102525523D01*
X116231932Y-102525521D01*
X116053480Y-102333195D01*
X115848356Y-102169614D01*
X115621142Y-102038432D01*
X115376916Y-101942580D01*
X115121130Y-101884198D01*
X115088439Y-101881748D01*
X114924993Y-101869500D01*
X114794005Y-101869500D01*
X114653907Y-101879998D01*
X114597867Y-101884198D01*
X114342081Y-101942580D01*
X114097855Y-102038432D01*
X113870645Y-102169612D01*
X113870642Y-102169614D01*
X113665518Y-102333195D01*
X113544656Y-102463454D01*
X113487062Y-102525525D01*
X113339271Y-102742295D01*
X113225435Y-102978676D01*
X113159401Y-103192758D01*
X113148103Y-103229385D01*
X113108999Y-103488818D01*
X113108999Y-103751182D01*
X111492829Y-103751182D01*
X111543704Y-103635198D01*
X111603040Y-103400885D01*
X111623000Y-103160001D01*
X111603040Y-102919117D01*
X111543704Y-102684804D01*
X111446610Y-102463452D01*
X111314407Y-102261101D01*
X111170790Y-102105091D01*
X111150705Y-102083273D01*
X111150704Y-102083272D01*
X111150702Y-102083270D01*
X111015568Y-101978091D01*
X110959957Y-101934807D01*
X110747381Y-101819767D01*
X110592625Y-101766639D01*
X110518769Y-101741285D01*
X110280356Y-101701501D01*
X110038646Y-101701501D01*
X109800233Y-101741285D01*
X109800230Y-101741285D01*
X109800230Y-101741286D01*
X109571620Y-101819767D01*
X109359044Y-101934807D01*
X109168296Y-102083273D01*
X109004598Y-102261097D01*
X108872390Y-102463454D01*
X108775297Y-102684805D01*
X108715963Y-102919112D01*
X108715962Y-102919117D01*
X108696002Y-103160001D01*
X108715962Y-103400885D01*
X108734631Y-103474609D01*
X108759799Y-103573992D01*
X108759133Y-103638372D01*
X108726749Y-103694018D01*
X107048171Y-105372597D01*
X107007297Y-105399909D01*
X106959079Y-105409500D01*
X104351069Y-105409500D01*
X104330231Y-105407199D01*
X104259002Y-105409438D01*
X104255044Y-105409500D01*
X104227015Y-105409500D01*
X104222957Y-105410012D01*
X104211144Y-105410941D01*
X104166792Y-105412335D01*
X104147252Y-105418012D01*
X104127902Y-105422020D01*
X104107702Y-105424572D01*
X104066437Y-105440910D01*
X104055210Y-105444753D01*
X104012608Y-105457130D01*
X103995091Y-105467490D01*
X103977344Y-105476184D01*
X103958411Y-105483680D01*
X103922513Y-105509762D01*
X103912595Y-105516277D01*
X103874400Y-105538865D01*
X103860003Y-105553262D01*
X103844978Y-105566094D01*
X103828513Y-105578057D01*
X103800220Y-105612256D01*
X103792233Y-105621032D01*
X103348678Y-106064587D01*
X103348676Y-106064590D01*
X99214672Y-110198595D01*
X99173795Y-110225909D01*
X99125577Y-110235500D01*
X92323190Y-110235500D01*
X92262805Y-110220088D01*
X92217192Y-110177621D01*
X92197511Y-110118489D01*
X92208576Y-110057158D01*
X92247681Y-110008632D01*
X92295399Y-109972910D01*
X92382940Y-109855968D01*
X92433989Y-109719099D01*
X92440495Y-109658595D01*
X92440495Y-108914006D01*
X89524495Y-108914006D01*
X89524495Y-109658595D01*
X89531000Y-109719099D01*
X89582049Y-109855968D01*
X89669590Y-109972910D01*
X89717309Y-110008632D01*
X89756414Y-110057158D01*
X89767479Y-110118489D01*
X89747798Y-110177621D01*
X89702185Y-110220088D01*
X89641800Y-110235500D01*
X87433216Y-110235500D01*
X87369616Y-110218270D01*
X87323409Y-110171293D01*
X87307233Y-110107417D01*
X87325512Y-110044110D01*
X87373247Y-109998686D01*
X87582952Y-109885199D01*
X87582951Y-109885199D01*
X87582954Y-109885198D01*
X87773697Y-109736737D01*
X87937402Y-109558906D01*
X88069605Y-109356555D01*
X88166699Y-109135203D01*
X88226035Y-108900890D01*
X88245995Y-108660006D01*
X88226035Y-108419122D01*
X88222714Y-108406006D01*
X89524495Y-108406006D01*
X90728495Y-108406006D01*
X90728495Y-107202006D01*
X91236495Y-107202006D01*
X91236495Y-108406006D01*
X92440495Y-108406006D01*
X92440495Y-107661417D01*
X92433989Y-107600912D01*
X92382940Y-107464043D01*
X92295399Y-107347101D01*
X92178457Y-107259560D01*
X92041588Y-107208511D01*
X91981084Y-107202006D01*
X91236495Y-107202006D01*
X90728495Y-107202006D01*
X89983906Y-107202006D01*
X89923401Y-107208511D01*
X89786532Y-107259560D01*
X89669590Y-107347101D01*
X89582049Y-107464043D01*
X89531000Y-107600912D01*
X89524495Y-107661417D01*
X89524495Y-108406006D01*
X88222714Y-108406006D01*
X88166699Y-108184809D01*
X88069605Y-107963457D01*
X87937402Y-107761106D01*
X87789933Y-107600912D01*
X87773700Y-107583278D01*
X87773699Y-107583277D01*
X87773697Y-107583275D01*
X87659251Y-107494198D01*
X87582952Y-107434812D01*
X87370376Y-107319772D01*
X87215620Y-107266644D01*
X87141764Y-107241290D01*
X86903351Y-107201506D01*
X86661641Y-107201506D01*
X86423228Y-107241290D01*
X86423225Y-107241290D01*
X86423225Y-107241291D01*
X86194615Y-107319772D01*
X85982039Y-107434812D01*
X85791291Y-107583278D01*
X85627593Y-107761102D01*
X85495385Y-107963459D01*
X85398292Y-108184810D01*
X85338958Y-108419117D01*
X85338957Y-108419122D01*
X85318997Y-108660006D01*
X85338957Y-108900890D01*
X85338957Y-108900893D01*
X85338958Y-108900894D01*
X85398292Y-109135201D01*
X85495385Y-109356552D01*
X85495387Y-109356555D01*
X85627590Y-109558906D01*
X85627593Y-109558909D01*
X85791285Y-109736727D01*
X85791295Y-109736737D01*
X85943889Y-109855505D01*
X85982039Y-109885199D01*
X86191745Y-109998686D01*
X86239480Y-110044110D01*
X86257759Y-110107417D01*
X86241583Y-110171293D01*
X86195376Y-110218270D01*
X86131776Y-110235500D01*
X81340422Y-110235500D01*
X81283219Y-110221767D01*
X81238486Y-110183561D01*
X81215973Y-110129211D01*
X81220589Y-110070564D01*
X81251327Y-110020405D01*
X84427328Y-106844405D01*
X84468205Y-106817091D01*
X84516423Y-106807500D01*
X88053931Y-106807500D01*
X88074769Y-106809800D01*
X88077716Y-106809707D01*
X88077719Y-106809708D01*
X88146012Y-106807561D01*
X88149969Y-106807500D01*
X88177978Y-106807500D01*
X88177983Y-106807500D01*
X88182029Y-106806988D01*
X88193848Y-106806058D01*
X88238205Y-106804665D01*
X88257744Y-106798987D01*
X88277102Y-106794978D01*
X88297299Y-106792427D01*
X88338555Y-106776092D01*
X88349765Y-106772253D01*
X88392393Y-106759869D01*
X88409907Y-106749510D01*
X88427667Y-106740810D01*
X88446586Y-106733320D01*
X88446586Y-106733319D01*
X88446588Y-106733319D01*
X88482499Y-106707227D01*
X88492399Y-106700724D01*
X88530598Y-106678134D01*
X88544991Y-106663740D01*
X88560013Y-106650910D01*
X88576487Y-106638942D01*
X88604786Y-106604733D01*
X88612756Y-106595975D01*
X90583179Y-104625551D01*
X90633832Y-104594655D01*
X90693010Y-104590367D01*
X90786383Y-104605948D01*
X90861638Y-104618507D01*
X90861640Y-104618507D01*
X91103347Y-104618507D01*
X91103350Y-104618507D01*
X91341763Y-104578723D01*
X91570376Y-104500240D01*
X91782953Y-104385199D01*
X91973696Y-104236738D01*
X92137401Y-104058907D01*
X92269604Y-103856556D01*
X92315823Y-103751188D01*
X93931993Y-103751188D01*
X93971097Y-104010621D01*
X93971098Y-104010624D01*
X94048429Y-104261329D01*
X94162265Y-104497710D01*
X94310056Y-104714480D01*
X94310058Y-104714482D01*
X94310060Y-104714485D01*
X94488512Y-104906811D01*
X94693636Y-105070392D01*
X94920850Y-105201574D01*
X95165077Y-105297426D01*
X95420863Y-105355808D01*
X95616999Y-105370506D01*
X95747982Y-105370506D01*
X95747987Y-105370506D01*
X95944123Y-105355808D01*
X96199909Y-105297426D01*
X96444136Y-105201574D01*
X96671350Y-105070392D01*
X96876474Y-104906811D01*
X97054926Y-104714485D01*
X97202721Y-104497710D01*
X97316556Y-104261329D01*
X97393889Y-104010621D01*
X97432993Y-103751188D01*
X97432993Y-103751182D01*
X99509026Y-103751182D01*
X99548130Y-104010615D01*
X99548131Y-104010618D01*
X99625462Y-104261323D01*
X99739298Y-104497704D01*
X99887089Y-104714474D01*
X99887091Y-104714476D01*
X99887093Y-104714479D01*
X100065545Y-104906805D01*
X100270669Y-105070386D01*
X100497883Y-105201568D01*
X100742110Y-105297420D01*
X100997896Y-105355802D01*
X101194032Y-105370500D01*
X101325015Y-105370500D01*
X101325020Y-105370500D01*
X101521156Y-105355802D01*
X101776942Y-105297420D01*
X102021169Y-105201568D01*
X102248383Y-105070386D01*
X102453507Y-104906805D01*
X102631959Y-104714479D01*
X102779754Y-104497704D01*
X102893589Y-104261323D01*
X102970922Y-104010615D01*
X103010026Y-103751182D01*
X103010026Y-103488818D01*
X102970922Y-103229385D01*
X102949520Y-103160001D01*
X104496003Y-103160001D01*
X104515963Y-103400885D01*
X104515963Y-103400888D01*
X104515964Y-103400889D01*
X104575298Y-103635196D01*
X104672391Y-103856547D01*
X104672393Y-103856550D01*
X104804596Y-104058901D01*
X104833176Y-104089947D01*
X104950088Y-104216948D01*
X104968301Y-104236732D01*
X105036424Y-104289754D01*
X105159045Y-104385194D01*
X105293409Y-104457908D01*
X105371621Y-104500234D01*
X105600234Y-104578717D01*
X105838647Y-104618501D01*
X106080354Y-104618501D01*
X106080357Y-104618501D01*
X106318770Y-104578717D01*
X106547383Y-104500234D01*
X106759960Y-104385193D01*
X106950703Y-104236732D01*
X107114408Y-104058901D01*
X107246611Y-103856550D01*
X107343705Y-103635198D01*
X107403041Y-103400885D01*
X107423001Y-103160001D01*
X107403041Y-102919117D01*
X107343705Y-102684804D01*
X107246611Y-102463452D01*
X107114408Y-102261101D01*
X106970791Y-102105091D01*
X106950706Y-102083273D01*
X106950705Y-102083272D01*
X106950703Y-102083270D01*
X106815569Y-101978091D01*
X106759958Y-101934807D01*
X106547382Y-101819767D01*
X106392626Y-101766639D01*
X106318770Y-101741285D01*
X106080357Y-101701501D01*
X105838647Y-101701501D01*
X105600234Y-101741285D01*
X105600231Y-101741285D01*
X105600231Y-101741286D01*
X105371621Y-101819767D01*
X105159045Y-101934807D01*
X104968297Y-102083273D01*
X104804599Y-102261097D01*
X104672391Y-102463454D01*
X104575298Y-102684805D01*
X104515964Y-102919112D01*
X104515963Y-102919117D01*
X104496003Y-103160001D01*
X102949520Y-103160001D01*
X102893589Y-102978677D01*
X102864909Y-102919123D01*
X102781493Y-102745908D01*
X102779754Y-102742296D01*
X102700185Y-102625590D01*
X102631962Y-102525525D01*
X102631960Y-102525523D01*
X102631959Y-102525521D01*
X102453507Y-102333195D01*
X102248383Y-102169614D01*
X102021169Y-102038432D01*
X101776943Y-101942580D01*
X101521157Y-101884198D01*
X101488466Y-101881748D01*
X101325020Y-101869500D01*
X101194032Y-101869500D01*
X101053934Y-101879998D01*
X100997894Y-101884198D01*
X100742108Y-101942580D01*
X100497882Y-102038432D01*
X100270672Y-102169612D01*
X100270669Y-102169614D01*
X100065545Y-102333195D01*
X99944683Y-102463454D01*
X99887089Y-102525525D01*
X99739298Y-102742295D01*
X99625462Y-102978676D01*
X99559428Y-103192758D01*
X99548130Y-103229385D01*
X99509026Y-103488818D01*
X99509026Y-103751182D01*
X97432993Y-103751182D01*
X97432993Y-103488824D01*
X97393889Y-103229391D01*
X97316556Y-102978683D01*
X97316553Y-102978677D01*
X97261735Y-102864846D01*
X97202721Y-102742302D01*
X97054926Y-102525527D01*
X96876474Y-102333201D01*
X96671350Y-102169620D01*
X96444136Y-102038438D01*
X96290377Y-101978092D01*
X96199910Y-101942586D01*
X95944124Y-101884204D01*
X95911433Y-101881754D01*
X95747987Y-101869506D01*
X95616999Y-101869506D01*
X95476901Y-101880004D01*
X95420861Y-101884204D01*
X95165075Y-101942586D01*
X94920849Y-102038438D01*
X94693646Y-102169614D01*
X94693636Y-102169620D01*
X94488512Y-102333201D01*
X94367650Y-102463460D01*
X94310056Y-102525531D01*
X94162265Y-102742301D01*
X94048429Y-102978682D01*
X93971100Y-103229381D01*
X93971097Y-103229391D01*
X93931993Y-103488824D01*
X93931993Y-103751188D01*
X92315823Y-103751188D01*
X92366698Y-103635204D01*
X92426034Y-103400891D01*
X92445994Y-103160007D01*
X92426034Y-102919123D01*
X92366698Y-102684810D01*
X92269604Y-102463458D01*
X92137401Y-102261107D01*
X91973696Y-102083276D01*
X91859250Y-101994199D01*
X91782951Y-101934813D01*
X91570375Y-101819773D01*
X91415619Y-101766645D01*
X91341763Y-101741291D01*
X91103350Y-101701507D01*
X90861640Y-101701507D01*
X90623227Y-101741291D01*
X90623224Y-101741291D01*
X90623224Y-101741292D01*
X90394614Y-101819773D01*
X90182038Y-101934813D01*
X89991290Y-102083279D01*
X89827592Y-102261103D01*
X89695384Y-102463460D01*
X89598291Y-102684811D01*
X89538957Y-102919118D01*
X89538956Y-102919123D01*
X89518996Y-103160007D01*
X89538956Y-103400891D01*
X89598292Y-103635204D01*
X89617914Y-103679937D01*
X89628514Y-103728815D01*
X89619264Y-103777965D01*
X89591621Y-103819645D01*
X87911672Y-105499595D01*
X87870795Y-105526909D01*
X87822577Y-105536500D01*
X84285074Y-105536500D01*
X84264228Y-105534198D01*
X84192970Y-105536438D01*
X84189012Y-105536500D01*
X84161015Y-105536500D01*
X84156975Y-105537010D01*
X84145154Y-105537940D01*
X84100794Y-105539334D01*
X84081243Y-105545014D01*
X84061894Y-105549021D01*
X84041699Y-105551573D01*
X84000441Y-105567907D01*
X83989218Y-105571750D01*
X83946607Y-105584130D01*
X83929083Y-105594494D01*
X83911337Y-105603187D01*
X83892413Y-105610680D01*
X83856512Y-105636763D01*
X83846594Y-105643277D01*
X83808402Y-105665864D01*
X83794003Y-105680262D01*
X83778978Y-105693094D01*
X83762513Y-105705057D01*
X83734220Y-105739256D01*
X83726233Y-105748032D01*
X77116672Y-112357595D01*
X77075795Y-112384909D01*
X77027577Y-112394500D01*
X76617468Y-112394500D01*
X76555363Y-112378131D01*
X76509394Y-112333277D01*
X76491506Y-112271592D01*
X76506346Y-112209104D01*
X76532247Y-112160647D01*
X76591824Y-111964248D01*
X76611941Y-111760000D01*
X76591824Y-111555752D01*
X76578368Y-111511395D01*
X76551813Y-111423854D01*
X76532247Y-111359353D01*
X76438446Y-111183863D01*
X76423569Y-111124470D01*
X76438447Y-111065073D01*
X76531783Y-110890455D01*
X76591332Y-110694145D01*
X76611439Y-110489999D01*
X76591332Y-110285854D01*
X76531783Y-110089544D01*
X76459637Y-109954570D01*
X75731082Y-110683126D01*
X75684436Y-110712665D01*
X75629638Y-110719424D01*
X75565001Y-110713058D01*
X75360754Y-110733175D01*
X75270610Y-110760520D01*
X75204620Y-110762463D01*
X75146706Y-110730772D01*
X75112765Y-110674146D01*
X75112118Y-110608130D01*
X75144940Y-110550849D01*
X75205790Y-110490000D01*
X75205790Y-110489999D01*
X74930001Y-110214210D01*
X74929999Y-110214210D01*
X74654210Y-110489999D01*
X74654210Y-110490001D01*
X74715059Y-110550850D01*
X74747881Y-110608131D01*
X74747233Y-110674146D01*
X74713293Y-110730772D01*
X74655378Y-110762464D01*
X74589389Y-110760520D01*
X74499248Y-110733176D01*
X74499245Y-110733175D01*
X74499243Y-110733175D01*
X74294998Y-110713058D01*
X74230360Y-110719424D01*
X74175562Y-110712665D01*
X74128915Y-110683126D01*
X73400360Y-109954571D01*
X73328217Y-110089542D01*
X73268667Y-110285854D01*
X73248560Y-110489999D01*
X73268667Y-110694145D01*
X73328217Y-110890458D01*
X73421552Y-111065073D01*
X73436430Y-111124468D01*
X73421552Y-111183864D01*
X73327752Y-111359352D01*
X73268175Y-111555751D01*
X73248058Y-111760000D01*
X73268175Y-111964248D01*
X73327752Y-112160647D01*
X73421268Y-112335605D01*
X73436146Y-112395000D01*
X73421268Y-112454395D01*
X73327752Y-112629352D01*
X73268175Y-112825751D01*
X73248058Y-113030000D01*
X73268175Y-113234248D01*
X73281721Y-113278901D01*
X73327753Y-113430647D01*
X73421269Y-113605605D01*
X73436147Y-113664999D01*
X73421269Y-113724394D01*
X73327752Y-113899352D01*
X73268175Y-114095751D01*
X73248058Y-114299999D01*
X73268175Y-114504248D01*
X73327752Y-114700644D01*
X73327753Y-114700647D01*
X73421269Y-114875605D01*
X73436147Y-114934999D01*
X73421269Y-114994394D01*
X73327752Y-115169352D01*
X73268175Y-115365751D01*
X73248058Y-115570000D01*
X73268175Y-115774248D01*
X73327752Y-115970645D01*
X73327753Y-115970647D01*
X73345820Y-116004449D01*
X73421269Y-116145604D01*
X73436147Y-116205000D01*
X73421269Y-116264396D01*
X73327752Y-116439354D01*
X73268175Y-116635751D01*
X73248058Y-116840000D01*
X73268175Y-117044248D01*
X73324068Y-117228500D01*
X73327753Y-117240647D01*
X73421269Y-117415605D01*
X73436147Y-117474999D01*
X73421269Y-117534394D01*
X73327752Y-117709352D01*
X73268175Y-117905751D01*
X73248058Y-118110000D01*
X73268175Y-118314248D01*
X73327752Y-118510644D01*
X73327753Y-118510647D01*
X73421269Y-118685605D01*
X73436147Y-118744999D01*
X73421269Y-118804394D01*
X73327752Y-118979352D01*
X73268175Y-119175751D01*
X73248058Y-119379999D01*
X73268175Y-119584248D01*
X73327752Y-119780647D01*
X73421268Y-119955605D01*
X73436146Y-120015000D01*
X73421268Y-120074395D01*
X73327752Y-120249352D01*
X73268175Y-120445751D01*
X73248058Y-120649999D01*
X73268175Y-120854248D01*
X73327752Y-121050645D01*
X73421269Y-121225604D01*
X73436147Y-121285000D01*
X73421269Y-121344396D01*
X73327752Y-121519354D01*
X73268175Y-121715751D01*
X73248058Y-121920000D01*
X73268175Y-122124248D01*
X73327752Y-122320644D01*
X73327753Y-122320647D01*
X73421269Y-122495605D01*
X73436147Y-122554999D01*
X73421269Y-122614394D01*
X73327752Y-122789352D01*
X73268175Y-122985751D01*
X73248058Y-123190000D01*
X73268175Y-123394248D01*
X73327752Y-123590644D01*
X73327753Y-123590647D01*
X73421269Y-123765604D01*
X73436147Y-123824999D01*
X73421269Y-123884394D01*
X73327752Y-124059352D01*
X73268175Y-124255751D01*
X73248058Y-124460000D01*
X73268175Y-124664248D01*
X73327752Y-124860644D01*
X73327753Y-124860647D01*
X73421269Y-125035604D01*
X73436147Y-125094999D01*
X73421269Y-125154394D01*
X73327752Y-125329352D01*
X73268175Y-125525751D01*
X73248058Y-125729999D01*
X71120500Y-125729999D01*
X71120500Y-109595361D01*
X73759570Y-109595361D01*
X74294999Y-110130790D01*
X74295000Y-110130790D01*
X74830427Y-109595360D01*
X75029569Y-109595360D01*
X75564999Y-110130790D01*
X75565000Y-110130790D01*
X76100427Y-109595361D01*
X75965457Y-109523217D01*
X75769145Y-109463667D01*
X75565000Y-109443560D01*
X75360854Y-109463667D01*
X75164539Y-109523218D01*
X75029569Y-109595360D01*
X74830427Y-109595360D01*
X74695457Y-109523217D01*
X74499145Y-109463667D01*
X74295000Y-109443560D01*
X74090854Y-109463667D01*
X73894542Y-109523217D01*
X73759571Y-109595360D01*
X73759570Y-109595361D01*
X71120500Y-109595361D01*
X71120500Y-102411905D01*
X72779793Y-102411905D01*
X72789672Y-102719975D01*
X72821867Y-102919112D01*
X72838867Y-103024261D01*
X72888876Y-103192758D01*
X72926570Y-103319758D01*
X73051336Y-103601609D01*
X73211119Y-103865189D01*
X73245194Y-103907917D01*
X73403304Y-104106181D01*
X73624723Y-104320613D01*
X73624724Y-104320614D01*
X73871748Y-104504973D01*
X74140317Y-104656228D01*
X74294483Y-104718643D01*
X74426025Y-104771899D01*
X74724179Y-104850084D01*
X75029883Y-104889500D01*
X75260974Y-104889500D01*
X75260976Y-104889500D01*
X75491603Y-104874693D01*
X75794146Y-104815773D01*
X75794146Y-104815772D01*
X75794151Y-104815772D01*
X76086683Y-104718644D01*
X76364393Y-104584907D01*
X76622720Y-104416754D01*
X76857424Y-104216948D01*
X77064650Y-103988769D01*
X77230376Y-103751188D01*
X80332020Y-103751188D01*
X80371124Y-104010621D01*
X80371125Y-104010624D01*
X80448456Y-104261329D01*
X80562292Y-104497710D01*
X80710083Y-104714480D01*
X80710085Y-104714482D01*
X80710087Y-104714485D01*
X80888539Y-104906811D01*
X81093663Y-105070392D01*
X81320877Y-105201574D01*
X81565104Y-105297426D01*
X81820890Y-105355808D01*
X82017026Y-105370506D01*
X82148009Y-105370506D01*
X82148014Y-105370506D01*
X82344150Y-105355808D01*
X82599936Y-105297426D01*
X82844163Y-105201574D01*
X83071377Y-105070392D01*
X83276501Y-104906811D01*
X83454953Y-104714485D01*
X83602748Y-104497710D01*
X83716583Y-104261329D01*
X83793916Y-104010621D01*
X83833020Y-103751188D01*
X83833020Y-103488824D01*
X83793916Y-103229391D01*
X83772514Y-103160007D01*
X85318997Y-103160007D01*
X85338957Y-103400891D01*
X85338957Y-103400894D01*
X85338958Y-103400895D01*
X85398292Y-103635202D01*
X85495385Y-103856553D01*
X85495387Y-103856556D01*
X85627590Y-104058907D01*
X85627593Y-104058910D01*
X85791285Y-104236728D01*
X85791295Y-104236738D01*
X85899059Y-104320614D01*
X85982039Y-104385200D01*
X86116392Y-104457908D01*
X86194615Y-104500240D01*
X86423228Y-104578723D01*
X86661641Y-104618507D01*
X86903348Y-104618507D01*
X86903351Y-104618507D01*
X87141764Y-104578723D01*
X87370377Y-104500240D01*
X87582954Y-104385199D01*
X87773697Y-104236738D01*
X87937402Y-104058907D01*
X88069605Y-103856556D01*
X88166699Y-103635204D01*
X88226035Y-103400891D01*
X88245995Y-103160007D01*
X88226035Y-102919123D01*
X88166699Y-102684810D01*
X88069605Y-102463458D01*
X87937402Y-102261107D01*
X87773697Y-102083276D01*
X87659251Y-101994199D01*
X87582952Y-101934813D01*
X87370376Y-101819773D01*
X87215620Y-101766645D01*
X87141764Y-101741291D01*
X86903351Y-101701507D01*
X86661641Y-101701507D01*
X86423228Y-101741291D01*
X86423225Y-101741291D01*
X86423225Y-101741292D01*
X86194615Y-101819773D01*
X85982039Y-101934813D01*
X85791291Y-102083279D01*
X85627593Y-102261103D01*
X85495385Y-102463460D01*
X85398292Y-102684811D01*
X85338958Y-102919118D01*
X85338957Y-102919123D01*
X85318997Y-103160007D01*
X83772514Y-103160007D01*
X83716583Y-102978683D01*
X83716580Y-102978677D01*
X83661762Y-102864846D01*
X83602748Y-102742302D01*
X83454953Y-102525527D01*
X83276501Y-102333201D01*
X83071377Y-102169620D01*
X82844163Y-102038438D01*
X82690404Y-101978092D01*
X82599937Y-101942586D01*
X82344151Y-101884204D01*
X82311460Y-101881754D01*
X82148014Y-101869506D01*
X82017026Y-101869506D01*
X81876928Y-101880004D01*
X81820888Y-101884204D01*
X81565102Y-101942586D01*
X81320876Y-102038438D01*
X81093673Y-102169614D01*
X81093663Y-102169620D01*
X80888539Y-102333201D01*
X80767677Y-102463460D01*
X80710083Y-102525531D01*
X80562292Y-102742301D01*
X80448456Y-102978682D01*
X80371127Y-103229381D01*
X80371124Y-103229391D01*
X80332020Y-103488824D01*
X80332020Y-103751188D01*
X77230376Y-103751188D01*
X77240996Y-103735963D01*
X77383567Y-103462683D01*
X77490020Y-103173415D01*
X77558609Y-102872908D01*
X77588206Y-102566098D01*
X77584914Y-102463452D01*
X77578327Y-102258024D01*
X77578327Y-102258022D01*
X77529133Y-101953739D01*
X77441431Y-101658244D01*
X77366211Y-101488322D01*
X77316663Y-101376390D01*
X77156880Y-101112810D01*
X77098861Y-101040057D01*
X76964696Y-100871819D01*
X76743276Y-100657386D01*
X76712011Y-100634052D01*
X76496251Y-100473026D01*
X76227682Y-100321771D01*
X75941976Y-100206101D01*
X75643826Y-100127917D01*
X75643823Y-100127916D01*
X75643821Y-100127916D01*
X75338117Y-100088500D01*
X75107026Y-100088500D01*
X75107024Y-100088500D01*
X74876396Y-100103306D01*
X74573853Y-100162226D01*
X74281314Y-100259356D01*
X74003609Y-100393091D01*
X73745278Y-100561247D01*
X73510576Y-100761052D01*
X73303351Y-100989229D01*
X73127000Y-101242042D01*
X72984434Y-101515314D01*
X72877980Y-101804583D01*
X72809391Y-102105091D01*
X72779793Y-102411905D01*
X71120500Y-102411905D01*
X71120500Y-98551500D01*
X71137381Y-98488500D01*
X71183500Y-98442381D01*
X71246500Y-98425500D01*
X164211500Y-98425500D01*
X164274500Y-98442381D01*
G37*
%TD.AperFunction*%
%TD*%
M02*
