%TF.GenerationSoftware,KiCad,Pcbnew,7.0.1*%
%TF.CreationDate,2023-04-04T11:35:34-07:00*%
%TF.ProjectId,PT Hub,50542048-7562-42e6-9b69-6361645f7063,v01*%
%TF.SameCoordinates,Original*%
%TF.FileFunction,Drillmap*%
%TF.FilePolarity,Positive*%
%FSLAX45Y45*%
G04 Gerber Fmt 4.5, Leading zero omitted, Abs format (unit mm)*
G04 Created by KiCad (PCBNEW 7.0.1) date 2023-04-04 11:35:34*
%MOMM*%
%LPD*%
G01*
G04 APERTURE LIST*
%ADD10C,0.100000*%
%ADD11C,0.200000*%
%ADD12C,0.299999*%
%ADD13C,0.430000*%
G04 APERTURE END LIST*
D10*
X7099300Y-13799820D02*
X16446500Y-13799820D01*
X7099300Y-9829800D02*
X7099300Y-13799820D01*
X16446500Y-13799820D02*
X16446500Y-9829800D01*
X16446500Y-9829800D02*
X7099300Y-9829800D01*
D11*
D12*
X8058252Y-10212001D02*
X8358252Y-10512001D01*
X8358252Y-10212001D02*
X8058252Y-10512001D01*
X8087150Y-13110000D02*
X8387150Y-13410000D01*
X8387150Y-13110000D02*
X8087150Y-13410000D01*
X9418249Y-10212001D02*
X9718249Y-10512001D01*
X9718249Y-10212001D02*
X9418249Y-10512001D01*
X9447148Y-13110000D02*
X9747147Y-13410000D01*
X9747147Y-13110000D02*
X9447148Y-13410000D01*
X9975953Y-10212000D02*
X10275953Y-10512000D01*
X10275953Y-10212000D02*
X9975953Y-10512000D01*
X10004850Y-13110000D02*
X10304850Y-13410000D01*
X10304850Y-13110000D02*
X10004850Y-13410000D01*
X11335950Y-10212000D02*
X11635950Y-10512000D01*
X11635950Y-10212000D02*
X11335950Y-10512000D01*
X11364848Y-13110000D02*
X11664847Y-13410000D01*
X11664847Y-13110000D02*
X11364848Y-13410000D01*
X11893653Y-10212000D02*
X12193652Y-10512000D01*
X12193652Y-10212000D02*
X11893653Y-10512000D01*
X11922550Y-13110000D02*
X12222550Y-13410000D01*
X12222550Y-13110000D02*
X11922550Y-13410000D01*
X13253650Y-10212000D02*
X13553650Y-10512000D01*
X13553650Y-10212000D02*
X13253650Y-10512000D01*
X13282548Y-13110000D02*
X13582547Y-13410000D01*
X13582547Y-13110000D02*
X13282548Y-13410000D01*
X13811353Y-10212000D02*
X14111352Y-10512000D01*
X14111352Y-10212000D02*
X13811353Y-10512000D01*
X13845300Y-13110000D02*
X14145300Y-13410000D01*
X14145300Y-13110000D02*
X13845300Y-13410000D01*
X15171350Y-10212000D02*
X15471350Y-10512000D01*
X15471350Y-10212000D02*
X15171350Y-10512000D01*
X15205298Y-13110000D02*
X15505297Y-13410000D01*
X15505297Y-13110000D02*
X15205298Y-13410000D01*
D13*
X7733400Y-10248900D02*
G75*
G03*
X7733400Y-10248900I-215000J0D01*
G01*
X7758800Y-13373100D02*
G75*
G03*
X7758800Y-13373100I-215000J0D01*
G01*
X16242400Y-10236200D02*
G75*
G03*
X16242400Y-10236200I-215000J0D01*
G01*
X16242400Y-13373100D02*
G75*
G03*
X16242400Y-13373100I-215000J0D01*
G01*
D11*
X7341919Y-14117344D02*
X7341919Y-13917344D01*
X7341919Y-13917344D02*
X7389538Y-13917344D01*
X7389538Y-13917344D02*
X7418109Y-13926868D01*
X7418109Y-13926868D02*
X7437157Y-13945915D01*
X7437157Y-13945915D02*
X7446681Y-13964963D01*
X7446681Y-13964963D02*
X7456205Y-14003058D01*
X7456205Y-14003058D02*
X7456205Y-14031629D01*
X7456205Y-14031629D02*
X7446681Y-14069725D01*
X7446681Y-14069725D02*
X7437157Y-14088772D01*
X7437157Y-14088772D02*
X7418109Y-14107820D01*
X7418109Y-14107820D02*
X7389538Y-14117344D01*
X7389538Y-14117344D02*
X7341919Y-14117344D01*
X7541919Y-14117344D02*
X7541919Y-13984010D01*
X7541919Y-14022106D02*
X7551443Y-14003058D01*
X7551443Y-14003058D02*
X7560967Y-13993534D01*
X7560967Y-13993534D02*
X7580014Y-13984010D01*
X7580014Y-13984010D02*
X7599062Y-13984010D01*
X7665728Y-14117344D02*
X7665728Y-13984010D01*
X7665728Y-13917344D02*
X7656205Y-13926868D01*
X7656205Y-13926868D02*
X7665728Y-13936391D01*
X7665728Y-13936391D02*
X7675252Y-13926868D01*
X7675252Y-13926868D02*
X7665728Y-13917344D01*
X7665728Y-13917344D02*
X7665728Y-13936391D01*
X7789538Y-14117344D02*
X7770490Y-14107820D01*
X7770490Y-14107820D02*
X7760967Y-14088772D01*
X7760967Y-14088772D02*
X7760967Y-13917344D01*
X7894300Y-14117344D02*
X7875252Y-14107820D01*
X7875252Y-14107820D02*
X7865728Y-14088772D01*
X7865728Y-14088772D02*
X7865728Y-13917344D01*
X8122871Y-14117344D02*
X8122871Y-13917344D01*
X8122871Y-13917344D02*
X8189538Y-14060201D01*
X8189538Y-14060201D02*
X8256205Y-13917344D01*
X8256205Y-13917344D02*
X8256205Y-14117344D01*
X8437157Y-14117344D02*
X8437157Y-14012582D01*
X8437157Y-14012582D02*
X8427633Y-13993534D01*
X8427633Y-13993534D02*
X8408586Y-13984010D01*
X8408586Y-13984010D02*
X8370490Y-13984010D01*
X8370490Y-13984010D02*
X8351443Y-13993534D01*
X8437157Y-14107820D02*
X8418110Y-14117344D01*
X8418110Y-14117344D02*
X8370490Y-14117344D01*
X8370490Y-14117344D02*
X8351443Y-14107820D01*
X8351443Y-14107820D02*
X8341919Y-14088772D01*
X8341919Y-14088772D02*
X8341919Y-14069725D01*
X8341919Y-14069725D02*
X8351443Y-14050677D01*
X8351443Y-14050677D02*
X8370490Y-14041153D01*
X8370490Y-14041153D02*
X8418110Y-14041153D01*
X8418110Y-14041153D02*
X8437157Y-14031629D01*
X8532395Y-13984010D02*
X8532395Y-14184010D01*
X8532395Y-13993534D02*
X8551443Y-13984010D01*
X8551443Y-13984010D02*
X8589538Y-13984010D01*
X8589538Y-13984010D02*
X8608586Y-13993534D01*
X8608586Y-13993534D02*
X8618110Y-14003058D01*
X8618110Y-14003058D02*
X8627633Y-14022106D01*
X8627633Y-14022106D02*
X8627633Y-14079248D01*
X8627633Y-14079248D02*
X8618110Y-14098296D01*
X8618110Y-14098296D02*
X8608586Y-14107820D01*
X8608586Y-14107820D02*
X8589538Y-14117344D01*
X8589538Y-14117344D02*
X8551443Y-14117344D01*
X8551443Y-14117344D02*
X8532395Y-14107820D01*
X8713348Y-14098296D02*
X8722871Y-14107820D01*
X8722871Y-14107820D02*
X8713348Y-14117344D01*
X8713348Y-14117344D02*
X8703824Y-14107820D01*
X8703824Y-14107820D02*
X8713348Y-14098296D01*
X8713348Y-14098296D02*
X8713348Y-14117344D01*
X8713348Y-13993534D02*
X8722871Y-14003058D01*
X8722871Y-14003058D02*
X8713348Y-14012582D01*
X8713348Y-14012582D02*
X8703824Y-14003058D01*
X8703824Y-14003058D02*
X8713348Y-13993534D01*
X8713348Y-13993534D02*
X8713348Y-14012582D01*
X6894300Y-14344820D02*
X7094300Y-14544820D01*
X7094300Y-14344820D02*
X6894300Y-14544820D01*
X7322871Y-14337344D02*
X7446681Y-14337344D01*
X7446681Y-14337344D02*
X7380014Y-14413534D01*
X7380014Y-14413534D02*
X7408586Y-14413534D01*
X7408586Y-14413534D02*
X7427633Y-14423058D01*
X7427633Y-14423058D02*
X7437157Y-14432582D01*
X7437157Y-14432582D02*
X7446681Y-14451629D01*
X7446681Y-14451629D02*
X7446681Y-14499248D01*
X7446681Y-14499248D02*
X7437157Y-14518296D01*
X7437157Y-14518296D02*
X7427633Y-14527820D01*
X7427633Y-14527820D02*
X7408586Y-14537344D01*
X7408586Y-14537344D02*
X7351443Y-14537344D01*
X7351443Y-14537344D02*
X7332395Y-14527820D01*
X7332395Y-14527820D02*
X7322871Y-14518296D01*
X7532395Y-14518296D02*
X7541919Y-14527820D01*
X7541919Y-14527820D02*
X7532395Y-14537344D01*
X7532395Y-14537344D02*
X7522871Y-14527820D01*
X7522871Y-14527820D02*
X7532395Y-14518296D01*
X7532395Y-14518296D02*
X7532395Y-14537344D01*
X7665728Y-14337344D02*
X7684776Y-14337344D01*
X7684776Y-14337344D02*
X7703824Y-14346868D01*
X7703824Y-14346868D02*
X7713348Y-14356391D01*
X7713348Y-14356391D02*
X7722871Y-14375439D01*
X7722871Y-14375439D02*
X7732395Y-14413534D01*
X7732395Y-14413534D02*
X7732395Y-14461153D01*
X7732395Y-14461153D02*
X7722871Y-14499248D01*
X7722871Y-14499248D02*
X7713348Y-14518296D01*
X7713348Y-14518296D02*
X7703824Y-14527820D01*
X7703824Y-14527820D02*
X7684776Y-14537344D01*
X7684776Y-14537344D02*
X7665728Y-14537344D01*
X7665728Y-14537344D02*
X7646681Y-14527820D01*
X7646681Y-14527820D02*
X7637157Y-14518296D01*
X7637157Y-14518296D02*
X7627633Y-14499248D01*
X7627633Y-14499248D02*
X7618109Y-14461153D01*
X7618109Y-14461153D02*
X7618109Y-14413534D01*
X7618109Y-14413534D02*
X7627633Y-14375439D01*
X7627633Y-14375439D02*
X7637157Y-14356391D01*
X7637157Y-14356391D02*
X7646681Y-14346868D01*
X7646681Y-14346868D02*
X7665728Y-14337344D01*
X7856205Y-14337344D02*
X7875252Y-14337344D01*
X7875252Y-14337344D02*
X7894300Y-14346868D01*
X7894300Y-14346868D02*
X7903824Y-14356391D01*
X7903824Y-14356391D02*
X7913348Y-14375439D01*
X7913348Y-14375439D02*
X7922871Y-14413534D01*
X7922871Y-14413534D02*
X7922871Y-14461153D01*
X7922871Y-14461153D02*
X7913348Y-14499248D01*
X7913348Y-14499248D02*
X7903824Y-14518296D01*
X7903824Y-14518296D02*
X7894300Y-14527820D01*
X7894300Y-14527820D02*
X7875252Y-14537344D01*
X7875252Y-14537344D02*
X7856205Y-14537344D01*
X7856205Y-14537344D02*
X7837157Y-14527820D01*
X7837157Y-14527820D02*
X7827633Y-14518296D01*
X7827633Y-14518296D02*
X7818109Y-14499248D01*
X7818109Y-14499248D02*
X7808586Y-14461153D01*
X7808586Y-14461153D02*
X7808586Y-14413534D01*
X7808586Y-14413534D02*
X7818109Y-14375439D01*
X7818109Y-14375439D02*
X7827633Y-14356391D01*
X7827633Y-14356391D02*
X7837157Y-14346868D01*
X7837157Y-14346868D02*
X7856205Y-14337344D01*
X8046681Y-14337344D02*
X8065729Y-14337344D01*
X8065729Y-14337344D02*
X8084776Y-14346868D01*
X8084776Y-14346868D02*
X8094300Y-14356391D01*
X8094300Y-14356391D02*
X8103824Y-14375439D01*
X8103824Y-14375439D02*
X8113348Y-14413534D01*
X8113348Y-14413534D02*
X8113348Y-14461153D01*
X8113348Y-14461153D02*
X8103824Y-14499248D01*
X8103824Y-14499248D02*
X8094300Y-14518296D01*
X8094300Y-14518296D02*
X8084776Y-14527820D01*
X8084776Y-14527820D02*
X8065729Y-14537344D01*
X8065729Y-14537344D02*
X8046681Y-14537344D01*
X8046681Y-14537344D02*
X8027633Y-14527820D01*
X8027633Y-14527820D02*
X8018109Y-14518296D01*
X8018109Y-14518296D02*
X8008586Y-14499248D01*
X8008586Y-14499248D02*
X7999062Y-14461153D01*
X7999062Y-14461153D02*
X7999062Y-14413534D01*
X7999062Y-14413534D02*
X8008586Y-14375439D01*
X8008586Y-14375439D02*
X8018109Y-14356391D01*
X8018109Y-14356391D02*
X8027633Y-14346868D01*
X8027633Y-14346868D02*
X8046681Y-14337344D01*
X8199062Y-14537344D02*
X8199062Y-14404010D01*
X8199062Y-14423058D02*
X8208586Y-14413534D01*
X8208586Y-14413534D02*
X8227633Y-14404010D01*
X8227633Y-14404010D02*
X8256205Y-14404010D01*
X8256205Y-14404010D02*
X8275252Y-14413534D01*
X8275252Y-14413534D02*
X8284776Y-14432582D01*
X8284776Y-14432582D02*
X8284776Y-14537344D01*
X8284776Y-14432582D02*
X8294300Y-14413534D01*
X8294300Y-14413534D02*
X8313348Y-14404010D01*
X8313348Y-14404010D02*
X8341919Y-14404010D01*
X8341919Y-14404010D02*
X8360967Y-14413534D01*
X8360967Y-14413534D02*
X8370490Y-14432582D01*
X8370490Y-14432582D02*
X8370490Y-14537344D01*
X8465729Y-14537344D02*
X8465729Y-14404010D01*
X8465729Y-14423058D02*
X8475252Y-14413534D01*
X8475252Y-14413534D02*
X8494300Y-14404010D01*
X8494300Y-14404010D02*
X8522872Y-14404010D01*
X8522872Y-14404010D02*
X8541919Y-14413534D01*
X8541919Y-14413534D02*
X8551443Y-14432582D01*
X8551443Y-14432582D02*
X8551443Y-14537344D01*
X8551443Y-14432582D02*
X8560967Y-14413534D01*
X8560967Y-14413534D02*
X8580014Y-14404010D01*
X8580014Y-14404010D02*
X8608586Y-14404010D01*
X8608586Y-14404010D02*
X8627633Y-14413534D01*
X8627633Y-14413534D02*
X8637157Y-14432582D01*
X8637157Y-14432582D02*
X8637157Y-14537344D01*
X9027633Y-14327820D02*
X8856205Y-14584963D01*
X9284776Y-14337344D02*
X9303824Y-14337344D01*
X9303824Y-14337344D02*
X9322872Y-14346868D01*
X9322872Y-14346868D02*
X9332395Y-14356391D01*
X9332395Y-14356391D02*
X9341919Y-14375439D01*
X9341919Y-14375439D02*
X9351443Y-14413534D01*
X9351443Y-14413534D02*
X9351443Y-14461153D01*
X9351443Y-14461153D02*
X9341919Y-14499248D01*
X9341919Y-14499248D02*
X9332395Y-14518296D01*
X9332395Y-14518296D02*
X9322872Y-14527820D01*
X9322872Y-14527820D02*
X9303824Y-14537344D01*
X9303824Y-14537344D02*
X9284776Y-14537344D01*
X9284776Y-14537344D02*
X9265729Y-14527820D01*
X9265729Y-14527820D02*
X9256205Y-14518296D01*
X9256205Y-14518296D02*
X9246681Y-14499248D01*
X9246681Y-14499248D02*
X9237157Y-14461153D01*
X9237157Y-14461153D02*
X9237157Y-14413534D01*
X9237157Y-14413534D02*
X9246681Y-14375439D01*
X9246681Y-14375439D02*
X9256205Y-14356391D01*
X9256205Y-14356391D02*
X9265729Y-14346868D01*
X9265729Y-14346868D02*
X9284776Y-14337344D01*
X9437157Y-14518296D02*
X9446681Y-14527820D01*
X9446681Y-14527820D02*
X9437157Y-14537344D01*
X9437157Y-14537344D02*
X9427634Y-14527820D01*
X9427634Y-14527820D02*
X9437157Y-14518296D01*
X9437157Y-14518296D02*
X9437157Y-14537344D01*
X9637157Y-14537344D02*
X9522872Y-14537344D01*
X9580014Y-14537344D02*
X9580014Y-14337344D01*
X9580014Y-14337344D02*
X9560967Y-14365915D01*
X9560967Y-14365915D02*
X9541919Y-14384963D01*
X9541919Y-14384963D02*
X9522872Y-14394487D01*
X9827634Y-14537344D02*
X9713348Y-14537344D01*
X9770491Y-14537344D02*
X9770491Y-14337344D01*
X9770491Y-14337344D02*
X9751443Y-14365915D01*
X9751443Y-14365915D02*
X9732395Y-14384963D01*
X9732395Y-14384963D02*
X9713348Y-14394487D01*
X9941919Y-14423058D02*
X9922872Y-14413534D01*
X9922872Y-14413534D02*
X9913348Y-14404010D01*
X9913348Y-14404010D02*
X9903824Y-14384963D01*
X9903824Y-14384963D02*
X9903824Y-14375439D01*
X9903824Y-14375439D02*
X9913348Y-14356391D01*
X9913348Y-14356391D02*
X9922872Y-14346868D01*
X9922872Y-14346868D02*
X9941919Y-14337344D01*
X9941919Y-14337344D02*
X9980015Y-14337344D01*
X9980015Y-14337344D02*
X9999062Y-14346868D01*
X9999062Y-14346868D02*
X10008586Y-14356391D01*
X10008586Y-14356391D02*
X10018110Y-14375439D01*
X10018110Y-14375439D02*
X10018110Y-14384963D01*
X10018110Y-14384963D02*
X10008586Y-14404010D01*
X10008586Y-14404010D02*
X9999062Y-14413534D01*
X9999062Y-14413534D02*
X9980015Y-14423058D01*
X9980015Y-14423058D02*
X9941919Y-14423058D01*
X9941919Y-14423058D02*
X9922872Y-14432582D01*
X9922872Y-14432582D02*
X9913348Y-14442106D01*
X9913348Y-14442106D02*
X9903824Y-14461153D01*
X9903824Y-14461153D02*
X9903824Y-14499248D01*
X9903824Y-14499248D02*
X9913348Y-14518296D01*
X9913348Y-14518296D02*
X9922872Y-14527820D01*
X9922872Y-14527820D02*
X9941919Y-14537344D01*
X9941919Y-14537344D02*
X9980015Y-14537344D01*
X9980015Y-14537344D02*
X9999062Y-14527820D01*
X9999062Y-14527820D02*
X10008586Y-14518296D01*
X10008586Y-14518296D02*
X10018110Y-14499248D01*
X10018110Y-14499248D02*
X10018110Y-14461153D01*
X10018110Y-14461153D02*
X10008586Y-14442106D01*
X10008586Y-14442106D02*
X9999062Y-14432582D01*
X9999062Y-14432582D02*
X9980015Y-14423058D01*
X10208586Y-14537344D02*
X10094300Y-14537344D01*
X10151443Y-14537344D02*
X10151443Y-14337344D01*
X10151443Y-14337344D02*
X10132395Y-14365915D01*
X10132395Y-14365915D02*
X10113348Y-14384963D01*
X10113348Y-14384963D02*
X10094300Y-14394487D01*
X10284776Y-14337344D02*
X10284776Y-14375439D01*
X10360967Y-14337344D02*
X10360967Y-14375439D01*
X10656205Y-14613534D02*
X10646681Y-14604010D01*
X10646681Y-14604010D02*
X10627634Y-14575439D01*
X10627634Y-14575439D02*
X10618110Y-14556391D01*
X10618110Y-14556391D02*
X10608586Y-14527820D01*
X10608586Y-14527820D02*
X10599062Y-14480201D01*
X10599062Y-14480201D02*
X10599062Y-14442106D01*
X10599062Y-14442106D02*
X10608586Y-14394487D01*
X10608586Y-14394487D02*
X10618110Y-14365915D01*
X10618110Y-14365915D02*
X10627634Y-14346868D01*
X10627634Y-14346868D02*
X10646681Y-14318296D01*
X10646681Y-14318296D02*
X10656205Y-14308772D01*
X10837157Y-14537344D02*
X10722872Y-14537344D01*
X10780015Y-14537344D02*
X10780015Y-14337344D01*
X10780015Y-14337344D02*
X10760967Y-14365915D01*
X10760967Y-14365915D02*
X10741919Y-14384963D01*
X10741919Y-14384963D02*
X10722872Y-14394487D01*
X11008586Y-14337344D02*
X10970491Y-14337344D01*
X10970491Y-14337344D02*
X10951443Y-14346868D01*
X10951443Y-14346868D02*
X10941919Y-14356391D01*
X10941919Y-14356391D02*
X10922872Y-14384963D01*
X10922872Y-14384963D02*
X10913348Y-14423058D01*
X10913348Y-14423058D02*
X10913348Y-14499248D01*
X10913348Y-14499248D02*
X10922872Y-14518296D01*
X10922872Y-14518296D02*
X10932396Y-14527820D01*
X10932396Y-14527820D02*
X10951443Y-14537344D01*
X10951443Y-14537344D02*
X10989538Y-14537344D01*
X10989538Y-14537344D02*
X11008586Y-14527820D01*
X11008586Y-14527820D02*
X11018110Y-14518296D01*
X11018110Y-14518296D02*
X11027634Y-14499248D01*
X11027634Y-14499248D02*
X11027634Y-14451629D01*
X11027634Y-14451629D02*
X11018110Y-14432582D01*
X11018110Y-14432582D02*
X11008586Y-14423058D01*
X11008586Y-14423058D02*
X10989538Y-14413534D01*
X10989538Y-14413534D02*
X10951443Y-14413534D01*
X10951443Y-14413534D02*
X10932396Y-14423058D01*
X10932396Y-14423058D02*
X10922872Y-14432582D01*
X10922872Y-14432582D02*
X10913348Y-14451629D01*
X11265729Y-14537344D02*
X11265729Y-14337344D01*
X11351443Y-14537344D02*
X11351443Y-14432582D01*
X11351443Y-14432582D02*
X11341919Y-14413534D01*
X11341919Y-14413534D02*
X11322872Y-14404010D01*
X11322872Y-14404010D02*
X11294300Y-14404010D01*
X11294300Y-14404010D02*
X11275253Y-14413534D01*
X11275253Y-14413534D02*
X11265729Y-14423058D01*
X11475253Y-14537344D02*
X11456205Y-14527820D01*
X11456205Y-14527820D02*
X11446681Y-14518296D01*
X11446681Y-14518296D02*
X11437157Y-14499248D01*
X11437157Y-14499248D02*
X11437157Y-14442106D01*
X11437157Y-14442106D02*
X11446681Y-14423058D01*
X11446681Y-14423058D02*
X11456205Y-14413534D01*
X11456205Y-14413534D02*
X11475253Y-14404010D01*
X11475253Y-14404010D02*
X11503824Y-14404010D01*
X11503824Y-14404010D02*
X11522872Y-14413534D01*
X11522872Y-14413534D02*
X11532396Y-14423058D01*
X11532396Y-14423058D02*
X11541919Y-14442106D01*
X11541919Y-14442106D02*
X11541919Y-14499248D01*
X11541919Y-14499248D02*
X11532396Y-14518296D01*
X11532396Y-14518296D02*
X11522872Y-14527820D01*
X11522872Y-14527820D02*
X11503824Y-14537344D01*
X11503824Y-14537344D02*
X11475253Y-14537344D01*
X11656205Y-14537344D02*
X11637157Y-14527820D01*
X11637157Y-14527820D02*
X11627634Y-14508772D01*
X11627634Y-14508772D02*
X11627634Y-14337344D01*
X11808586Y-14527820D02*
X11789538Y-14537344D01*
X11789538Y-14537344D02*
X11751443Y-14537344D01*
X11751443Y-14537344D02*
X11732396Y-14527820D01*
X11732396Y-14527820D02*
X11722872Y-14508772D01*
X11722872Y-14508772D02*
X11722872Y-14432582D01*
X11722872Y-14432582D02*
X11732396Y-14413534D01*
X11732396Y-14413534D02*
X11751443Y-14404010D01*
X11751443Y-14404010D02*
X11789538Y-14404010D01*
X11789538Y-14404010D02*
X11808586Y-14413534D01*
X11808586Y-14413534D02*
X11818110Y-14432582D01*
X11818110Y-14432582D02*
X11818110Y-14451629D01*
X11818110Y-14451629D02*
X11722872Y-14470677D01*
X11894300Y-14527820D02*
X11913348Y-14537344D01*
X11913348Y-14537344D02*
X11951443Y-14537344D01*
X11951443Y-14537344D02*
X11970491Y-14527820D01*
X11970491Y-14527820D02*
X11980015Y-14508772D01*
X11980015Y-14508772D02*
X11980015Y-14499248D01*
X11980015Y-14499248D02*
X11970491Y-14480201D01*
X11970491Y-14480201D02*
X11951443Y-14470677D01*
X11951443Y-14470677D02*
X11922872Y-14470677D01*
X11922872Y-14470677D02*
X11903824Y-14461153D01*
X11903824Y-14461153D02*
X11894300Y-14442106D01*
X11894300Y-14442106D02*
X11894300Y-14432582D01*
X11894300Y-14432582D02*
X11903824Y-14413534D01*
X11903824Y-14413534D02*
X11922872Y-14404010D01*
X11922872Y-14404010D02*
X11951443Y-14404010D01*
X11951443Y-14404010D02*
X11970491Y-14413534D01*
X12046681Y-14613534D02*
X12056205Y-14604010D01*
X12056205Y-14604010D02*
X12075253Y-14575439D01*
X12075253Y-14575439D02*
X12084777Y-14556391D01*
X12084777Y-14556391D02*
X12094300Y-14527820D01*
X12094300Y-14527820D02*
X12103824Y-14480201D01*
X12103824Y-14480201D02*
X12103824Y-14442106D01*
X12103824Y-14442106D02*
X12094300Y-14394487D01*
X12094300Y-14394487D02*
X12084777Y-14365915D01*
X12084777Y-14365915D02*
X12075253Y-14346868D01*
X12075253Y-14346868D02*
X12056205Y-14318296D01*
X12056205Y-14318296D02*
X12046681Y-14308772D01*
X12408586Y-14613534D02*
X12399062Y-14604010D01*
X12399062Y-14604010D02*
X12380015Y-14575439D01*
X12380015Y-14575439D02*
X12370491Y-14556391D01*
X12370491Y-14556391D02*
X12360967Y-14527820D01*
X12360967Y-14527820D02*
X12351443Y-14480201D01*
X12351443Y-14480201D02*
X12351443Y-14442106D01*
X12351443Y-14442106D02*
X12360967Y-14394487D01*
X12360967Y-14394487D02*
X12370491Y-14365915D01*
X12370491Y-14365915D02*
X12380015Y-14346868D01*
X12380015Y-14346868D02*
X12399062Y-14318296D01*
X12399062Y-14318296D02*
X12408586Y-14308772D01*
X12484777Y-14404010D02*
X12484777Y-14537344D01*
X12484777Y-14423058D02*
X12494300Y-14413534D01*
X12494300Y-14413534D02*
X12513348Y-14404010D01*
X12513348Y-14404010D02*
X12541919Y-14404010D01*
X12541919Y-14404010D02*
X12560967Y-14413534D01*
X12560967Y-14413534D02*
X12570491Y-14432582D01*
X12570491Y-14432582D02*
X12570491Y-14537344D01*
X12694300Y-14537344D02*
X12675253Y-14527820D01*
X12675253Y-14527820D02*
X12665729Y-14518296D01*
X12665729Y-14518296D02*
X12656205Y-14499248D01*
X12656205Y-14499248D02*
X12656205Y-14442106D01*
X12656205Y-14442106D02*
X12665729Y-14423058D01*
X12665729Y-14423058D02*
X12675253Y-14413534D01*
X12675253Y-14413534D02*
X12694300Y-14404010D01*
X12694300Y-14404010D02*
X12722872Y-14404010D01*
X12722872Y-14404010D02*
X12741919Y-14413534D01*
X12741919Y-14413534D02*
X12751443Y-14423058D01*
X12751443Y-14423058D02*
X12760967Y-14442106D01*
X12760967Y-14442106D02*
X12760967Y-14499248D01*
X12760967Y-14499248D02*
X12751443Y-14518296D01*
X12751443Y-14518296D02*
X12741919Y-14527820D01*
X12741919Y-14527820D02*
X12722872Y-14537344D01*
X12722872Y-14537344D02*
X12694300Y-14537344D01*
X12818110Y-14404010D02*
X12894300Y-14404010D01*
X12846681Y-14337344D02*
X12846681Y-14508772D01*
X12846681Y-14508772D02*
X12856205Y-14527820D01*
X12856205Y-14527820D02*
X12875253Y-14537344D01*
X12875253Y-14537344D02*
X12894300Y-14537344D01*
X13113348Y-14404010D02*
X13113348Y-14604010D01*
X13113348Y-14413534D02*
X13132396Y-14404010D01*
X13132396Y-14404010D02*
X13170491Y-14404010D01*
X13170491Y-14404010D02*
X13189539Y-14413534D01*
X13189539Y-14413534D02*
X13199062Y-14423058D01*
X13199062Y-14423058D02*
X13208586Y-14442106D01*
X13208586Y-14442106D02*
X13208586Y-14499248D01*
X13208586Y-14499248D02*
X13199062Y-14518296D01*
X13199062Y-14518296D02*
X13189539Y-14527820D01*
X13189539Y-14527820D02*
X13170491Y-14537344D01*
X13170491Y-14537344D02*
X13132396Y-14537344D01*
X13132396Y-14537344D02*
X13113348Y-14527820D01*
X13322872Y-14537344D02*
X13303824Y-14527820D01*
X13303824Y-14527820D02*
X13294300Y-14508772D01*
X13294300Y-14508772D02*
X13294300Y-14337344D01*
X13484777Y-14537344D02*
X13484777Y-14432582D01*
X13484777Y-14432582D02*
X13475253Y-14413534D01*
X13475253Y-14413534D02*
X13456205Y-14404010D01*
X13456205Y-14404010D02*
X13418110Y-14404010D01*
X13418110Y-14404010D02*
X13399062Y-14413534D01*
X13484777Y-14527820D02*
X13465729Y-14537344D01*
X13465729Y-14537344D02*
X13418110Y-14537344D01*
X13418110Y-14537344D02*
X13399062Y-14527820D01*
X13399062Y-14527820D02*
X13389539Y-14508772D01*
X13389539Y-14508772D02*
X13389539Y-14489725D01*
X13389539Y-14489725D02*
X13399062Y-14470677D01*
X13399062Y-14470677D02*
X13418110Y-14461153D01*
X13418110Y-14461153D02*
X13465729Y-14461153D01*
X13465729Y-14461153D02*
X13484777Y-14451629D01*
X13551443Y-14404010D02*
X13627634Y-14404010D01*
X13580015Y-14337344D02*
X13580015Y-14508772D01*
X13580015Y-14508772D02*
X13589539Y-14527820D01*
X13589539Y-14527820D02*
X13608586Y-14537344D01*
X13608586Y-14537344D02*
X13627634Y-14537344D01*
X13770491Y-14527820D02*
X13751443Y-14537344D01*
X13751443Y-14537344D02*
X13713348Y-14537344D01*
X13713348Y-14537344D02*
X13694300Y-14527820D01*
X13694300Y-14527820D02*
X13684777Y-14508772D01*
X13684777Y-14508772D02*
X13684777Y-14432582D01*
X13684777Y-14432582D02*
X13694300Y-14413534D01*
X13694300Y-14413534D02*
X13713348Y-14404010D01*
X13713348Y-14404010D02*
X13751443Y-14404010D01*
X13751443Y-14404010D02*
X13770491Y-14413534D01*
X13770491Y-14413534D02*
X13780015Y-14432582D01*
X13780015Y-14432582D02*
X13780015Y-14451629D01*
X13780015Y-14451629D02*
X13684777Y-14470677D01*
X13951443Y-14537344D02*
X13951443Y-14337344D01*
X13951443Y-14527820D02*
X13932396Y-14537344D01*
X13932396Y-14537344D02*
X13894300Y-14537344D01*
X13894300Y-14537344D02*
X13875253Y-14527820D01*
X13875253Y-14527820D02*
X13865729Y-14518296D01*
X13865729Y-14518296D02*
X13856205Y-14499248D01*
X13856205Y-14499248D02*
X13856205Y-14442106D01*
X13856205Y-14442106D02*
X13865729Y-14423058D01*
X13865729Y-14423058D02*
X13875253Y-14413534D01*
X13875253Y-14413534D02*
X13894300Y-14404010D01*
X13894300Y-14404010D02*
X13932396Y-14404010D01*
X13932396Y-14404010D02*
X13951443Y-14413534D01*
X14027634Y-14613534D02*
X14037158Y-14604010D01*
X14037158Y-14604010D02*
X14056205Y-14575439D01*
X14056205Y-14575439D02*
X14065729Y-14556391D01*
X14065729Y-14556391D02*
X14075253Y-14527820D01*
X14075253Y-14527820D02*
X14084777Y-14480201D01*
X14084777Y-14480201D02*
X14084777Y-14442106D01*
X14084777Y-14442106D02*
X14075253Y-14394487D01*
X14075253Y-14394487D02*
X14065729Y-14365915D01*
X14065729Y-14365915D02*
X14056205Y-14346868D01*
X14056205Y-14346868D02*
X14037158Y-14318296D01*
X14037158Y-14318296D02*
X14027634Y-14308772D01*
X7094300Y-14764820D02*
G75*
G03*
X7094300Y-14764820I-100000J0D01*
G01*
X7427633Y-14724010D02*
X7427633Y-14857344D01*
X7380014Y-14647820D02*
X7332395Y-14790677D01*
X7332395Y-14790677D02*
X7456205Y-14790677D01*
X7532395Y-14838296D02*
X7541919Y-14847820D01*
X7541919Y-14847820D02*
X7532395Y-14857344D01*
X7532395Y-14857344D02*
X7522871Y-14847820D01*
X7522871Y-14847820D02*
X7532395Y-14838296D01*
X7532395Y-14838296D02*
X7532395Y-14857344D01*
X7608586Y-14657344D02*
X7732395Y-14657344D01*
X7732395Y-14657344D02*
X7665728Y-14733534D01*
X7665728Y-14733534D02*
X7694300Y-14733534D01*
X7694300Y-14733534D02*
X7713348Y-14743058D01*
X7713348Y-14743058D02*
X7722871Y-14752582D01*
X7722871Y-14752582D02*
X7732395Y-14771629D01*
X7732395Y-14771629D02*
X7732395Y-14819248D01*
X7732395Y-14819248D02*
X7722871Y-14838296D01*
X7722871Y-14838296D02*
X7713348Y-14847820D01*
X7713348Y-14847820D02*
X7694300Y-14857344D01*
X7694300Y-14857344D02*
X7637157Y-14857344D01*
X7637157Y-14857344D02*
X7618109Y-14847820D01*
X7618109Y-14847820D02*
X7608586Y-14838296D01*
X7856205Y-14657344D02*
X7875252Y-14657344D01*
X7875252Y-14657344D02*
X7894300Y-14666868D01*
X7894300Y-14666868D02*
X7903824Y-14676391D01*
X7903824Y-14676391D02*
X7913348Y-14695439D01*
X7913348Y-14695439D02*
X7922871Y-14733534D01*
X7922871Y-14733534D02*
X7922871Y-14781153D01*
X7922871Y-14781153D02*
X7913348Y-14819248D01*
X7913348Y-14819248D02*
X7903824Y-14838296D01*
X7903824Y-14838296D02*
X7894300Y-14847820D01*
X7894300Y-14847820D02*
X7875252Y-14857344D01*
X7875252Y-14857344D02*
X7856205Y-14857344D01*
X7856205Y-14857344D02*
X7837157Y-14847820D01*
X7837157Y-14847820D02*
X7827633Y-14838296D01*
X7827633Y-14838296D02*
X7818109Y-14819248D01*
X7818109Y-14819248D02*
X7808586Y-14781153D01*
X7808586Y-14781153D02*
X7808586Y-14733534D01*
X7808586Y-14733534D02*
X7818109Y-14695439D01*
X7818109Y-14695439D02*
X7827633Y-14676391D01*
X7827633Y-14676391D02*
X7837157Y-14666868D01*
X7837157Y-14666868D02*
X7856205Y-14657344D01*
X8046681Y-14657344D02*
X8065729Y-14657344D01*
X8065729Y-14657344D02*
X8084776Y-14666868D01*
X8084776Y-14666868D02*
X8094300Y-14676391D01*
X8094300Y-14676391D02*
X8103824Y-14695439D01*
X8103824Y-14695439D02*
X8113348Y-14733534D01*
X8113348Y-14733534D02*
X8113348Y-14781153D01*
X8113348Y-14781153D02*
X8103824Y-14819248D01*
X8103824Y-14819248D02*
X8094300Y-14838296D01*
X8094300Y-14838296D02*
X8084776Y-14847820D01*
X8084776Y-14847820D02*
X8065729Y-14857344D01*
X8065729Y-14857344D02*
X8046681Y-14857344D01*
X8046681Y-14857344D02*
X8027633Y-14847820D01*
X8027633Y-14847820D02*
X8018109Y-14838296D01*
X8018109Y-14838296D02*
X8008586Y-14819248D01*
X8008586Y-14819248D02*
X7999062Y-14781153D01*
X7999062Y-14781153D02*
X7999062Y-14733534D01*
X7999062Y-14733534D02*
X8008586Y-14695439D01*
X8008586Y-14695439D02*
X8018109Y-14676391D01*
X8018109Y-14676391D02*
X8027633Y-14666868D01*
X8027633Y-14666868D02*
X8046681Y-14657344D01*
X8199062Y-14857344D02*
X8199062Y-14724010D01*
X8199062Y-14743058D02*
X8208586Y-14733534D01*
X8208586Y-14733534D02*
X8227633Y-14724010D01*
X8227633Y-14724010D02*
X8256205Y-14724010D01*
X8256205Y-14724010D02*
X8275252Y-14733534D01*
X8275252Y-14733534D02*
X8284776Y-14752582D01*
X8284776Y-14752582D02*
X8284776Y-14857344D01*
X8284776Y-14752582D02*
X8294300Y-14733534D01*
X8294300Y-14733534D02*
X8313348Y-14724010D01*
X8313348Y-14724010D02*
X8341919Y-14724010D01*
X8341919Y-14724010D02*
X8360967Y-14733534D01*
X8360967Y-14733534D02*
X8370490Y-14752582D01*
X8370490Y-14752582D02*
X8370490Y-14857344D01*
X8465729Y-14857344D02*
X8465729Y-14724010D01*
X8465729Y-14743058D02*
X8475252Y-14733534D01*
X8475252Y-14733534D02*
X8494300Y-14724010D01*
X8494300Y-14724010D02*
X8522872Y-14724010D01*
X8522872Y-14724010D02*
X8541919Y-14733534D01*
X8541919Y-14733534D02*
X8551443Y-14752582D01*
X8551443Y-14752582D02*
X8551443Y-14857344D01*
X8551443Y-14752582D02*
X8560967Y-14733534D01*
X8560967Y-14733534D02*
X8580014Y-14724010D01*
X8580014Y-14724010D02*
X8608586Y-14724010D01*
X8608586Y-14724010D02*
X8627633Y-14733534D01*
X8627633Y-14733534D02*
X8637157Y-14752582D01*
X8637157Y-14752582D02*
X8637157Y-14857344D01*
X9027633Y-14647820D02*
X8856205Y-14904963D01*
X9284776Y-14657344D02*
X9303824Y-14657344D01*
X9303824Y-14657344D02*
X9322872Y-14666868D01*
X9322872Y-14666868D02*
X9332395Y-14676391D01*
X9332395Y-14676391D02*
X9341919Y-14695439D01*
X9341919Y-14695439D02*
X9351443Y-14733534D01*
X9351443Y-14733534D02*
X9351443Y-14781153D01*
X9351443Y-14781153D02*
X9341919Y-14819248D01*
X9341919Y-14819248D02*
X9332395Y-14838296D01*
X9332395Y-14838296D02*
X9322872Y-14847820D01*
X9322872Y-14847820D02*
X9303824Y-14857344D01*
X9303824Y-14857344D02*
X9284776Y-14857344D01*
X9284776Y-14857344D02*
X9265729Y-14847820D01*
X9265729Y-14847820D02*
X9256205Y-14838296D01*
X9256205Y-14838296D02*
X9246681Y-14819248D01*
X9246681Y-14819248D02*
X9237157Y-14781153D01*
X9237157Y-14781153D02*
X9237157Y-14733534D01*
X9237157Y-14733534D02*
X9246681Y-14695439D01*
X9246681Y-14695439D02*
X9256205Y-14676391D01*
X9256205Y-14676391D02*
X9265729Y-14666868D01*
X9265729Y-14666868D02*
X9284776Y-14657344D01*
X9437157Y-14838296D02*
X9446681Y-14847820D01*
X9446681Y-14847820D02*
X9437157Y-14857344D01*
X9437157Y-14857344D02*
X9427634Y-14847820D01*
X9427634Y-14847820D02*
X9437157Y-14838296D01*
X9437157Y-14838296D02*
X9437157Y-14857344D01*
X9637157Y-14857344D02*
X9522872Y-14857344D01*
X9580014Y-14857344D02*
X9580014Y-14657344D01*
X9580014Y-14657344D02*
X9560967Y-14685915D01*
X9560967Y-14685915D02*
X9541919Y-14704963D01*
X9541919Y-14704963D02*
X9522872Y-14714487D01*
X9808586Y-14657344D02*
X9770491Y-14657344D01*
X9770491Y-14657344D02*
X9751443Y-14666868D01*
X9751443Y-14666868D02*
X9741919Y-14676391D01*
X9741919Y-14676391D02*
X9722872Y-14704963D01*
X9722872Y-14704963D02*
X9713348Y-14743058D01*
X9713348Y-14743058D02*
X9713348Y-14819248D01*
X9713348Y-14819248D02*
X9722872Y-14838296D01*
X9722872Y-14838296D02*
X9732395Y-14847820D01*
X9732395Y-14847820D02*
X9751443Y-14857344D01*
X9751443Y-14857344D02*
X9789538Y-14857344D01*
X9789538Y-14857344D02*
X9808586Y-14847820D01*
X9808586Y-14847820D02*
X9818110Y-14838296D01*
X9818110Y-14838296D02*
X9827634Y-14819248D01*
X9827634Y-14819248D02*
X9827634Y-14771629D01*
X9827634Y-14771629D02*
X9818110Y-14752582D01*
X9818110Y-14752582D02*
X9808586Y-14743058D01*
X9808586Y-14743058D02*
X9789538Y-14733534D01*
X9789538Y-14733534D02*
X9751443Y-14733534D01*
X9751443Y-14733534D02*
X9732395Y-14743058D01*
X9732395Y-14743058D02*
X9722872Y-14752582D01*
X9722872Y-14752582D02*
X9713348Y-14771629D01*
X9922872Y-14857344D02*
X9960967Y-14857344D01*
X9960967Y-14857344D02*
X9980015Y-14847820D01*
X9980015Y-14847820D02*
X9989538Y-14838296D01*
X9989538Y-14838296D02*
X10008586Y-14809725D01*
X10008586Y-14809725D02*
X10018110Y-14771629D01*
X10018110Y-14771629D02*
X10018110Y-14695439D01*
X10018110Y-14695439D02*
X10008586Y-14676391D01*
X10008586Y-14676391D02*
X9999062Y-14666868D01*
X9999062Y-14666868D02*
X9980015Y-14657344D01*
X9980015Y-14657344D02*
X9941919Y-14657344D01*
X9941919Y-14657344D02*
X9922872Y-14666868D01*
X9922872Y-14666868D02*
X9913348Y-14676391D01*
X9913348Y-14676391D02*
X9903824Y-14695439D01*
X9903824Y-14695439D02*
X9903824Y-14743058D01*
X9903824Y-14743058D02*
X9913348Y-14762106D01*
X9913348Y-14762106D02*
X9922872Y-14771629D01*
X9922872Y-14771629D02*
X9941919Y-14781153D01*
X9941919Y-14781153D02*
X9980015Y-14781153D01*
X9980015Y-14781153D02*
X9999062Y-14771629D01*
X9999062Y-14771629D02*
X10008586Y-14762106D01*
X10008586Y-14762106D02*
X10018110Y-14743058D01*
X10084776Y-14657344D02*
X10208586Y-14657344D01*
X10208586Y-14657344D02*
X10141919Y-14733534D01*
X10141919Y-14733534D02*
X10170491Y-14733534D01*
X10170491Y-14733534D02*
X10189538Y-14743058D01*
X10189538Y-14743058D02*
X10199062Y-14752582D01*
X10199062Y-14752582D02*
X10208586Y-14771629D01*
X10208586Y-14771629D02*
X10208586Y-14819248D01*
X10208586Y-14819248D02*
X10199062Y-14838296D01*
X10199062Y-14838296D02*
X10189538Y-14847820D01*
X10189538Y-14847820D02*
X10170491Y-14857344D01*
X10170491Y-14857344D02*
X10113348Y-14857344D01*
X10113348Y-14857344D02*
X10094300Y-14847820D01*
X10094300Y-14847820D02*
X10084776Y-14838296D01*
X10284776Y-14657344D02*
X10284776Y-14695439D01*
X10360967Y-14657344D02*
X10360967Y-14695439D01*
X10656205Y-14933534D02*
X10646681Y-14924010D01*
X10646681Y-14924010D02*
X10627634Y-14895439D01*
X10627634Y-14895439D02*
X10618110Y-14876391D01*
X10618110Y-14876391D02*
X10608586Y-14847820D01*
X10608586Y-14847820D02*
X10599062Y-14800201D01*
X10599062Y-14800201D02*
X10599062Y-14762106D01*
X10599062Y-14762106D02*
X10608586Y-14714487D01*
X10608586Y-14714487D02*
X10618110Y-14685915D01*
X10618110Y-14685915D02*
X10627634Y-14666868D01*
X10627634Y-14666868D02*
X10646681Y-14638296D01*
X10646681Y-14638296D02*
X10656205Y-14628772D01*
X10818110Y-14724010D02*
X10818110Y-14857344D01*
X10770491Y-14647820D02*
X10722872Y-14790677D01*
X10722872Y-14790677D02*
X10846681Y-14790677D01*
X11075253Y-14857344D02*
X11075253Y-14657344D01*
X11160967Y-14857344D02*
X11160967Y-14752582D01*
X11160967Y-14752582D02*
X11151443Y-14733534D01*
X11151443Y-14733534D02*
X11132396Y-14724010D01*
X11132396Y-14724010D02*
X11103824Y-14724010D01*
X11103824Y-14724010D02*
X11084777Y-14733534D01*
X11084777Y-14733534D02*
X11075253Y-14743058D01*
X11284776Y-14857344D02*
X11265729Y-14847820D01*
X11265729Y-14847820D02*
X11256205Y-14838296D01*
X11256205Y-14838296D02*
X11246681Y-14819248D01*
X11246681Y-14819248D02*
X11246681Y-14762106D01*
X11246681Y-14762106D02*
X11256205Y-14743058D01*
X11256205Y-14743058D02*
X11265729Y-14733534D01*
X11265729Y-14733534D02*
X11284776Y-14724010D01*
X11284776Y-14724010D02*
X11313348Y-14724010D01*
X11313348Y-14724010D02*
X11332396Y-14733534D01*
X11332396Y-14733534D02*
X11341919Y-14743058D01*
X11341919Y-14743058D02*
X11351443Y-14762106D01*
X11351443Y-14762106D02*
X11351443Y-14819248D01*
X11351443Y-14819248D02*
X11341919Y-14838296D01*
X11341919Y-14838296D02*
X11332396Y-14847820D01*
X11332396Y-14847820D02*
X11313348Y-14857344D01*
X11313348Y-14857344D02*
X11284776Y-14857344D01*
X11465729Y-14857344D02*
X11446681Y-14847820D01*
X11446681Y-14847820D02*
X11437157Y-14828772D01*
X11437157Y-14828772D02*
X11437157Y-14657344D01*
X11618110Y-14847820D02*
X11599062Y-14857344D01*
X11599062Y-14857344D02*
X11560967Y-14857344D01*
X11560967Y-14857344D02*
X11541919Y-14847820D01*
X11541919Y-14847820D02*
X11532396Y-14828772D01*
X11532396Y-14828772D02*
X11532396Y-14752582D01*
X11532396Y-14752582D02*
X11541919Y-14733534D01*
X11541919Y-14733534D02*
X11560967Y-14724010D01*
X11560967Y-14724010D02*
X11599062Y-14724010D01*
X11599062Y-14724010D02*
X11618110Y-14733534D01*
X11618110Y-14733534D02*
X11627634Y-14752582D01*
X11627634Y-14752582D02*
X11627634Y-14771629D01*
X11627634Y-14771629D02*
X11532396Y-14790677D01*
X11703824Y-14847820D02*
X11722872Y-14857344D01*
X11722872Y-14857344D02*
X11760967Y-14857344D01*
X11760967Y-14857344D02*
X11780015Y-14847820D01*
X11780015Y-14847820D02*
X11789538Y-14828772D01*
X11789538Y-14828772D02*
X11789538Y-14819248D01*
X11789538Y-14819248D02*
X11780015Y-14800201D01*
X11780015Y-14800201D02*
X11760967Y-14790677D01*
X11760967Y-14790677D02*
X11732396Y-14790677D01*
X11732396Y-14790677D02*
X11713348Y-14781153D01*
X11713348Y-14781153D02*
X11703824Y-14762106D01*
X11703824Y-14762106D02*
X11703824Y-14752582D01*
X11703824Y-14752582D02*
X11713348Y-14733534D01*
X11713348Y-14733534D02*
X11732396Y-14724010D01*
X11732396Y-14724010D02*
X11760967Y-14724010D01*
X11760967Y-14724010D02*
X11780015Y-14733534D01*
X11856205Y-14933534D02*
X11865729Y-14924010D01*
X11865729Y-14924010D02*
X11884777Y-14895439D01*
X11884777Y-14895439D02*
X11894300Y-14876391D01*
X11894300Y-14876391D02*
X11903824Y-14847820D01*
X11903824Y-14847820D02*
X11913348Y-14800201D01*
X11913348Y-14800201D02*
X11913348Y-14762106D01*
X11913348Y-14762106D02*
X11903824Y-14714487D01*
X11903824Y-14714487D02*
X11894300Y-14685915D01*
X11894300Y-14685915D02*
X11884777Y-14666868D01*
X11884777Y-14666868D02*
X11865729Y-14638296D01*
X11865729Y-14638296D02*
X11856205Y-14628772D01*
X12218110Y-14933534D02*
X12208586Y-14924010D01*
X12208586Y-14924010D02*
X12189538Y-14895439D01*
X12189538Y-14895439D02*
X12180015Y-14876391D01*
X12180015Y-14876391D02*
X12170491Y-14847820D01*
X12170491Y-14847820D02*
X12160967Y-14800201D01*
X12160967Y-14800201D02*
X12160967Y-14762106D01*
X12160967Y-14762106D02*
X12170491Y-14714487D01*
X12170491Y-14714487D02*
X12180015Y-14685915D01*
X12180015Y-14685915D02*
X12189538Y-14666868D01*
X12189538Y-14666868D02*
X12208586Y-14638296D01*
X12208586Y-14638296D02*
X12218110Y-14628772D01*
X12294300Y-14724010D02*
X12294300Y-14857344D01*
X12294300Y-14743058D02*
X12303824Y-14733534D01*
X12303824Y-14733534D02*
X12322872Y-14724010D01*
X12322872Y-14724010D02*
X12351443Y-14724010D01*
X12351443Y-14724010D02*
X12370491Y-14733534D01*
X12370491Y-14733534D02*
X12380015Y-14752582D01*
X12380015Y-14752582D02*
X12380015Y-14857344D01*
X12503824Y-14857344D02*
X12484777Y-14847820D01*
X12484777Y-14847820D02*
X12475253Y-14838296D01*
X12475253Y-14838296D02*
X12465729Y-14819248D01*
X12465729Y-14819248D02*
X12465729Y-14762106D01*
X12465729Y-14762106D02*
X12475253Y-14743058D01*
X12475253Y-14743058D02*
X12484777Y-14733534D01*
X12484777Y-14733534D02*
X12503824Y-14724010D01*
X12503824Y-14724010D02*
X12532396Y-14724010D01*
X12532396Y-14724010D02*
X12551443Y-14733534D01*
X12551443Y-14733534D02*
X12560967Y-14743058D01*
X12560967Y-14743058D02*
X12570491Y-14762106D01*
X12570491Y-14762106D02*
X12570491Y-14819248D01*
X12570491Y-14819248D02*
X12560967Y-14838296D01*
X12560967Y-14838296D02*
X12551443Y-14847820D01*
X12551443Y-14847820D02*
X12532396Y-14857344D01*
X12532396Y-14857344D02*
X12503824Y-14857344D01*
X12627634Y-14724010D02*
X12703824Y-14724010D01*
X12656205Y-14657344D02*
X12656205Y-14828772D01*
X12656205Y-14828772D02*
X12665729Y-14847820D01*
X12665729Y-14847820D02*
X12684777Y-14857344D01*
X12684777Y-14857344D02*
X12703824Y-14857344D01*
X12922872Y-14724010D02*
X12922872Y-14924010D01*
X12922872Y-14733534D02*
X12941919Y-14724010D01*
X12941919Y-14724010D02*
X12980015Y-14724010D01*
X12980015Y-14724010D02*
X12999062Y-14733534D01*
X12999062Y-14733534D02*
X13008586Y-14743058D01*
X13008586Y-14743058D02*
X13018110Y-14762106D01*
X13018110Y-14762106D02*
X13018110Y-14819248D01*
X13018110Y-14819248D02*
X13008586Y-14838296D01*
X13008586Y-14838296D02*
X12999062Y-14847820D01*
X12999062Y-14847820D02*
X12980015Y-14857344D01*
X12980015Y-14857344D02*
X12941919Y-14857344D01*
X12941919Y-14857344D02*
X12922872Y-14847820D01*
X13132396Y-14857344D02*
X13113348Y-14847820D01*
X13113348Y-14847820D02*
X13103824Y-14828772D01*
X13103824Y-14828772D02*
X13103824Y-14657344D01*
X13294300Y-14857344D02*
X13294300Y-14752582D01*
X13294300Y-14752582D02*
X13284777Y-14733534D01*
X13284777Y-14733534D02*
X13265729Y-14724010D01*
X13265729Y-14724010D02*
X13227634Y-14724010D01*
X13227634Y-14724010D02*
X13208586Y-14733534D01*
X13294300Y-14847820D02*
X13275253Y-14857344D01*
X13275253Y-14857344D02*
X13227634Y-14857344D01*
X13227634Y-14857344D02*
X13208586Y-14847820D01*
X13208586Y-14847820D02*
X13199062Y-14828772D01*
X13199062Y-14828772D02*
X13199062Y-14809725D01*
X13199062Y-14809725D02*
X13208586Y-14790677D01*
X13208586Y-14790677D02*
X13227634Y-14781153D01*
X13227634Y-14781153D02*
X13275253Y-14781153D01*
X13275253Y-14781153D02*
X13294300Y-14771629D01*
X13360967Y-14724010D02*
X13437158Y-14724010D01*
X13389539Y-14657344D02*
X13389539Y-14828772D01*
X13389539Y-14828772D02*
X13399062Y-14847820D01*
X13399062Y-14847820D02*
X13418110Y-14857344D01*
X13418110Y-14857344D02*
X13437158Y-14857344D01*
X13580015Y-14847820D02*
X13560967Y-14857344D01*
X13560967Y-14857344D02*
X13522872Y-14857344D01*
X13522872Y-14857344D02*
X13503824Y-14847820D01*
X13503824Y-14847820D02*
X13494300Y-14828772D01*
X13494300Y-14828772D02*
X13494300Y-14752582D01*
X13494300Y-14752582D02*
X13503824Y-14733534D01*
X13503824Y-14733534D02*
X13522872Y-14724010D01*
X13522872Y-14724010D02*
X13560967Y-14724010D01*
X13560967Y-14724010D02*
X13580015Y-14733534D01*
X13580015Y-14733534D02*
X13589539Y-14752582D01*
X13589539Y-14752582D02*
X13589539Y-14771629D01*
X13589539Y-14771629D02*
X13494300Y-14790677D01*
X13760967Y-14857344D02*
X13760967Y-14657344D01*
X13760967Y-14847820D02*
X13741920Y-14857344D01*
X13741920Y-14857344D02*
X13703824Y-14857344D01*
X13703824Y-14857344D02*
X13684777Y-14847820D01*
X13684777Y-14847820D02*
X13675253Y-14838296D01*
X13675253Y-14838296D02*
X13665729Y-14819248D01*
X13665729Y-14819248D02*
X13665729Y-14762106D01*
X13665729Y-14762106D02*
X13675253Y-14743058D01*
X13675253Y-14743058D02*
X13684777Y-14733534D01*
X13684777Y-14733534D02*
X13703824Y-14724010D01*
X13703824Y-14724010D02*
X13741920Y-14724010D01*
X13741920Y-14724010D02*
X13760967Y-14733534D01*
X13837158Y-14933534D02*
X13846681Y-14924010D01*
X13846681Y-14924010D02*
X13865729Y-14895439D01*
X13865729Y-14895439D02*
X13875253Y-14876391D01*
X13875253Y-14876391D02*
X13884777Y-14847820D01*
X13884777Y-14847820D02*
X13894300Y-14800201D01*
X13894300Y-14800201D02*
X13894300Y-14762106D01*
X13894300Y-14762106D02*
X13884777Y-14714487D01*
X13884777Y-14714487D02*
X13875253Y-14685915D01*
X13875253Y-14685915D02*
X13865729Y-14666868D01*
X13865729Y-14666868D02*
X13846681Y-14638296D01*
X13846681Y-14638296D02*
X13837158Y-14628772D01*
M02*
