%TF.GenerationSoftware,KiCad,Pcbnew,7.0.1*%
%TF.CreationDate,2023-04-04T11:35:32-07:00*%
%TF.ProjectId,PT Hub,50542048-7562-42e6-9b69-6361645f7063,v01*%
%TF.SameCoordinates,Original*%
%TF.FileFunction,Soldermask,Top*%
%TF.FilePolarity,Negative*%
%FSLAX46Y46*%
G04 Gerber Fmt 4.6, Leading zero omitted, Abs format (unit mm)*
G04 Created by KiCad (PCBNEW 7.0.1) date 2023-04-04 11:35:32*
%MOMM*%
%LPD*%
G01*
G04 APERTURE LIST*
%ADD10R,1.100000X1.000000*%
%ADD11C,2.999999*%
%ADD12R,1.900000X1.900000*%
%ADD13C,1.900000*%
%ADD14C,4.300000*%
%ADD15R,0.940000X1.020000*%
%ADD16C,1.066800*%
%ADD17R,0.965200X1.295400*%
G04 APERTURE END LIST*
D10*
%TO.C,C2*%
X160108000Y-121793000D03*
X158408000Y-121793000D03*
%TD*%
D11*
%TO.C,P6*%
X134325475Y-132600000D03*
X120725502Y-132600000D03*
D12*
X125425500Y-127560000D03*
D13*
X129625499Y-127560000D03*
X125425500Y-133059999D03*
X129625499Y-133059999D03*
%TD*%
D14*
%TO.C,H3*%
X75438000Y-133731000D03*
%TD*%
D15*
%TO.C,R1*%
X158722000Y-117475000D03*
X160302000Y-117475000D03*
%TD*%
D16*
%TO.C,P1*%
X74295000Y-110490000D03*
X75565000Y-110490000D03*
X74295000Y-111760000D03*
X75565000Y-111760000D03*
X74295000Y-113030000D03*
X75565000Y-113030000D03*
X74295000Y-114300000D03*
X75565000Y-114300000D03*
X74295000Y-115570000D03*
X75565000Y-115570000D03*
X74295000Y-116840000D03*
X75565000Y-116840000D03*
X74295000Y-118110000D03*
X75565000Y-118110000D03*
X74295000Y-119380000D03*
X75565000Y-119380000D03*
X74295000Y-120650000D03*
X75565000Y-120650000D03*
X74295000Y-121920000D03*
X75565000Y-121920000D03*
X74295000Y-123190000D03*
X75565000Y-123190000D03*
X74295000Y-124460000D03*
X75565000Y-124460000D03*
X74295000Y-125730000D03*
X75565000Y-125730000D03*
%TD*%
D14*
%TO.C,H1*%
X160274000Y-133731000D03*
%TD*%
D11*
%TO.C,P3*%
X101548502Y-132600000D03*
X115148475Y-132600000D03*
D12*
X106248500Y-127560000D03*
D13*
X110448499Y-127560000D03*
X106248500Y-133059999D03*
X110448499Y-133059999D03*
%TD*%
D11*
%TO.C,P8*%
X139613525Y-103620000D03*
X153213498Y-103620000D03*
D12*
X148513500Y-108660000D03*
D13*
X144313501Y-108660000D03*
X148513500Y-103160001D03*
X144313501Y-103160001D03*
%TD*%
D10*
%TO.C,C1*%
X90893000Y-118237000D03*
X89193000Y-118237000D03*
%TD*%
D11*
%TO.C,P2*%
X153552975Y-132600000D03*
X139953002Y-132600000D03*
D12*
X144653000Y-127560000D03*
D13*
X148852999Y-127560000D03*
X144653000Y-133059999D03*
X148852999Y-133059999D03*
%TD*%
D17*
%TO.C,D1*%
X158115000Y-112522000D03*
X161163000Y-112522000D03*
%TD*%
D14*
%TO.C,H4*%
X160274000Y-102362000D03*
%TD*%
D11*
%TO.C,P5*%
X120436526Y-103620000D03*
X134036499Y-103620000D03*
D12*
X129336501Y-108660000D03*
D13*
X125136502Y-108660000D03*
X129336501Y-103160001D03*
X125136502Y-103160001D03*
%TD*%
D11*
%TO.C,P4*%
X95682493Y-103620006D03*
X82082520Y-103620006D03*
D12*
X90982495Y-108660006D03*
D13*
X86782496Y-108660006D03*
X90982495Y-103160007D03*
X86782496Y-103160007D03*
%TD*%
D11*
%TO.C,P7*%
X114859499Y-103620000D03*
X101259526Y-103620000D03*
D12*
X110159501Y-108660000D03*
D13*
X105959502Y-108660000D03*
X110159501Y-103160001D03*
X105959502Y-103160001D03*
%TD*%
D14*
%TO.C,H2*%
X75184000Y-102489000D03*
%TD*%
D11*
%TO.C,P9*%
X95971475Y-132600000D03*
X82371502Y-132600000D03*
D12*
X87071500Y-127560000D03*
D13*
X91271499Y-127560000D03*
X87071500Y-133059999D03*
X91271499Y-133059999D03*
%TD*%
M02*
